<svg width="992" height="110" viewBox="0 0 992 110" fill="none" xmlns="http://www.w3.org/2000/svg">
<mask id="path-1-outside-1_344_608" maskUnits="userSpaceOnUse" x="-2" y="-2" width="996" height="114" fill="black">
<rect fill="white" x="-2" y="-2" width="996" height="114"/>
<path d="M13.8117 2.6H32.7117L27.7617 33.5H39.6117L60.7617 2.6H80.7117L62.1117 30.05C60.1117 33.05 58.1117 35.3 56.1117 36.8C54.1117 38.2 51.6617 39.15 48.7617 39.65L48.6117 40.55C50.8117 41.05 52.6117 42.05 54.0117 43.55C55.5117 44.95 56.9617 47.4 58.3617 50.9L63.9117 65H72.3117L69.7617 80H61.2117C57.2117 80 53.9617 79.15 51.4617 77.45C49.0617 75.65 47.1117 72.85 45.6117 69.05L37.3617 47.9H25.2117L19.8117 80H0.911719L13.8117 2.6ZM110.953 81.8C105.853 81.8 101.253 81.05 97.1531 79.55C93.1531 77.95 89.7531 75.7 86.9531 72.8C84.2531 69.9 82.1531 66.4 80.6531 62.3C79.2531 58.2 78.5531 53.65 78.5531 48.65C78.5531 41.25 79.6031 34.6 81.7031 28.7C83.8031 22.8 86.7531 17.8 90.5531 13.7C94.3531 9.5 98.8531 6.3 104.053 4.09999C109.353 1.9 115.153 0.8 121.453 0.8C126.553 0.8 131.103 1.6 135.103 3.2C139.203 4.7 142.603 6.9 145.303 9.8C148.103 12.7 150.203 16.2 151.603 20.3C153.103 24.4 153.853 28.95 153.853 33.95C153.853 41.35 152.803 48 150.703 53.9C148.603 59.8 145.653 64.85 141.853 69.05C138.053 73.15 133.503 76.3 128.203 78.5C123.003 80.7 117.253 81.8 110.953 81.8ZM112.303 67.25C117.903 67.25 122.353 65.6 125.653 62.3C129.053 58.9 131.303 54.1 132.403 47.9L134.203 37.25C134.403 36.05 134.553 34.85 134.653 33.65C134.853 32.45 134.953 31.4 134.953 30.5C134.953 25.4 133.603 21.6 130.903 19.1C128.303 16.6 124.703 15.35 120.103 15.35C114.503 15.35 110.003 17.05 106.603 20.45C103.303 23.75 101.103 28.5 100.003 34.7L98.2031 45.35C98.0031 46.55 97.8031 47.75 97.6031 48.95C97.5031 50.15 97.4531 51.2 97.4531 52.1C97.4531 57.2 98.7531 61 101.353 63.5C104.053 66 107.703 67.25 112.303 67.25ZM165.495 2.6H184.395L179.295 33.35H208.695L213.795 2.6H232.695L219.795 80H200.895L206.145 48.05H176.745L171.495 80H152.595L165.495 2.6ZM223.336 80L236.236 2.6H251.836L249.586 15.65H250.486C252.286 11.25 254.536 7.7 257.236 5C259.936 2.2 263.386 0.8 267.586 0.8C271.686 0.8 274.786 2.15 276.886 4.84999C278.986 7.45 279.786 11.15 279.286 15.95H280.036C281.936 11.45 284.336 7.8 287.236 5C290.136 2.2 293.936 0.8 298.636 0.8C307.436 0.8 311.836 5.65 311.836 15.35C311.836 16.95 311.736 18.8 311.536 20.9C311.336 23 311.086 24.95 310.786 26.75L301.936 80H286.336L294.886 28.4C295.386 25.9 295.636 23.6 295.636 21.5C295.636 17.1 293.986 14.9 290.686 14.9C289.286 14.9 287.936 15.3 286.636 16.1C285.336 16.8 284.036 18.15 282.736 20.15C281.636 21.95 280.736 23.8 280.036 25.7C279.336 27.6 278.836 29.4 278.536 31.1L270.436 80H254.836L263.386 28.4C263.886 25.9 264.136 23.6 264.136 21.5C264.136 17.1 262.486 14.9 259.186 14.9C257.786 14.9 256.436 15.3 255.136 16.1C253.836 16.8 252.536 18.15 251.236 20.15C250.136 21.95 249.236 23.8 248.536 25.7C247.836 27.6 247.336 29.4 247.036 31.1L238.936 80H223.336ZM318.077 2.6H336.977L333.827 20.9H334.577C336.077 17.9 337.627 15.2 339.227 12.8C340.927 10.3 342.827 8.2 344.927 6.5C347.027 4.7 349.377 3.3 351.977 2.3C354.677 1.3 357.677 0.8 360.977 0.8C368.977 0.8 374.827 3.5 378.527 8.89999C382.227 14.2 384.077 21.5 384.077 30.8C384.077 37.7 383.277 44.25 381.677 50.45C380.177 56.65 377.877 62.1 374.777 66.8C371.777 71.4 368.027 75.05 363.527 77.75C359.027 80.45 353.877 81.8 348.077 81.8C342.077 81.8 337.427 80.45 334.127 77.75C330.827 74.95 328.527 71 327.227 65.9H326.327L318.977 110H300.077L318.077 2.6ZM342.077 66.8C348.177 66.8 352.877 65 356.177 61.4C359.477 57.8 361.627 52.95 362.627 46.85L364.127 37.55C364.327 36.65 364.477 35.55 364.577 34.25C364.777 32.85 364.877 31.55 364.877 30.35C364.877 26.05 363.927 22.55 362.027 19.85C360.227 17.15 357.177 15.8 352.877 15.8C349.977 15.8 347.327 16.45 344.927 17.75C342.627 19.05 340.427 20.95 338.327 23.45C336.927 25.15 335.477 27.35 333.977 30.05C332.477 32.65 331.427 35.65 330.827 39.05L328.577 53.15C327.777 57.45 328.527 60.8 330.827 63.2C333.227 65.6 336.977 66.8 342.077 66.8ZM405.319 81.8C397.719 81.8 392.169 79.2 388.669 74C385.169 68.7 383.419 61.05 383.419 51.05C383.419 44.35 384.169 37.95 385.669 31.85C387.269 25.75 389.519 20.4 392.419 15.8C395.419 11.2 399.069 7.54999 403.369 4.84999C407.769 2.15 412.819 0.8 418.519 0.8C424.219 0.8 428.669 2.2 431.869 5C435.069 7.7 437.369 11.6 438.769 16.7H439.519L441.919 2.6H460.819L450.319 65.6H459.019L456.619 80H446.119C440.719 80 436.719 78.65 434.119 75.95C431.619 73.25 430.769 69.45 431.569 64.55L432.019 61.7H431.419C429.919 64.7 428.319 67.45 426.619 69.95C425.019 72.35 423.169 74.45 421.069 76.25C419.069 77.95 416.769 79.3 414.169 80.3C411.569 81.3 408.619 81.8 405.319 81.8ZM413.569 66.8C418.769 66.8 423.469 64.25 427.669 59.15C429.069 57.45 430.519 55.25 432.019 52.55C433.619 49.75 434.669 46.75 435.169 43.55L437.419 29.45C438.119 25.45 437.419 22.2 435.319 19.7C433.219 17.1 429.619 15.8 424.519 15.8C418.519 15.8 413.969 17.6 410.869 21.2C407.869 24.8 405.869 29.65 404.869 35.75L403.219 45.65C403.019 46.55 402.869 47.55 402.769 48.65C402.669 49.75 402.619 51 402.619 52.4C402.619 56.7 403.469 60.2 405.169 62.9C406.869 65.5 409.669 66.8 413.569 66.8ZM494.21 81.8C483.91 81.8 476.06 78.9 470.66 73.1C465.36 67.3 462.71 59.3 462.71 49.1C462.71 42.3 463.66 35.95 465.56 30.05C467.56 24.15 470.36 19.05 473.96 14.75C477.56 10.35 481.96 6.95 487.16 4.55C492.36 2.05 498.21 0.8 504.71 0.8C513.41 0.8 520.06 2.65 524.66 6.35C529.26 9.95 532.31 14.55 533.81 20.15L518.36 27.2C517.16 23.5 515.46 20.75 513.26 18.95C511.06 17.15 507.71 16.25 503.21 16.25C498.21 16.25 494.06 17.85 490.76 21.05C487.46 24.15 485.26 28.9 484.16 35.3L482.66 44.3C482.46 45.4 482.31 46.6 482.21 47.9C482.11 49.1 482.06 50.25 482.06 51.35C482.06 56.15 483.26 59.85 485.66 62.45C488.16 65.05 492.01 66.35 497.21 66.35C498.81 66.35 500.36 66.2 501.86 65.9C503.46 65.5 505.11 64.7 506.81 63.5C508.61 62.3 510.56 60.6 512.66 58.4C514.86 56.1 517.36 53.05 520.16 49.25L532.31 56.9C529.71 60.9 527.11 64.45 524.51 67.55C521.91 70.65 519.11 73.25 516.11 75.35C513.11 77.45 509.81 79.05 506.21 80.15C502.71 81.25 498.71 81.8 494.21 81.8ZM529.102 80L542.002 2.6H557.602L555.352 15.65H556.252C558.052 11.25 560.302 7.7 563.002 5C565.702 2.2 569.152 0.8 573.352 0.8C577.452 0.8 580.552 2.15 582.652 4.84999C584.752 7.45 585.552 11.15 585.052 15.95H585.802C587.702 11.45 590.102 7.8 593.002 5C595.902 2.2 599.702 0.8 604.402 0.8C613.202 0.8 617.602 5.65 617.602 15.35C617.602 16.95 617.502 18.8 617.302 20.9C617.102 23 616.852 24.95 616.552 26.75L607.702 80H592.102L600.652 28.4C601.152 25.9 601.402 23.6 601.402 21.5C601.402 17.1 599.752 14.9 596.452 14.9C595.052 14.9 593.702 15.3 592.402 16.1C591.102 16.8 589.802 18.15 588.502 20.15C587.402 21.95 586.502 23.8 585.802 25.7C585.102 27.6 584.602 29.4 584.302 31.1L576.202 80H560.602L569.152 28.4C569.652 25.9 569.902 23.6 569.902 21.5C569.902 17.1 568.252 14.9 564.952 14.9C563.552 14.9 562.202 15.3 560.902 16.1C559.602 16.8 558.302 18.15 557.002 20.15C555.902 21.95 555.002 23.8 554.302 25.7C553.602 27.6 553.102 29.4 552.802 31.1L544.702 80H529.102ZM624.143 2.6H643.043L637.943 33.35H667.343L672.443 2.6H691.343L678.443 80H659.543L664.793 48.05H635.393L630.143 80H611.243L624.143 2.6ZM722.484 81.8C717.384 81.8 712.784 81.05 708.684 79.55C704.684 77.95 701.284 75.7 698.484 72.8C695.784 69.9 693.684 66.4 692.184 62.3C690.784 58.2 690.084 53.65 690.084 48.65C690.084 41.25 691.134 34.6 693.234 28.7C695.334 22.8 698.284 17.8 702.084 13.7C705.884 9.5 710.384 6.3 715.584 4.09999C720.884 1.9 726.684 0.8 732.984 0.8C738.084 0.8 742.634 1.6 746.634 3.2C750.734 4.7 754.134 6.9 756.834 9.8C759.634 12.7 761.734 16.2 763.134 20.3C764.634 24.4 765.384 28.95 765.384 33.95C765.384 41.35 764.334 48 762.234 53.9C760.134 59.8 757.184 64.85 753.384 69.05C749.584 73.15 745.034 76.3 739.734 78.5C734.534 80.7 728.784 81.8 722.484 81.8ZM723.834 67.25C729.434 67.25 733.884 65.6 737.184 62.3C740.584 58.9 742.834 54.1 743.934 47.9L745.734 37.25C745.934 36.05 746.084 34.85 746.184 33.65C746.384 32.45 746.484 31.4 746.484 30.5C746.484 25.4 745.134 21.6 742.434 19.1C739.834 16.6 736.234 15.35 731.634 15.35C726.034 15.35 721.534 17.05 718.134 20.45C714.834 23.75 712.634 28.5 711.534 34.7L709.734 45.35C709.534 46.55 709.334 47.75 709.134 48.95C709.034 50.15 708.984 51.2 708.984 52.1C708.984 57.2 710.284 61 712.884 63.5C715.584 66 719.234 67.25 723.834 67.25ZM799.976 81.8C789.676 81.8 781.826 78.9 776.426 73.1C771.126 67.3 768.476 59.3 768.476 49.1C768.476 42.3 769.426 35.95 771.326 30.05C773.326 24.15 776.126 19.05 779.726 14.75C783.326 10.35 787.726 6.95 792.926 4.55C798.126 2.05 803.976 0.8 810.476 0.8C819.176 0.8 825.826 2.65 830.426 6.35C835.026 9.95 838.076 14.55 839.576 20.15L824.126 27.2C822.926 23.5 821.226 20.75 819.026 18.95C816.826 17.15 813.476 16.25 808.976 16.25C803.976 16.25 799.826 17.85 796.526 21.05C793.226 24.15 791.026 28.9 789.926 35.3L788.426 44.3C788.226 45.4 788.076 46.6 787.976 47.9C787.876 49.1 787.826 50.25 787.826 51.35C787.826 56.15 789.026 59.85 791.426 62.45C793.926 65.05 797.776 66.35 802.976 66.35C804.576 66.35 806.126 66.2 807.626 65.9C809.226 65.5 810.876 64.7 812.576 63.5C814.376 62.3 816.326 60.6 818.426 58.4C820.626 56.1 823.126 53.05 825.926 49.25L838.076 56.9C835.476 60.9 832.876 64.45 830.276 67.55C827.676 70.65 824.876 73.25 821.876 75.35C818.876 77.45 815.576 79.05 811.976 80.15C808.476 81.25 804.476 81.8 799.976 81.8ZM834.867 80L847.767 2.6H863.367L861.117 15.65H862.017C863.817 11.25 866.067 7.7 868.767 5C871.467 2.2 874.917 0.8 879.117 0.8C883.217 0.8 886.317 2.15 888.417 4.84999C890.517 7.45 891.317 11.15 890.817 15.95H891.567C893.467 11.45 895.867 7.8 898.767 5C901.667 2.2 905.467 0.8 910.167 0.8C918.967 0.8 923.367 5.65 923.367 15.35C923.367 16.95 923.267 18.8 923.067 20.9C922.867 23 922.617 24.95 922.317 26.75L913.467 80H897.867L906.417 28.4C906.917 25.9 907.167 23.6 907.167 21.5C907.167 17.1 905.517 14.9 902.217 14.9C900.817 14.9 899.467 15.3 898.167 16.1C896.867 16.8 895.567 18.15 894.267 20.15C893.167 21.95 892.267 23.8 891.567 25.7C890.867 27.6 890.367 29.4 890.067 31.1L881.967 80H866.367L874.917 28.4C875.417 25.9 875.667 23.6 875.667 21.5C875.667 17.1 874.017 14.9 870.717 14.9C869.317 14.9 867.967 15.3 866.667 16.1C865.367 16.8 864.067 18.15 862.767 20.15C861.667 21.95 860.767 23.8 860.067 25.7C859.367 27.6 858.867 29.4 858.567 31.1L850.467 80H834.867ZM953.909 81.8C949.109 81.8 944.859 81.15 941.159 79.85C937.559 78.55 934.509 76.8 932.009 74.6C929.509 72.3 927.609 69.65 926.309 66.65C925.009 63.55 924.359 60.25 924.359 56.75C924.359 55.25 924.459 53.45 924.659 51.35C924.859 49.25 925.209 46.45 925.709 42.95L932.459 2.6H951.359L945.659 37.25H946.409C949.009 33.05 952.109 29.8 955.709 27.5C959.409 25.1 964.059 23.9 969.659 23.9C976.459 23.9 981.759 25.8 985.559 29.6C989.359 33.3 991.259 38.9 991.259 46.4C991.259 51.7 990.309 56.55 988.409 60.95C986.609 65.25 984.009 68.95 980.609 72.05C977.309 75.15 973.359 77.55 968.759 79.25C964.259 80.95 959.309 81.8 953.909 81.8ZM955.709 67.4C964.209 67.4 969.509 62.9 971.609 53.9C971.809 52.9 971.959 51.95 972.059 51.05C972.159 50.05 972.209 49.2 972.209 48.5C972.209 41.7 968.459 38.3 960.959 38.3C955.559 38.3 951.459 39.55 948.659 42.05C945.959 44.55 944.259 47.7 943.559 51.5C943.259 53.2 943.109 54.85 943.109 56.45C943.109 59.85 944.109 62.55 946.109 64.55C948.209 66.45 951.409 67.4 955.709 67.4Z"/>
</mask>
<path d="M13.8117 2.6H32.7117L27.7617 33.5H39.6117L60.7617 2.6H80.7117L62.1117 30.05C60.1117 33.05 58.1117 35.3 56.1117 36.8C54.1117 38.2 51.6617 39.15 48.7617 39.65L48.6117 40.55C50.8117 41.05 52.6117 42.05 54.0117 43.55C55.5117 44.95 56.9617 47.4 58.3617 50.9L63.9117 65H72.3117L69.7617 80H61.2117C57.2117 80 53.9617 79.15 51.4617 77.45C49.0617 75.65 47.1117 72.85 45.6117 69.05L37.3617 47.9H25.2117L19.8117 80H0.911719L13.8117 2.6ZM110.953 81.8C105.853 81.8 101.253 81.05 97.1531 79.55C93.1531 77.95 89.7531 75.7 86.9531 72.8C84.2531 69.9 82.1531 66.4 80.6531 62.3C79.2531 58.2 78.5531 53.65 78.5531 48.65C78.5531 41.25 79.6031 34.6 81.7031 28.7C83.8031 22.8 86.7531 17.8 90.5531 13.7C94.3531 9.5 98.8531 6.3 104.053 4.09999C109.353 1.9 115.153 0.8 121.453 0.8C126.553 0.8 131.103 1.6 135.103 3.2C139.203 4.7 142.603 6.9 145.303 9.8C148.103 12.7 150.203 16.2 151.603 20.3C153.103 24.4 153.853 28.95 153.853 33.95C153.853 41.35 152.803 48 150.703 53.9C148.603 59.8 145.653 64.85 141.853 69.05C138.053 73.15 133.503 76.3 128.203 78.5C123.003 80.7 117.253 81.8 110.953 81.8ZM112.303 67.25C117.903 67.25 122.353 65.6 125.653 62.3C129.053 58.9 131.303 54.1 132.403 47.9L134.203 37.25C134.403 36.05 134.553 34.85 134.653 33.65C134.853 32.45 134.953 31.4 134.953 30.5C134.953 25.4 133.603 21.6 130.903 19.1C128.303 16.6 124.703 15.35 120.103 15.35C114.503 15.35 110.003 17.05 106.603 20.45C103.303 23.75 101.103 28.5 100.003 34.7L98.2031 45.35C98.0031 46.55 97.8031 47.75 97.6031 48.95C97.5031 50.15 97.4531 51.2 97.4531 52.1C97.4531 57.2 98.7531 61 101.353 63.5C104.053 66 107.703 67.25 112.303 67.25ZM165.495 2.6H184.395L179.295 33.35H208.695L213.795 2.6H232.695L219.795 80H200.895L206.145 48.05H176.745L171.495 80H152.595L165.495 2.6ZM223.336 80L236.236 2.6H251.836L249.586 15.65H250.486C252.286 11.25 254.536 7.7 257.236 5C259.936 2.2 263.386 0.8 267.586 0.8C271.686 0.8 274.786 2.15 276.886 4.84999C278.986 7.45 279.786 11.15 279.286 15.95H280.036C281.936 11.45 284.336 7.8 287.236 5C290.136 2.2 293.936 0.8 298.636 0.8C307.436 0.8 311.836 5.65 311.836 15.35C311.836 16.95 311.736 18.8 311.536 20.9C311.336 23 311.086 24.95 310.786 26.75L301.936 80H286.336L294.886 28.4C295.386 25.9 295.636 23.6 295.636 21.5C295.636 17.1 293.986 14.9 290.686 14.9C289.286 14.9 287.936 15.3 286.636 16.1C285.336 16.8 284.036 18.15 282.736 20.15C281.636 21.95 280.736 23.8 280.036 25.7C279.336 27.6 278.836 29.4 278.536 31.1L270.436 80H254.836L263.386 28.4C263.886 25.9 264.136 23.6 264.136 21.5C264.136 17.1 262.486 14.9 259.186 14.9C257.786 14.9 256.436 15.3 255.136 16.1C253.836 16.8 252.536 18.15 251.236 20.15C250.136 21.95 249.236 23.8 248.536 25.7C247.836 27.6 247.336 29.4 247.036 31.1L238.936 80H223.336ZM318.077 2.6H336.977L333.827 20.9H334.577C336.077 17.9 337.627 15.2 339.227 12.8C340.927 10.3 342.827 8.2 344.927 6.5C347.027 4.7 349.377 3.3 351.977 2.3C354.677 1.3 357.677 0.8 360.977 0.8C368.977 0.8 374.827 3.5 378.527 8.89999C382.227 14.2 384.077 21.5 384.077 30.8C384.077 37.7 383.277 44.25 381.677 50.45C380.177 56.65 377.877 62.1 374.777 66.8C371.777 71.4 368.027 75.05 363.527 77.75C359.027 80.45 353.877 81.8 348.077 81.8C342.077 81.8 337.427 80.45 334.127 77.75C330.827 74.95 328.527 71 327.227 65.9H326.327L318.977 110H300.077L318.077 2.6ZM342.077 66.8C348.177 66.8 352.877 65 356.177 61.4C359.477 57.8 361.627 52.95 362.627 46.85L364.127 37.55C364.327 36.65 364.477 35.55 364.577 34.25C364.777 32.85 364.877 31.55 364.877 30.35C364.877 26.05 363.927 22.55 362.027 19.85C360.227 17.15 357.177 15.8 352.877 15.8C349.977 15.8 347.327 16.45 344.927 17.75C342.627 19.05 340.427 20.95 338.327 23.45C336.927 25.15 335.477 27.35 333.977 30.05C332.477 32.65 331.427 35.65 330.827 39.05L328.577 53.15C327.777 57.45 328.527 60.8 330.827 63.2C333.227 65.6 336.977 66.8 342.077 66.8ZM405.319 81.8C397.719 81.8 392.169 79.2 388.669 74C385.169 68.7 383.419 61.05 383.419 51.05C383.419 44.35 384.169 37.95 385.669 31.85C387.269 25.75 389.519 20.4 392.419 15.8C395.419 11.2 399.069 7.54999 403.369 4.84999C407.769 2.15 412.819 0.8 418.519 0.8C424.219 0.8 428.669 2.2 431.869 5C435.069 7.7 437.369 11.6 438.769 16.7H439.519L441.919 2.6H460.819L450.319 65.6H459.019L456.619 80H446.119C440.719 80 436.719 78.65 434.119 75.95C431.619 73.25 430.769 69.45 431.569 64.55L432.019 61.7H431.419C429.919 64.7 428.319 67.45 426.619 69.95C425.019 72.35 423.169 74.45 421.069 76.25C419.069 77.95 416.769 79.3 414.169 80.3C411.569 81.3 408.619 81.8 405.319 81.8ZM413.569 66.8C418.769 66.8 423.469 64.25 427.669 59.15C429.069 57.45 430.519 55.25 432.019 52.55C433.619 49.75 434.669 46.75 435.169 43.55L437.419 29.45C438.119 25.45 437.419 22.2 435.319 19.7C433.219 17.1 429.619 15.8 424.519 15.8C418.519 15.8 413.969 17.6 410.869 21.2C407.869 24.8 405.869 29.65 404.869 35.75L403.219 45.65C403.019 46.55 402.869 47.55 402.769 48.65C402.669 49.75 402.619 51 402.619 52.4C402.619 56.7 403.469 60.2 405.169 62.9C406.869 65.5 409.669 66.8 413.569 66.8ZM494.21 81.8C483.91 81.8 476.06 78.9 470.66 73.1C465.36 67.3 462.71 59.3 462.71 49.1C462.71 42.3 463.66 35.95 465.56 30.05C467.56 24.15 470.36 19.05 473.96 14.75C477.56 10.35 481.96 6.95 487.16 4.55C492.36 2.05 498.21 0.8 504.71 0.8C513.41 0.8 520.06 2.65 524.66 6.35C529.26 9.95 532.31 14.55 533.81 20.15L518.36 27.2C517.16 23.5 515.46 20.75 513.26 18.95C511.06 17.15 507.71 16.25 503.21 16.25C498.21 16.25 494.06 17.85 490.76 21.05C487.46 24.15 485.26 28.9 484.16 35.3L482.66 44.3C482.46 45.4 482.31 46.6 482.21 47.9C482.11 49.1 482.06 50.25 482.06 51.35C482.06 56.15 483.26 59.85 485.66 62.45C488.16 65.05 492.01 66.35 497.21 66.35C498.81 66.35 500.36 66.2 501.86 65.9C503.46 65.5 505.11 64.7 506.81 63.5C508.61 62.3 510.56 60.6 512.66 58.4C514.86 56.1 517.36 53.05 520.16 49.25L532.31 56.9C529.71 60.9 527.11 64.45 524.51 67.55C521.91 70.65 519.11 73.25 516.11 75.35C513.11 77.45 509.81 79.05 506.21 80.15C502.71 81.25 498.71 81.8 494.21 81.8ZM529.102 80L542.002 2.6H557.602L555.352 15.65H556.252C558.052 11.25 560.302 7.7 563.002 5C565.702 2.2 569.152 0.8 573.352 0.8C577.452 0.8 580.552 2.15 582.652 4.84999C584.752 7.45 585.552 11.15 585.052 15.95H585.802C587.702 11.45 590.102 7.8 593.002 5C595.902 2.2 599.702 0.8 604.402 0.8C613.202 0.8 617.602 5.65 617.602 15.35C617.602 16.95 617.502 18.8 617.302 20.9C617.102 23 616.852 24.95 616.552 26.75L607.702 80H592.102L600.652 28.4C601.152 25.9 601.402 23.6 601.402 21.5C601.402 17.1 599.752 14.9 596.452 14.9C595.052 14.9 593.702 15.3 592.402 16.1C591.102 16.8 589.802 18.15 588.502 20.15C587.402 21.95 586.502 23.8 585.802 25.7C585.102 27.6 584.602 29.4 584.302 31.1L576.202 80H560.602L569.152 28.4C569.652 25.9 569.902 23.6 569.902 21.5C569.902 17.1 568.252 14.9 564.952 14.9C563.552 14.9 562.202 15.3 560.902 16.1C559.602 16.8 558.302 18.15 557.002 20.15C555.902 21.95 555.002 23.8 554.302 25.7C553.602 27.6 553.102 29.4 552.802 31.1L544.702 80H529.102ZM624.143 2.6H643.043L637.943 33.35H667.343L672.443 2.6H691.343L678.443 80H659.543L664.793 48.05H635.393L630.143 80H611.243L624.143 2.6ZM722.484 81.8C717.384 81.8 712.784 81.05 708.684 79.55C704.684 77.95 701.284 75.7 698.484 72.8C695.784 69.9 693.684 66.4 692.184 62.3C690.784 58.2 690.084 53.65 690.084 48.65C690.084 41.25 691.134 34.6 693.234 28.7C695.334 22.8 698.284 17.8 702.084 13.7C705.884 9.5 710.384 6.3 715.584 4.09999C720.884 1.9 726.684 0.8 732.984 0.8C738.084 0.8 742.634 1.6 746.634 3.2C750.734 4.7 754.134 6.9 756.834 9.8C759.634 12.7 761.734 16.2 763.134 20.3C764.634 24.4 765.384 28.95 765.384 33.95C765.384 41.35 764.334 48 762.234 53.9C760.134 59.8 757.184 64.85 753.384 69.05C749.584 73.15 745.034 76.3 739.734 78.5C734.534 80.7 728.784 81.8 722.484 81.8ZM723.834 67.25C729.434 67.25 733.884 65.6 737.184 62.3C740.584 58.9 742.834 54.1 743.934 47.9L745.734 37.25C745.934 36.05 746.084 34.85 746.184 33.65C746.384 32.45 746.484 31.4 746.484 30.5C746.484 25.4 745.134 21.6 742.434 19.1C739.834 16.6 736.234 15.35 731.634 15.35C726.034 15.35 721.534 17.05 718.134 20.45C714.834 23.75 712.634 28.5 711.534 34.7L709.734 45.35C709.534 46.55 709.334 47.75 709.134 48.95C709.034 50.15 708.984 51.2 708.984 52.1C708.984 57.2 710.284 61 712.884 63.5C715.584 66 719.234 67.25 723.834 67.25ZM799.976 81.8C789.676 81.8 781.826 78.9 776.426 73.1C771.126 67.3 768.476 59.3 768.476 49.1C768.476 42.3 769.426 35.95 771.326 30.05C773.326 24.15 776.126 19.05 779.726 14.75C783.326 10.35 787.726 6.95 792.926 4.55C798.126 2.05 803.976 0.8 810.476 0.8C819.176 0.8 825.826 2.65 830.426 6.35C835.026 9.95 838.076 14.55 839.576 20.15L824.126 27.2C822.926 23.5 821.226 20.75 819.026 18.95C816.826 17.15 813.476 16.25 808.976 16.25C803.976 16.25 799.826 17.85 796.526 21.05C793.226 24.15 791.026 28.9 789.926 35.3L788.426 44.3C788.226 45.4 788.076 46.6 787.976 47.9C787.876 49.1 787.826 50.25 787.826 51.35C787.826 56.15 789.026 59.85 791.426 62.45C793.926 65.05 797.776 66.35 802.976 66.35C804.576 66.35 806.126 66.2 807.626 65.9C809.226 65.5 810.876 64.7 812.576 63.5C814.376 62.3 816.326 60.6 818.426 58.4C820.626 56.1 823.126 53.05 825.926 49.25L838.076 56.9C835.476 60.9 832.876 64.45 830.276 67.55C827.676 70.65 824.876 73.25 821.876 75.35C818.876 77.45 815.576 79.05 811.976 80.15C808.476 81.25 804.476 81.8 799.976 81.8ZM834.867 80L847.767 2.6H863.367L861.117 15.65H862.017C863.817 11.25 866.067 7.7 868.767 5C871.467 2.2 874.917 0.8 879.117 0.8C883.217 0.8 886.317 2.15 888.417 4.84999C890.517 7.45 891.317 11.15 890.817 15.95H891.567C893.467 11.45 895.867 7.8 898.767 5C901.667 2.2 905.467 0.8 910.167 0.8C918.967 0.8 923.367 5.65 923.367 15.35C923.367 16.95 923.267 18.8 923.067 20.9C922.867 23 922.617 24.95 922.317 26.75L913.467 80H897.867L906.417 28.4C906.917 25.9 907.167 23.6 907.167 21.5C907.167 17.1 905.517 14.9 902.217 14.9C900.817 14.9 899.467 15.3 898.167 16.1C896.867 16.8 895.567 18.15 894.267 20.15C893.167 21.95 892.267 23.8 891.567 25.7C890.867 27.6 890.367 29.4 890.067 31.1L881.967 80H866.367L874.917 28.4C875.417 25.9 875.667 23.6 875.667 21.5C875.667 17.1 874.017 14.9 870.717 14.9C869.317 14.9 867.967 15.3 866.667 16.1C865.367 16.8 864.067 18.15 862.767 20.15C861.667 21.95 860.767 23.8 860.067 25.7C859.367 27.6 858.867 29.4 858.567 31.1L850.467 80H834.867ZM953.909 81.8C949.109 81.8 944.859 81.15 941.159 79.85C937.559 78.55 934.509 76.8 932.009 74.6C929.509 72.3 927.609 69.65 926.309 66.65C925.009 63.55 924.359 60.25 924.359 56.75C924.359 55.25 924.459 53.45 924.659 51.35C924.859 49.25 925.209 46.45 925.709 42.95L932.459 2.6H951.359L945.659 37.25H946.409C949.009 33.05 952.109 29.8 955.709 27.5C959.409 25.1 964.059 23.9 969.659 23.9C976.459 23.9 981.759 25.8 985.559 29.6C989.359 33.3 991.259 38.9 991.259 46.4C991.259 51.7 990.309 56.55 988.409 60.95C986.609 65.25 984.009 68.95 980.609 72.05C977.309 75.15 973.359 77.55 968.759 79.25C964.259 80.95 959.309 81.8 953.909 81.8ZM955.709 67.4C964.209 67.4 969.509 62.9 971.609 53.9C971.809 52.9 971.959 51.95 972.059 51.05C972.159 50.05 972.209 49.2 972.209 48.5C972.209 41.7 968.459 38.3 960.959 38.3C955.559 38.3 951.459 39.55 948.659 42.05C945.959 44.55 944.259 47.7 943.559 51.5C943.259 53.2 943.109 54.85 943.109 56.45C943.109 59.85 944.109 62.55 946.109 64.55C948.209 66.45 951.409 67.4 955.709 67.4Z" fill="url(#paint0_linear_344_608)"/>
<path d="M13.8117 2.59999V0.599995H12.1175L11.8389 2.2712L13.8117 2.59999ZM32.7117 2.59999L34.6865 2.91635L35.0576 0.599995H32.7117V2.59999ZM27.7617 33.5L25.7869 33.1836L25.4158 35.5H27.7617V33.5ZM39.6117 33.5V35.5H40.6664L41.2621 34.6297L39.6117 33.5ZM60.7617 2.59999V0.599995H59.707L59.1113 1.47034L60.7617 2.59999ZM80.7117 2.59999L82.3674 3.72189L84.4828 0.599995H80.7117V2.59999ZM62.1117 30.05L60.456 28.9281L60.4518 28.9343L60.4476 28.9406L62.1117 30.05ZM56.1117 36.8L57.2586 38.4385L57.2855 38.4197L57.3117 38.4L56.1117 36.8ZM48.7617 39.65L48.4219 37.6791L47.0224 37.9204L46.7889 39.3212L48.7617 39.65ZM48.6117 40.55L46.6389 40.2212L46.3288 42.0822L48.1685 42.5003L48.6117 40.55ZM54.0117 43.55L52.5496 44.9146L52.5967 44.965L52.6471 45.0121L54.0117 43.55ZM58.3617 50.9L60.2228 50.1675L60.2187 50.1572L58.3617 50.9ZM63.9117 65L62.0507 65.7325L62.5496 67H63.9117V65ZM72.3117 65L74.2834 65.3352L74.6804 63H72.3117V65ZM69.7617 80V82H71.4504L71.7334 80.3352L69.7617 80ZM51.4617 77.45L50.2617 79.05L50.2988 79.0778L50.3371 79.1039L51.4617 77.45ZM45.6117 69.05L43.7484 69.7768L43.7514 69.7843L45.6117 69.05ZM37.3617 47.9L39.225 47.1732L38.7283 45.9H37.3617V47.9ZM25.2117 47.9V45.9H23.5201L23.2394 47.5682L25.2117 47.9ZM19.8117 80V82H21.5034L21.784 80.3318L19.8117 80ZM0.911719 80L-1.06107 79.6712L-1.4492 82H0.911719V80ZM13.8117 4.59999H32.7117V0.599995H13.8117V4.59999ZM30.7369 2.28364L25.7869 33.1836L29.7365 33.8164L34.6865 2.91635L30.7369 2.28364ZM27.7617 35.5H39.6117V31.5H27.7617V35.5ZM41.2621 34.6297L62.4121 3.72965L59.1113 1.47034L37.9613 32.3703L41.2621 34.6297ZM60.7617 4.59999H80.7117V0.599995H60.7617V4.59999ZM79.056 1.4781L60.456 28.9281L63.7674 31.1719L82.3674 3.72189L79.056 1.4781ZM60.4476 28.9406C58.5227 31.828 56.6693 33.8818 54.9117 35.2L57.3117 38.4C59.5541 36.7182 61.7008 34.272 63.7758 31.1594L60.4476 28.9406ZM54.9648 35.1615C53.2505 36.3615 51.0904 37.219 48.4219 37.6791L49.1015 41.6209C52.2331 41.081 54.9729 40.0385 57.2586 38.4385L54.9648 35.1615ZM46.7889 39.3212L46.6389 40.2212L50.5845 40.8788L50.7345 39.9788L46.7889 39.3212ZM48.1685 42.5003C50.0185 42.9207 51.45 43.7365 52.5496 44.9146L55.4738 42.1854C53.7734 40.3635 51.605 39.1793 49.055 38.5997L48.1685 42.5003ZM52.6471 45.0121C53.8201 46.1069 55.1374 48.2245 56.5048 51.6428L60.2187 50.1572C58.786 46.5755 57.2033 43.7931 55.3764 42.0879L52.6471 45.0121ZM56.5007 51.6325L62.0507 65.7325L65.7727 64.2675L60.2227 50.1675L56.5007 51.6325ZM63.9117 67H72.3117V63H63.9117V67ZM70.34 64.6648L67.79 79.6648L71.7334 80.3352L74.2834 65.3352L70.34 64.6648ZM69.7617 78H61.2117V82H69.7617V78ZM61.2117 78C57.4852 78 54.6628 77.2082 52.5863 75.7962L50.3371 79.1039C53.2606 81.0918 56.9382 82 61.2117 82V78ZM52.6617 75.85C50.6463 74.3384 48.8836 71.8917 47.472 68.3157L43.7514 69.7843C45.3398 73.8083 47.4772 76.9616 50.2617 79.05L52.6617 75.85ZM47.475 68.3232L39.225 47.1732L35.4985 48.6268L43.7485 69.7768L47.475 68.3232ZM37.3617 45.9H25.2117V49.9H37.3617V45.9ZM23.2394 47.5682L17.8394 79.6682L21.784 80.3318L27.184 48.2318L23.2394 47.5682ZM19.8117 78H0.911719V82H19.8117V78ZM2.88451 80.3288L15.7845 2.92879L11.8389 2.2712L-1.06107 79.6712L2.88451 80.3288ZM97.1531 79.55L96.4103 81.407L96.438 81.418L96.466 81.4282L97.1531 79.55ZM86.9531 72.8L85.4893 74.1628L85.5017 74.1761L85.5143 74.1892L86.9531 72.8ZM80.6531 62.3L78.7604 62.9463L78.7674 62.9668L78.7749 62.9872L80.6531 62.3ZM81.7031 28.7L83.5873 29.3707L81.7031 28.7ZM90.5531 13.7L92.02 15.0595L92.0281 15.0507L92.0362 15.0418L90.5531 13.7ZM104.053 4.09999L103.286 2.25277L103.274 2.25806L104.053 4.09999ZM135.103 3.2L134.36 5.05695L134.388 5.06801L134.416 5.07824L135.103 3.2ZM145.303 9.8L143.839 11.1628L143.852 11.1761L143.864 11.1892L145.303 9.8ZM151.603 20.3L149.71 20.9463L149.717 20.9668L149.725 20.9872L151.603 20.3ZM150.703 53.9L152.587 54.5706L150.703 53.9ZM141.853 69.05L143.32 70.4095L143.328 70.4007L143.336 70.3918L141.853 69.05ZM128.203 78.5L127.436 76.6528L127.424 76.6581L128.203 78.5ZM125.653 62.3L124.239 60.8858L125.653 62.3ZM132.403 47.9L134.372 48.2494L134.374 48.2413L134.375 48.2333L132.403 47.9ZM134.203 37.25L136.175 37.5833L136.176 37.5788L134.203 37.25ZM134.653 33.65L132.68 33.3212L132.667 33.4021L132.66 33.4839L134.653 33.65ZM130.903 19.1L129.517 20.5417L129.53 20.5547L129.544 20.5675L130.903 19.1ZM106.603 20.45L108.017 21.8642L106.603 20.45ZM100.003 34.7L98.0339 34.3506L98.0325 34.3587L98.0311 34.3667L100.003 34.7ZM98.2031 45.35L96.2311 45.0167L96.2303 45.0212L98.2031 45.35ZM97.6031 48.95L95.6303 48.6212L95.6169 48.7021L95.61 48.7839L97.6031 48.95ZM101.353 63.5L99.9669 64.9417L99.9805 64.9547L99.9943 64.9675L101.353 63.5ZM110.953 79.8C106.049 79.8 101.687 79.0789 97.8403 77.6718L96.466 81.4282C100.82 83.0211 105.657 83.8 110.953 83.8V79.8ZM97.8959 77.693C94.14 76.1907 90.9823 74.0937 88.3919 71.4108L85.5143 74.1892C88.5239 77.3063 92.1662 79.7093 96.4103 81.407L97.8959 77.693ZM88.4169 71.4372C85.9165 68.7515 83.9491 65.4878 82.5314 61.6128L78.7749 62.9872C80.3572 67.3121 82.5898 71.0485 85.4893 74.1628L88.4169 71.4372ZM82.5458 61.6537C81.2269 57.7911 80.5531 53.4634 80.5531 48.65H76.5531C76.5531 53.8366 77.2794 58.6089 78.7604 62.9463L82.5458 61.6537ZM80.5531 48.65C80.5531 41.438 81.5765 35.0202 83.5873 29.3707L79.8189 28.0294C77.6298 34.1798 76.5531 41.062 76.5531 48.65H80.5531ZM83.5873 29.3707C85.6073 23.6954 88.4253 18.938 92.02 15.0595L89.0863 12.3405C85.0809 16.662 81.9989 21.9046 79.8189 28.0294L83.5873 29.3707ZM92.0362 15.0418C95.6414 11.0571 99.9015 8.02809 104.832 5.94193L103.274 2.25806C97.8048 4.5719 93.0648 7.94291 89.0701 12.3582L92.0362 15.0418ZM104.82 5.94718C109.854 3.85753 115.39 2.8 121.453 2.8V-1.2C114.916 -1.2 108.852 -0.0575371 103.286 2.25281L104.82 5.94718ZM121.453 2.8C126.345 2.8 130.636 3.56711 134.36 5.05695L135.846 1.34304C131.571 -0.367107 126.762 -1.2 121.453 -1.2V2.8ZM134.416 5.07824C138.251 6.4812 141.375 8.51614 143.839 11.1628L146.767 8.43716C143.831 5.28386 140.156 2.91879 135.79 1.32175L134.416 5.07824ZM143.864 11.1892C146.445 13.8624 148.398 17.1031 149.71 20.9463L153.496 19.6537C152.008 15.2969 149.761 11.5376 146.742 8.41081L143.864 11.1892ZM149.725 20.9872C151.134 24.8375 151.853 29.1508 151.853 33.95H155.853C155.853 28.7492 155.073 23.9625 153.481 19.6128L149.725 20.9872ZM151.853 33.95C151.853 41.162 150.83 47.5798 148.819 53.2293L152.587 54.5706C154.776 48.4202 155.853 41.538 155.853 33.95H151.853ZM148.819 53.2293C146.798 58.9077 143.976 63.723 140.37 67.7082L143.336 70.3918C147.331 65.977 150.408 60.6923 152.587 54.5706L148.819 53.2293ZM140.386 67.6905C136.787 71.5738 132.478 74.5601 127.436 76.6528L128.97 80.3472C134.528 78.0399 139.319 74.7262 143.32 70.4095L140.386 67.6905ZM127.424 76.6581C122.497 78.7423 117.016 79.8 110.953 79.8V83.8C117.49 83.8 123.509 82.6577 128.982 80.3419L127.424 76.6581ZM112.303 69.25C118.32 69.25 123.319 67.4626 127.067 63.7142L124.239 60.8858C121.387 63.7374 117.486 65.25 112.303 65.25V69.25ZM127.067 63.7142C130.835 59.9468 133.223 54.729 134.372 48.2494L130.434 47.5506C129.383 53.471 127.271 57.8532 124.239 60.8858L127.067 63.7142ZM134.375 48.2333L136.175 37.5833L132.231 36.9167L130.431 47.5667L134.375 48.2333ZM136.176 37.5788C136.385 36.3254 136.542 35.0711 136.646 33.8161L132.66 33.4839C132.565 34.6289 132.421 35.7746 132.23 36.9212L136.176 37.5788ZM136.626 33.9788C136.838 32.7052 136.953 31.5408 136.953 30.5H132.953C132.953 31.2592 132.868 32.1948 132.68 33.3212L136.626 33.9788ZM136.953 30.5C136.953 25.0646 135.509 20.6391 132.262 17.6325L129.544 20.5675C131.697 22.5609 132.953 25.7354 132.953 30.5H136.953ZM132.289 17.6583C129.222 14.709 125.072 13.35 120.103 13.35V17.35C124.335 17.35 127.384 18.491 129.517 20.5417L132.289 17.6583ZM120.103 13.35C114.067 13.35 109.026 15.1989 105.189 19.0358L108.017 21.8642C110.98 18.9011 114.939 17.35 120.103 17.35V13.35ZM105.189 19.0358C101.514 22.711 99.1809 27.8854 98.0339 34.3506L101.972 35.0494C103.025 29.1146 105.093 24.789 108.017 21.8642L105.189 19.0358ZM98.0311 34.3667L96.2311 45.0167L100.175 45.6833L101.975 35.0333L98.0311 34.3667ZM96.2303 45.0212C96.0303 46.2212 95.8303 47.4212 95.6303 48.6212L99.5759 49.2788C99.7759 48.0788 99.9759 46.8788 100.176 45.6788L96.2303 45.0212ZM95.61 48.7839C95.5069 50.022 95.4531 51.1297 95.4531 52.1H99.4531C99.4531 51.2703 99.4994 50.278 99.5962 49.1161L95.61 48.7839ZM95.4531 52.1C95.4531 57.5149 96.8357 61.9308 99.9669 64.9417L102.739 62.0583C100.671 60.0692 99.4531 56.8851 99.4531 52.1H95.4531ZM99.9943 64.9675C103.15 67.8898 107.331 69.25 112.303 69.25V65.25C108.075 65.25 104.956 64.1102 102.712 62.0325L99.9943 64.9675ZM165.495 2.59999V0.599995H163.8L163.522 2.2712L165.495 2.59999ZM184.395 2.59999L186.368 2.92723L186.754 0.599995H184.395V2.59999ZM179.295 33.35L177.321 33.0228L176.936 35.35H179.295V33.35ZM208.695 33.35V35.35H210.39L210.668 33.6772L208.695 33.35ZM213.795 2.59999V0.599995H212.099L211.821 2.27276L213.795 2.59999ZM232.695 2.59999L234.667 2.92879L235.055 0.599995H232.695V2.59999ZM219.795 80V82H221.489L221.767 80.3288L219.795 80ZM200.895 80L198.921 79.6757L198.539 82H200.895V80ZM206.145 48.05L208.118 48.3743L208.5 46.05H206.145V48.05ZM176.745 48.05V46.05H175.046L174.771 47.7257L176.745 48.05ZM171.495 80V82H173.193L173.468 80.3243L171.495 80ZM152.595 80L150.622 79.6712L150.234 82H152.595V80ZM165.495 4.59999H184.395V0.599995H165.495V4.59999ZM182.421 2.27276L177.321 33.0228L181.268 33.6772L186.368 2.92723L182.421 2.27276ZM179.295 35.35H208.695V31.35H179.295V35.35ZM210.668 33.6772L215.768 2.92723L211.821 2.27276L206.721 33.0228L210.668 33.6772ZM213.795 4.59999H232.695V0.599995H213.795V4.59999ZM230.722 2.2712L217.822 79.6712L221.767 80.3288L234.667 2.92879L230.722 2.2712ZM219.795 78H200.895V82H219.795V78ZM202.868 80.3243L208.118 48.3743L204.171 47.7257L198.921 79.6757L202.868 80.3243ZM206.145 46.05H176.745V50.05H206.145V46.05ZM174.771 47.7257L169.521 79.6757L173.468 80.3243L178.718 48.3743L174.771 47.7257ZM171.495 78H152.595V82H171.495V78ZM154.567 80.3288L167.467 2.92879L163.522 2.2712L150.622 79.6712L154.567 80.3288ZM223.336 80L221.363 79.6712L220.975 82H223.336V80ZM236.236 2.59999V0.599995H234.542L234.263 2.2712L236.236 2.59999ZM251.836 2.59999L253.807 2.93981L254.21 0.599995H251.836V2.59999ZM249.586 15.65L247.615 15.3102L247.212 17.65H249.586V15.65ZM250.486 15.65V17.65H251.829L252.337 16.4073L250.486 15.65ZM257.236 5L258.65 6.41422L258.663 6.40136L258.676 6.38827L257.236 5ZM276.886 4.84999L275.307 6.07788L275.319 6.09238L275.33 6.10667L276.886 4.84999ZM279.286 15.95L277.297 15.7428L277.067 17.95H279.286V15.95ZM280.036 15.95V17.95H281.362L281.878 16.7279L280.036 15.95ZM287.236 5L288.625 6.4388V6.4388L287.236 5ZM311.536 20.9L309.545 20.7104V20.7104L311.536 20.9ZM310.786 26.75L308.813 26.4212L308.813 26.4221L310.786 26.75ZM301.936 80V82H303.631L303.909 80.3279L301.936 80ZM286.336 80L284.363 79.6731L283.977 82H286.336V80ZM294.886 28.4L292.925 28.0078L292.918 28.0403L292.913 28.0731L294.886 28.4ZM286.636 16.1L287.584 17.8609L287.635 17.8336L287.684 17.8033L286.636 16.1ZM282.736 20.15L281.059 19.06L281.044 19.0834L281.029 19.1071L282.736 20.15ZM278.536 31.1L276.566 30.7524L276.565 30.7628L276.563 30.7732L278.536 31.1ZM270.436 80V82H272.132L272.409 80.3268L270.436 80ZM254.836 80L252.863 79.6731L252.477 82H254.836V80ZM263.386 28.4L261.425 28.0078L261.418 28.0403L261.413 28.0731L263.386 28.4ZM255.136 16.1L256.084 17.8609L256.135 17.8336L256.184 17.8033L255.136 16.1ZM251.236 20.15L249.559 19.06L249.544 19.0834L249.529 19.1071L251.236 20.15ZM247.036 31.1L245.066 30.7524L245.065 30.7628L245.063 30.7732L247.036 31.1ZM238.936 80V82H240.632L240.909 80.3268L238.936 80ZM225.309 80.3288L238.209 2.92879L234.263 2.2712L221.363 79.6712L225.309 80.3288ZM236.236 4.59999H251.836V0.599995H236.236V4.59999ZM249.865 2.26018L247.615 15.3102L251.557 15.9898L253.807 2.93981L249.865 2.26018ZM249.586 17.65H250.486V13.65H249.586V17.65ZM252.337 16.4073C254.06 12.1948 256.178 8.88649 258.65 6.41422L255.822 3.58578C252.894 6.5135 250.512 10.3052 248.635 14.8927L252.337 16.4073ZM258.676 6.38827C260.967 4.01251 263.881 2.8 267.586 2.8V-1.2C262.891 -1.2 258.905 0.387489 255.796 3.61173L258.676 6.38827ZM267.586 2.8C271.206 2.8 273.663 3.96383 275.307 6.07788L278.465 3.62211C275.909 0.33617 272.166 -1.2 267.586 -1.2V2.8ZM275.33 6.10667C276.974 8.14254 277.766 11.2347 277.297 15.7428L281.275 16.1572C281.806 11.0653 280.997 6.75745 278.442 3.59332L275.33 6.10667ZM279.286 17.95H280.036V13.95H279.286V17.95ZM281.878 16.7279C283.695 12.4251 285.956 9.01612 288.625 6.4388L285.847 3.5612C282.716 6.58387 280.177 10.4749 278.193 15.1721L281.878 16.7279ZM288.625 6.4388C291.091 4.05823 294.362 2.8 298.636 2.8V-1.2C293.51 -1.2 289.181 0.34177 285.847 3.5612L288.625 6.4388ZM298.636 2.8C302.675 2.8 305.352 3.90401 307.055 5.78133C308.791 7.69561 309.836 10.7627 309.836 15.35H313.836C313.836 10.2373 312.681 6.02939 310.017 3.09367C307.32 0.120995 303.397 -1.2 298.636 -1.2V2.8ZM309.836 15.35C309.836 16.8705 309.741 18.6549 309.545 20.7104L313.527 21.0896C313.731 18.9451 313.836 17.0295 313.836 15.35H309.836ZM309.545 20.7104C309.349 22.7708 309.104 24.6738 308.813 26.4212L312.759 27.0788C313.068 25.2262 313.323 23.2292 313.527 21.0896L309.545 20.7104ZM308.813 26.4221L299.963 79.6721L303.909 80.3279L312.759 27.0779L308.813 26.4221ZM301.936 78H286.336V82H301.936V78ZM288.309 80.3269L296.859 28.7269L292.913 28.0731L284.363 79.6731L288.309 80.3269ZM296.847 28.7922C297.368 26.1895 297.636 23.7561 297.636 21.5H293.636C293.636 23.4439 293.404 25.6105 292.925 28.0078L296.847 28.7922ZM297.636 21.5C297.636 19.1077 297.198 16.9488 295.998 15.35C294.718 13.643 292.824 12.9 290.686 12.9V16.9C291.848 16.9 292.429 17.257 292.798 17.75C293.249 18.3512 293.636 19.4923 293.636 21.5H297.636ZM290.686 12.9C288.883 12.9 287.173 13.4208 285.588 14.3967L287.684 17.8033C288.698 17.1791 289.689 16.9 290.686 16.9V12.9ZM285.688 14.3391C283.964 15.2672 282.441 16.9337 281.059 19.06L284.413 21.24C285.631 19.3663 286.708 18.3328 287.584 17.8609L285.688 14.3391ZM281.029 19.1071C279.864 21.0138 278.906 22.9812 278.159 25.0086L281.913 26.3914C282.566 24.6188 283.408 22.8862 284.443 21.1929L281.029 19.1071ZM278.159 25.0086C277.425 27.0016 276.89 28.9173 276.566 30.7524L280.505 31.4476C280.782 29.8827 281.247 28.1984 281.913 26.3914L278.159 25.0086ZM276.563 30.7732L268.463 79.6732L272.409 80.3268L280.509 31.4268L276.563 30.7732ZM270.436 78H254.836V82H270.436V78ZM256.809 80.3269L265.359 28.7269L261.413 28.0731L252.863 79.6731L256.809 80.3269ZM265.347 28.7922C265.868 26.1895 266.136 23.7561 266.136 21.5H262.136C262.136 23.4439 261.904 25.6105 261.425 28.0078L265.347 28.7922ZM266.136 21.5C266.136 19.1077 265.698 16.9488 264.498 15.35C263.218 13.643 261.324 12.9 259.186 12.9V16.9C260.348 16.9 260.929 17.257 261.298 17.75C261.749 18.3512 262.136 19.4923 262.136 21.5H266.136ZM259.186 12.9C257.383 12.9 255.673 13.4208 254.088 14.3967L256.184 17.8033C257.198 17.1791 258.189 16.9 259.186 16.9V12.9ZM254.188 14.3391C252.464 15.2672 250.941 16.9337 249.559 19.06L252.913 21.24C254.131 19.3663 255.208 18.3328 256.084 17.8609L254.188 14.3391ZM249.529 19.1071C248.364 21.0138 247.406 22.9812 246.659 25.0086L250.413 26.3914C251.066 24.6188 251.908 22.8862 252.943 21.1929L249.529 19.1071ZM246.659 25.0086C245.925 27.0016 245.39 28.9173 245.066 30.7524L249.006 31.4476C249.282 29.8827 249.747 28.1984 250.413 26.3914L246.659 25.0086ZM245.063 30.7732L236.963 79.6732L240.909 80.3268L249.009 31.4268L245.063 30.7732ZM238.936 78H223.336V82H238.936V78ZM318.077 2.59999V0.599995H316.385L316.105 2.26941L318.077 2.59999ZM336.977 2.59999L338.948 2.93927L339.351 0.599995H336.977V2.59999ZM333.827 20.9L331.856 20.5607L331.454 22.9H333.827V20.9ZM334.577 20.9V22.9H335.813L336.366 21.7944L334.577 20.9ZM339.227 12.8L337.573 11.6754L337.568 11.683L337.563 11.6906L339.227 12.8ZM344.927 6.5L346.186 8.05449L346.208 8.0368L346.229 8.01851L344.927 6.5ZM351.977 2.3L351.283 0.424503L351.271 0.428833L351.259 0.433308L351.977 2.3ZM378.527 8.89999L376.877 10.0305L376.882 10.0377L376.887 10.0448L378.527 8.89999ZM381.677 50.45L379.741 49.9502L379.737 49.9649L379.733 49.9797L381.677 50.45ZM374.777 66.8L373.108 65.6988L373.102 65.7075L374.777 66.8ZM363.527 77.75L362.498 76.035L363.527 77.75ZM334.127 77.75L332.833 79.275L332.847 79.2866L332.861 79.2979L334.127 77.75ZM327.227 65.9L329.165 65.406L328.781 63.9H327.227V65.9ZM326.327 65.9V63.9H324.633L324.355 65.5712L326.327 65.9ZM318.977 110V112H320.672L320.95 110.329L318.977 110ZM300.077 110L298.105 109.669L297.714 112H300.077V110ZM356.177 61.4L357.652 62.7514L356.177 61.4ZM362.627 46.85L364.601 47.1735L364.602 47.1685L362.627 46.85ZM364.127 37.55L362.175 37.1161L362.162 37.1735L362.153 37.2315L364.127 37.55ZM364.577 34.25L362.597 33.9672L362.588 34.0316L362.583 34.0966L364.577 34.25ZM362.027 19.85L360.363 20.9594L360.377 20.9804L360.392 21.001L362.027 19.85ZM344.927 17.75L343.975 15.9914L343.959 16L343.943 16.0089L344.927 17.75ZM338.327 23.45L336.796 22.1636L336.79 22.1711L336.783 22.1786L338.327 23.45ZM333.977 30.05L335.71 31.0494L335.718 31.0354L335.726 31.0213L333.977 30.05ZM330.827 39.05L328.858 38.7024L328.855 38.7186L328.852 38.7348L330.827 39.05ZM328.577 53.15L330.544 53.5158L330.548 53.4905L330.552 53.4652L328.577 53.15ZM330.827 63.2L329.383 64.5838L329.398 64.5992L329.413 64.6142L330.827 63.2ZM318.077 4.59999H336.977V0.599995H318.077V4.59999ZM335.006 2.26072L331.856 20.5607L335.798 21.2393L338.948 2.93927L335.006 2.26072ZM333.827 22.9H334.577V18.9H333.827V22.9ZM336.366 21.7944C337.835 18.857 339.344 16.2304 340.891 13.9094L337.563 11.6906C335.911 14.1696 334.32 16.943 332.788 20.0056L336.366 21.7944ZM340.881 13.9246C342.484 11.5675 344.255 9.61766 346.186 8.05449L343.669 4.94551C341.4 6.78233 339.371 9.03249 337.573 11.6754L340.881 13.9246ZM346.229 8.01851C348.154 6.3681 350.307 5.08537 352.695 4.16669L351.259 0.433308C348.448 1.51462 345.9 3.0319 343.626 4.98149L346.229 8.01851ZM352.672 4.1755C355.12 3.26894 357.88 2.8 360.977 2.8V-1.2C357.474 -1.2 354.235 -0.668934 351.283 0.424503L352.672 4.1755ZM360.977 2.8C368.484 2.8 373.636 5.29896 376.877 10.0305L380.177 7.76953C376.019 1.70103 369.471 -1.2 360.977 -1.2V2.8ZM376.887 10.0448C380.271 14.8912 382.077 21.7373 382.077 30.8H386.077C386.077 21.2627 384.184 13.5088 380.167 7.75515L376.887 10.0448ZM382.077 30.8C382.077 37.5444 381.296 43.9256 379.741 49.9502L383.614 50.9498C385.259 44.5744 386.077 37.8556 386.077 30.8H382.077ZM379.733 49.9797C378.281 55.9847 376.065 61.2155 373.108 65.6988L376.447 67.9012C379.69 62.9845 382.074 57.3153 383.621 50.9203L379.733 49.9797ZM373.102 65.7075C370.26 70.0658 366.726 73.4982 362.498 76.035L364.556 79.465C369.328 76.6018 373.295 72.7342 376.453 67.8925L373.102 65.7075ZM362.498 76.035C358.341 78.5293 353.554 79.8 348.077 79.8V83.8C354.201 83.8 359.714 82.3707 364.556 79.465L362.498 76.035ZM348.077 79.8C342.354 79.8 338.216 78.5108 335.394 76.2021L332.861 79.2979C336.639 82.3892 341.801 83.8 348.077 83.8V79.8ZM335.421 76.225C332.501 73.7471 330.385 70.1923 329.165 65.406L325.289 66.394C326.669 71.8077 329.154 76.1529 332.833 79.275L335.421 76.225ZM327.227 63.9H326.327V67.9H327.227V63.9ZM324.355 65.5712L317.005 109.671L320.95 110.329L328.3 66.2288L324.355 65.5712ZM318.977 108H300.077V112H318.977V108ZM302.05 110.331L320.05 2.93058L316.105 2.26941L298.105 109.669L302.05 110.331ZM342.077 68.8C348.588 68.8 353.882 66.8634 357.652 62.7514L354.703 60.0486C351.872 63.1366 347.766 64.8 342.077 64.8V68.8ZM357.652 62.7514C361.276 58.7972 363.555 53.5559 364.601 47.1735L360.654 46.5264C359.7 52.3441 357.678 56.8028 354.703 60.0486L357.652 62.7514ZM364.602 47.1685L366.102 37.8685L362.153 37.2315L360.653 46.5315L364.602 47.1685ZM366.08 37.9839C366.307 36.9624 366.467 35.7625 366.571 34.4034L362.583 34.0966C362.488 35.3375 362.348 36.3376 362.175 37.1161L366.08 37.9839ZM366.557 34.5328C366.768 33.0552 366.877 31.6596 366.877 30.35H362.877C362.877 31.4404 362.786 32.6448 362.597 33.9672L366.557 34.5328ZM366.877 30.35C366.877 25.7618 365.863 21.8248 363.663 18.699L360.392 21.001C361.992 23.2752 362.877 26.3382 362.877 30.35H366.877ZM363.691 18.7406C361.404 15.3095 357.605 13.8 352.877 13.8V17.8C356.75 17.8 359.051 18.9905 360.363 20.9594L363.691 18.7406ZM352.877 13.8C349.666 13.8 346.686 14.5231 343.975 15.9914L345.88 19.5086C347.969 18.3769 350.289 17.8 352.877 17.8V13.8ZM343.943 16.0089C341.392 17.4506 339.015 19.5222 336.796 22.1636L339.859 24.7364C341.84 22.3778 343.862 20.6494 345.911 19.4911L343.943 16.0089ZM336.783 22.1786C335.283 24.0011 333.766 26.3114 332.229 29.0787L335.726 31.0213C337.188 28.3886 338.572 26.2989 339.871 24.7214L336.783 22.1786ZM332.245 29.0506C330.612 31.8802 329.492 35.1069 328.858 38.7024L332.797 39.3976C333.362 36.1931 334.342 33.4198 335.71 31.0494L332.245 29.0506ZM328.852 38.7348L326.602 52.8348L330.552 53.4652L332.802 39.3652L328.852 38.7348ZM326.611 52.7842C325.734 57.4978 326.503 61.578 329.383 64.5838L332.271 61.8162C330.552 60.022 329.821 57.4022 330.544 53.5158L326.611 52.7842ZM329.413 64.6142C332.34 67.5415 336.71 68.8 342.077 68.8V64.8C337.245 64.8 334.114 63.6585 332.242 61.7858L329.413 64.6142ZM388.669 74L387 75.1021L387.005 75.1095L387.01 75.1168L388.669 74ZM385.669 31.85L383.734 31.3426L383.73 31.3575L383.727 31.3724L385.669 31.85ZM392.419 15.8L390.744 14.7075L390.735 14.7204L390.727 14.7334L392.419 15.8ZM403.369 4.84999L402.323 3.14535L402.314 3.15073L402.305 3.15621L403.369 4.84999ZM431.869 5L430.552 6.50515L430.565 6.51699L430.579 6.52858L431.869 5ZM438.769 16.7L436.84 17.2294L437.244 18.7H438.769V16.7ZM439.519 16.7V18.7H441.207L441.49 17.0356L439.519 16.7ZM441.919 2.59999V0.599995H440.23L439.947 2.2644L441.919 2.59999ZM460.819 2.59999L462.792 2.92879L463.18 0.599995H460.819V2.59999ZM450.319 65.6L448.346 65.2712L447.958 67.6H450.319V65.6ZM459.019 65.6L460.992 65.9288L461.38 63.6H459.019V65.6ZM456.619 80V82H458.313L458.592 80.3288L456.619 80ZM434.119 75.95L432.651 77.3088L432.665 77.3232L432.678 77.3373L434.119 75.95ZM431.569 64.55L433.543 64.8723L433.544 64.8619L431.569 64.55ZM432.019 61.7L433.994 62.0119L434.359 59.7H432.019V61.7ZM431.419 61.7V59.7H430.183L429.63 60.8056L431.419 61.7ZM426.619 69.95L424.965 68.8254L424.96 68.833L424.955 68.8406L426.619 69.95ZM421.069 76.25L422.364 77.7739L422.37 77.7685L421.069 76.25ZM414.169 80.3L413.451 78.4333L414.169 80.3ZM427.669 59.15L426.125 57.8786L427.669 59.15ZM432.019 52.55L430.282 51.5577L430.276 51.5682L430.27 51.5787L432.019 52.55ZM435.169 43.55L433.194 43.2348L433.193 43.2412L435.169 43.55ZM437.419 29.45L435.449 29.1052L435.446 29.12L435.444 29.1348L437.419 29.45ZM435.319 19.7L433.763 20.9567L433.775 20.9716L433.787 20.9864L435.319 19.7ZM410.869 21.2L409.353 19.895L409.343 19.9072L409.332 19.9196L410.869 21.2ZM404.869 35.75L406.842 36.0788L406.842 36.0735L404.869 35.75ZM403.219 45.65L405.171 46.0839L405.183 46.0316L405.192 45.9788L403.219 45.65ZM402.769 48.65L404.761 48.8311L402.769 48.65ZM405.169 62.9L403.476 63.9656L403.485 63.9801L403.495 63.9945L405.169 62.9ZM405.319 79.8C398.223 79.8 393.374 77.4093 390.328 72.8832L387.01 75.1168C390.963 80.9907 397.215 83.8 405.319 83.8V79.8ZM390.338 72.8979C387.145 68.063 385.419 60.8651 385.419 51.05H381.419C381.419 61.2349 383.193 69.337 387 75.1021L390.338 72.8979ZM385.419 51.05C385.419 44.5003 386.152 38.2613 387.611 32.3276L383.727 31.3724C382.186 37.6387 381.419 44.1997 381.419 51.05H385.419ZM387.603 32.3574C389.16 26.4243 391.335 21.2686 394.111 16.8666L390.727 14.7334C387.702 19.5314 385.378 25.0757 383.734 31.3426L387.603 32.3574ZM394.094 16.8925C396.949 12.5148 400.397 9.0777 404.432 6.54377L402.305 3.15621C397.741 6.02229 393.888 9.88524 390.744 14.7075L394.094 16.8925ZM404.415 6.55464C408.468 4.06752 413.148 2.8 418.519 2.8V-1.2C412.489 -1.2 407.07 0.232475 402.323 3.14535L404.415 6.55464ZM418.519 2.8C423.901 2.8 427.825 4.11911 430.552 6.50515L433.186 3.49485C429.513 0.280884 424.536 -1.2 418.519 -1.2V2.8ZM430.579 6.52858C433.397 8.9066 435.519 12.4166 436.84 17.2294L440.697 16.1706C439.219 10.7834 436.74 6.49339 433.159 3.47142L430.579 6.52858ZM438.769 18.7H439.519V14.7H438.769V18.7ZM441.49 17.0356L443.89 2.93559L439.947 2.2644L437.547 16.3644L441.49 17.0356ZM441.919 4.59999H460.819V0.599995H441.919V4.59999ZM458.846 2.2712L448.346 65.2712L452.292 65.9288L462.792 2.92879L458.846 2.2712ZM450.319 67.6H459.019V63.6H450.319V67.6ZM457.046 65.2712L454.646 79.6712L458.592 80.3288L460.992 65.9288L457.046 65.2712ZM456.619 78H446.119V82H456.619V78ZM446.119 78C441.02 78 437.642 76.7258 435.559 74.5627L432.678 77.3373C435.795 80.5742 440.417 82 446.119 82V78ZM435.586 74.5912C433.64 72.4896 432.805 69.3917 433.543 64.8723L429.595 64.2277C428.733 69.5083 429.597 74.0104 432.651 77.3088L435.586 74.5912ZM433.544 64.8619L433.994 62.0119L430.043 61.3881L429.593 64.2381L433.544 64.8619ZM432.019 59.7H431.419V63.7H432.019V59.7ZM429.63 60.8056C428.165 63.7344 426.61 66.4065 424.965 68.8254L428.273 71.0746C430.028 68.4935 431.672 65.6656 433.208 62.5944L429.63 60.8056ZM424.955 68.8406C423.452 71.0948 421.722 73.0556 419.767 74.7315L422.37 77.7685C424.615 75.8444 426.586 73.6052 428.283 71.0594L424.955 68.8406ZM419.773 74.7261C417.955 76.2714 415.853 77.5092 413.451 78.4333L414.887 82.1667C417.684 81.0908 420.182 79.6286 422.364 77.7739L419.773 74.7261ZM413.451 78.4333C411.118 79.3306 408.418 79.8 405.319 79.8V83.8C408.82 83.8 412.02 83.2694 414.887 82.1667L413.451 78.4333ZM413.569 68.8C419.522 68.8 424.744 65.8473 429.213 60.4214L426.125 57.8786C422.193 62.6527 418.015 64.8 413.569 64.8V68.8ZM429.213 60.4214C430.714 58.5989 432.23 56.2886 433.767 53.5213L430.27 51.5787C428.808 54.2114 427.424 56.3011 426.125 57.8786L429.213 60.4214ZM433.755 53.5423C435.477 50.53 436.607 47.2982 437.145 43.8587L433.193 43.2412C432.73 46.2018 431.761 48.97 430.282 51.5577L433.755 53.5423ZM437.144 43.8652L439.394 29.7652L435.444 29.1348L433.194 43.2348L437.144 43.8652ZM439.389 29.7948C440.164 25.3674 439.421 21.4736 436.85 18.4136L433.787 20.9864C435.417 22.9264 436.074 25.5326 435.449 29.1052L439.389 29.7948ZM436.875 18.4433C434.23 15.1693 429.9 13.8 424.519 13.8V17.8C429.337 17.8 432.207 19.0307 433.763 20.9567L436.875 18.4433ZM424.519 13.8C418.102 13.8 412.929 15.7423 409.353 19.895L412.384 22.505C415.008 19.4577 418.936 17.8 424.519 17.8V13.8ZM409.332 19.9196C406.042 23.868 403.935 29.0835 402.895 35.4264L406.842 36.0735C407.803 30.2165 409.695 25.732 412.405 22.4804L409.332 19.9196ZM402.896 35.4212L401.246 45.3212L405.192 45.9788L406.842 36.0788L402.896 35.4212ZM401.266 45.2161C401.045 46.2139 400.883 47.3 400.777 48.4689L404.761 48.8311C404.854 47.8 404.993 46.8861 405.171 46.0839L401.266 45.2161ZM400.777 48.4689C400.67 49.6425 400.619 50.9547 400.619 52.4H404.619C404.619 51.0453 404.667 49.8575 404.761 48.8311L400.777 48.4689ZM400.619 52.4C400.619 56.9498 401.517 60.8536 403.476 63.9656L406.861 61.8344C405.421 59.5464 404.619 56.4502 404.619 52.4H400.619ZM403.495 63.9945C405.66 67.3059 409.19 68.8 413.569 68.8V64.8C410.148 64.8 408.078 63.6941 406.843 61.8055L403.495 63.9945ZM470.66 73.1L469.184 74.4491L469.19 74.456L469.196 74.4628L470.66 73.1ZM465.56 30.05L463.666 29.4079L463.661 29.4224L463.656 29.4369L465.56 30.05ZM473.96 14.75L475.494 16.0339L475.501 16.0252L475.508 16.0165L473.96 14.75ZM487.16 4.55L487.998 6.36592L488.013 6.35932L488.027 6.3525L487.16 4.55ZM524.66 6.34999L523.407 7.90842L523.417 7.91679L523.428 7.92501L524.66 6.34999ZM533.81 20.15L534.64 21.9695L536.18 21.2671L535.742 19.6325L533.81 20.15ZM518.36 27.2L516.458 27.817L517.15 29.9507L519.19 29.0195L518.36 27.2ZM513.26 18.95L511.994 20.4979L513.26 18.95ZM490.76 21.05L492.13 22.5077L492.141 22.4968L492.152 22.4858L490.76 21.05ZM484.16 35.3L482.189 34.9612L482.187 34.9712L484.16 35.3ZM482.66 44.3L484.628 44.6578L484.631 44.6433L484.633 44.6288L482.66 44.3ZM482.21 47.9L484.203 48.0661L484.204 48.0534L482.21 47.9ZM485.66 62.45L484.191 63.8066L484.204 63.8215L484.219 63.8362L485.66 62.45ZM501.86 65.9L502.252 67.8612L502.299 67.8518L502.345 67.8403L501.86 65.9ZM506.81 63.5L505.701 61.8359L505.679 61.8507L505.657 61.8661L506.81 63.5ZM512.66 58.4L511.215 57.0176L511.213 57.0191L512.66 58.4ZM520.16 49.25L521.226 47.5575L519.653 46.5671L518.55 48.0636L520.16 49.25ZM532.31 56.9L533.987 57.99L535.093 56.2887L533.376 55.2075L532.31 56.9ZM524.51 67.55L526.043 68.8352V68.8352L524.51 67.55ZM516.11 75.35L514.963 73.7115L516.11 75.35ZM506.21 80.15L505.626 78.2373L505.618 78.2396L505.611 78.242L506.21 80.15ZM494.21 79.8C484.29 79.8 477.041 77.0181 472.124 71.7372L469.196 74.4628C475.08 80.7819 483.53 83.8 494.21 83.8V79.8ZM472.137 71.7509C467.264 66.4188 464.71 58.9539 464.71 49.1H460.71C460.71 59.6461 463.456 68.1812 469.184 74.4491L472.137 71.7509ZM464.71 49.1C464.71 42.488 465.634 36.3467 467.464 30.6631L463.656 29.4369C461.687 35.5533 460.71 42.112 460.71 49.1H464.71ZM467.454 30.6921C469.384 25.0005 472.069 20.1242 475.494 16.0339L472.427 13.4661C468.651 17.9758 465.737 23.2994 463.666 29.4079L467.454 30.6921ZM475.508 16.0165C478.915 11.8528 483.071 8.63988 487.998 6.36592L486.322 2.73408C480.849 5.26011 476.206 8.84716 472.412 13.4835L475.508 16.0165ZM488.027 6.3525C492.924 3.9981 498.472 2.8 504.71 2.8V-1.2C497.948 -1.2 491.796 0.101902 486.294 2.74749L488.027 6.3525ZM504.71 2.8C513.163 2.8 519.296 4.60207 523.407 7.90842L525.914 4.79157C520.824 0.697933 513.658 -1.2 504.71 -1.2V2.8ZM523.428 7.92501C527.689 11.2598 530.491 15.4899 531.878 20.6675L535.742 19.6325C534.129 13.6101 530.832 8.64015 525.893 4.77499L523.428 7.92501ZM532.98 18.3305L517.53 25.3805L519.19 29.0195L534.64 21.9695L532.98 18.3305ZM520.263 26.583C518.986 22.6482 517.114 19.5191 514.527 17.4021L511.994 20.4979C513.806 21.9809 515.334 24.3518 516.458 27.817L520.263 26.583ZM514.527 17.4021C511.813 15.1819 507.919 14.25 503.21 14.25V18.25C507.502 18.25 510.307 19.1181 511.994 20.4979L514.527 17.4021ZM503.21 14.25C497.74 14.25 493.075 16.019 489.368 19.6142L492.152 22.4858C495.045 19.681 498.68 18.25 503.21 18.25V14.25ZM489.391 19.5923C485.663 23.0946 483.332 28.3128 482.189 34.9612L486.131 35.6388C487.189 29.4872 489.258 25.2054 492.13 22.5077L489.391 19.5923ZM482.187 34.9712L480.687 43.9712L484.633 44.6288L486.133 35.6288L482.187 34.9712ZM480.692 43.9422C480.478 45.1199 480.32 46.389 480.216 47.7466L484.204 48.0534C484.3 46.811 484.442 45.6801 484.628 44.6578L480.692 43.9422ZM480.217 47.7339C480.113 48.984 480.06 50.1897 480.06 51.35H484.06C484.06 50.3103 484.107 49.216 484.203 48.0661L480.217 47.7339ZM480.06 51.35C480.06 56.4709 481.344 60.7223 484.191 63.8066L487.13 61.0934C485.177 58.9777 484.06 55.8291 484.06 51.35H480.06ZM484.219 63.8362C487.236 66.9743 491.709 68.35 497.21 68.35V64.35C492.312 64.35 489.084 63.1257 487.102 61.0638L484.219 63.8362ZM497.21 68.35C498.936 68.35 500.617 68.1881 502.252 67.8612L501.468 63.9388C500.103 64.2119 498.684 64.35 497.21 64.35V68.35ZM502.345 67.8403C504.239 67.3669 506.112 66.4407 507.964 65.1339L505.657 61.8661C504.108 62.9593 502.682 63.6331 501.375 63.9597L502.345 67.8403ZM507.92 65.1641C509.88 63.857 511.943 62.0481 514.107 59.781L511.213 57.0191C509.178 59.1519 507.34 60.743 505.701 61.8359L507.92 65.1641ZM514.105 59.7824C516.385 57.3989 518.941 54.2757 521.77 50.4364L518.55 48.0636C515.779 51.8243 513.335 54.8011 511.215 57.0176L514.105 59.7824ZM519.095 50.9425L531.245 58.5925L533.376 55.2075L521.226 47.5575L519.095 50.9425ZM530.633 55.81C528.07 59.7537 525.517 63.2367 522.978 66.2648L526.043 68.8352C528.703 65.6633 531.35 62.0463 533.987 57.99L530.633 55.81ZM522.978 66.2648C520.479 69.2445 517.806 71.7218 514.963 73.7115L517.257 76.9885C520.415 74.7782 523.342 72.0555 526.043 68.8352L522.978 66.2648ZM514.963 73.7115C512.14 75.6878 509.031 77.1969 505.626 78.2373L506.795 82.0627C510.59 80.9031 514.08 79.2122 517.257 76.9885L514.963 73.7115ZM505.611 78.242C502.343 79.269 498.551 79.8 494.21 79.8V83.8C498.869 83.8 503.078 83.231 506.81 82.058L505.611 78.242ZM529.102 80L527.129 79.6712L526.741 82H529.102V80ZM542.002 2.59999V0.599995H540.307L540.029 2.2712L542.002 2.59999ZM557.602 2.59999L559.573 2.93981L559.976 0.599995H557.602V2.59999ZM555.352 15.65L553.381 15.3102L552.977 17.65H555.352V15.65ZM556.252 15.65V17.65H557.594L558.103 16.4073L556.252 15.65ZM563.002 5L564.416 6.41422L564.429 6.40136L564.441 6.38827L563.002 5ZM582.652 4.84999L581.073 6.07788L581.084 6.09238L581.096 6.10667L582.652 4.84999ZM585.052 15.95L583.062 15.7428L582.832 17.95H585.052V15.95ZM585.802 15.95V17.95H587.128L587.644 16.7279L585.802 15.95ZM593.002 5L594.391 6.4388V6.4388L593.002 5ZM617.302 20.9L615.311 20.7104V20.7104L617.302 20.9ZM616.552 26.75L614.579 26.4212L614.579 26.4221L616.552 26.75ZM607.702 80V82H609.397L609.674 80.3279L607.702 80ZM592.102 80L590.128 79.6731L589.743 82H592.102V80ZM600.652 28.4L598.69 28.0078L598.684 28.0403L598.678 28.0731L600.652 28.4ZM592.402 16.1L593.35 17.8609L593.401 17.8336L593.45 17.8033L592.402 16.1ZM588.502 20.15L586.825 19.06L586.81 19.0834L586.795 19.1071L588.502 20.15ZM584.302 31.1L582.332 30.7524L582.33 30.7628L582.328 30.7732L584.302 31.1ZM576.202 80V82H577.898L578.175 80.3268L576.202 80ZM560.602 80L558.628 79.6731L558.243 82H560.602V80ZM569.152 28.4L567.19 28.0078L567.184 28.0403L567.178 28.0731L569.152 28.4ZM560.902 16.1L561.85 17.8609L561.901 17.8336L561.95 17.8033L560.902 16.1ZM557.002 20.15L555.325 19.06L555.31 19.0834L555.295 19.1071L557.002 20.15ZM552.802 31.1L550.832 30.7524L550.83 30.7628L550.828 30.7732L552.802 31.1ZM544.702 80V82H546.398L546.675 80.3268L544.702 80ZM531.074 80.3288L543.974 2.92879L540.029 2.2712L527.129 79.6712L531.074 80.3288ZM542.002 4.59999H557.602V0.599995H542.002V4.59999ZM555.631 2.26018L553.381 15.3102L557.323 15.9898L559.573 2.93981L555.631 2.26018ZM555.352 17.65H556.252V13.65H555.352V17.65ZM558.103 16.4073C559.826 12.1948 561.943 8.88649 564.416 6.41422L561.587 3.58578C558.66 6.5135 556.277 10.3052 554.4 14.8927L558.103 16.4073ZM564.441 6.38827C566.732 4.01251 569.646 2.8 573.352 2.8V-1.2C568.657 -1.2 564.671 0.387489 561.562 3.61173L564.441 6.38827ZM573.352 2.8C576.971 2.8 579.429 3.96383 581.073 6.07788L584.23 3.62211C581.675 0.33617 577.932 -1.2 573.352 -1.2V2.8ZM581.096 6.10667C582.74 8.14254 583.532 11.2347 583.062 15.7428L587.041 16.1572C587.571 11.0653 586.763 6.75745 584.207 3.59332L581.096 6.10667ZM585.052 17.95H585.802V13.95H585.052V17.95ZM587.644 16.7279C589.461 12.4251 591.721 9.01612 594.391 6.4388L591.612 3.5612C588.482 6.58387 585.942 10.4749 583.959 15.1721L587.644 16.7279ZM594.391 6.4388C596.856 4.05823 600.128 2.8 604.402 2.8V-1.2C599.276 -1.2 594.947 0.34177 591.612 3.5612L594.391 6.4388ZM604.402 2.8C608.44 2.8 611.117 3.90401 612.82 5.78133C614.557 7.69561 615.602 10.7627 615.602 15.35H619.602C619.602 10.2373 618.446 6.02939 615.783 3.09367C613.086 0.120995 609.163 -1.2 604.402 -1.2V2.8ZM615.602 15.35C615.602 16.8705 615.506 18.6549 615.311 20.7104L619.293 21.0896C619.497 18.9451 619.602 17.0295 619.602 15.35H615.602ZM615.311 20.7104C615.114 22.7708 614.87 24.6738 614.579 26.4212L618.524 27.0788C618.833 25.2262 619.089 23.2292 619.293 21.0896L615.311 20.7104ZM614.579 26.4221L605.729 79.6721L609.674 80.3279L618.524 27.0779L614.579 26.4221ZM607.702 78H592.102V82H607.702V78ZM594.075 80.3269L602.625 28.7269L598.678 28.0731L590.128 79.6731L594.075 80.3269ZM602.613 28.7922C603.133 26.1895 603.402 23.7561 603.402 21.5H599.402C599.402 23.4439 599.17 25.6105 598.69 28.0078L602.613 28.7922ZM603.402 21.5C603.402 19.1077 602.963 16.9488 601.764 15.35C600.484 13.643 598.59 12.9 596.452 12.9V16.9C597.614 16.9 598.194 17.257 598.564 17.75C599.015 18.3512 599.402 19.4923 599.402 21.5H603.402ZM596.452 12.9C594.648 12.9 592.939 13.4208 591.353 14.3967L593.45 17.8033C594.464 17.1791 595.455 16.9 596.452 16.9V12.9ZM591.453 14.3391C589.73 15.2672 588.207 16.9337 586.825 19.06L590.178 21.24C591.396 19.3663 592.474 18.3328 593.35 17.8609L591.453 14.3391ZM586.795 19.1071C585.63 21.0138 584.672 22.9812 583.925 25.0086L587.678 26.3914C588.331 24.6188 589.173 22.8862 590.208 21.1929L586.795 19.1071ZM583.925 25.0086C583.191 27.0016 582.656 28.9173 582.332 30.7524L586.271 31.4476C586.547 29.8827 587.013 28.1984 587.678 26.3914L583.925 25.0086ZM582.328 30.7732L574.228 79.6732L578.175 80.3268L586.275 31.4268L582.328 30.7732ZM576.202 78H560.602V82H576.202V78ZM562.575 80.3269L571.125 28.7269L567.178 28.0731L558.628 79.6731L562.575 80.3269ZM571.113 28.7922C571.633 26.1895 571.902 23.7561 571.902 21.5H567.902C567.902 23.4439 567.67 25.6105 567.19 28.0078L571.113 28.7922ZM571.902 21.5C571.902 19.1077 571.463 16.9488 570.264 15.35C568.984 13.643 567.09 12.9 564.952 12.9V16.9C566.114 16.9 566.694 17.257 567.064 17.75C567.515 18.3512 567.902 19.4923 567.902 21.5H571.902ZM564.952 12.9C563.148 12.9 561.439 13.4208 559.853 14.3967L561.95 17.8033C562.964 17.1791 563.955 16.9 564.952 16.9V12.9ZM559.953 14.3391C558.23 15.2672 556.707 16.9337 555.325 19.06L558.678 21.24C559.896 19.3663 560.974 18.3328 561.85 17.8609L559.953 14.3391ZM555.295 19.1071C554.13 21.0138 553.172 22.9812 552.425 25.0086L556.178 26.3914C556.831 24.6188 557.673 22.8862 558.708 21.1929L555.295 19.1071ZM552.425 25.0086C551.691 27.0016 551.156 28.9173 550.832 30.7524L554.771 31.4476C555.047 29.8827 555.513 28.1984 556.178 26.3914L552.425 25.0086ZM550.828 30.7732L542.728 79.6732L546.675 80.3268L554.775 31.4268L550.828 30.7732ZM544.702 78H529.102V82H544.702V78ZM624.143 2.59999V0.599995H622.449L622.17 2.2712L624.143 2.59999ZM643.043 2.59999L645.016 2.92723L645.402 0.599995H643.043V2.59999ZM637.943 33.35L635.97 33.0228L635.584 35.35H637.943V33.35ZM667.343 33.35V35.35H669.039L669.316 33.6772L667.343 33.35ZM672.443 2.59999V0.599995H670.747L670.47 2.27276L672.443 2.59999ZM691.343 2.59999L693.316 2.92879L693.704 0.599995H691.343V2.59999ZM678.443 80V82H680.137L680.416 80.3288L678.443 80ZM659.543 80L657.569 79.6757L657.188 82H659.543V80ZM664.793 48.05L666.766 48.3743L667.148 46.05H664.793V48.05ZM635.393 48.05V46.05H633.695L633.419 47.7257L635.393 48.05ZM630.143 80V82H631.841L632.117 80.3243L630.143 80ZM611.243 80L609.27 79.6712L608.882 82H611.243V80ZM624.143 4.59999H643.043V0.599995H624.143V4.59999ZM641.07 2.27276L635.97 33.0228L639.916 33.6772L645.016 2.92723L641.07 2.27276ZM637.943 35.35H667.343V31.35H637.943V35.35ZM669.316 33.6772L674.416 2.92723L670.47 2.27276L665.37 33.0228L669.316 33.6772ZM672.443 4.59999H691.343V0.599995H672.443V4.59999ZM689.37 2.2712L676.47 79.6712L680.416 80.3288L693.316 2.92879L689.37 2.2712ZM678.443 78H659.543V82H678.443V78ZM661.516 80.3243L666.766 48.3743L662.819 47.7257L657.569 79.6757L661.516 80.3243ZM664.793 46.05H635.393V50.05H664.793V46.05ZM633.419 47.7257L628.169 79.6757L632.117 80.3243L637.367 48.3743L633.419 47.7257ZM630.143 78H611.243V82H630.143V78ZM613.216 80.3288L626.116 2.92879L622.17 2.2712L609.27 79.6712L613.216 80.3288ZM708.684 79.55L707.942 81.407L707.969 81.418L707.997 81.4282L708.684 79.55ZM698.484 72.8L697.021 74.1628L697.033 74.1761L697.046 74.1892L698.484 72.8ZM692.184 62.3L690.292 62.9463L690.299 62.9668L690.306 62.9872L692.184 62.3ZM693.234 28.7L695.119 29.3707L693.234 28.7ZM702.084 13.7L703.551 15.0595L703.559 15.0507L703.567 15.0418L702.084 13.7ZM715.584 4.09999L714.818 2.25277L714.805 2.25806L715.584 4.09999ZM746.634 3.2L745.892 5.05695L745.919 5.06801L745.947 5.07824L746.634 3.2ZM756.834 9.8L755.371 11.1628L755.383 11.1761L755.396 11.1892L756.834 9.8ZM763.134 20.3L761.242 20.9463L761.249 20.9668L761.256 20.9872L763.134 20.3ZM762.234 53.9L764.119 54.5706L762.234 53.9ZM753.384 69.05L754.851 70.4095L754.859 70.4007L754.867 70.3918L753.384 69.05ZM739.734 78.5L738.968 76.6528L738.955 76.6581L739.734 78.5ZM737.184 62.3L735.77 60.8858L737.184 62.3ZM743.934 47.9L745.904 48.2494L745.905 48.2413L745.906 48.2333L743.934 47.9ZM745.734 37.25L747.706 37.5833L747.707 37.5788L745.734 37.25ZM746.184 33.65L744.212 33.3212L744.198 33.4021L744.191 33.4839L746.184 33.65ZM742.434 19.1L741.048 20.5417L741.062 20.5547L741.076 20.5675L742.434 19.1ZM718.134 20.45L719.549 21.8642L718.134 20.45ZM711.534 34.7L709.565 34.3506L709.564 34.3587L709.562 34.3667L711.534 34.7ZM709.734 45.35L707.762 45.0167L707.762 45.0212L709.734 45.35ZM709.134 48.95L707.162 48.6212L707.148 48.7021L707.141 48.7839L709.134 48.95ZM712.884 63.5L711.498 64.9417L711.512 64.9547L711.526 64.9675L712.884 63.5ZM722.484 79.8C717.58 79.8 713.218 79.0789 709.372 77.6718L707.997 81.4282C712.351 83.0211 717.189 83.8 722.484 83.8V79.8ZM709.427 77.693C705.671 76.1907 702.514 74.0937 699.923 71.4108L697.046 74.1892C700.055 77.3063 703.697 79.7093 707.942 81.407L709.427 77.693ZM699.948 71.4372C697.448 68.7515 695.48 65.4878 694.063 61.6128L690.306 62.9872C691.888 67.3121 694.121 71.0485 697.021 74.1628L699.948 71.4372ZM694.077 61.6537C692.758 57.7911 692.084 53.4634 692.084 48.65H688.084C688.084 53.8366 688.811 58.6089 690.292 62.9463L694.077 61.6537ZM692.084 48.65C692.084 41.438 693.108 35.0202 695.119 29.3707L691.35 28.0294C689.161 34.1798 688.084 41.062 688.084 48.65H692.084ZM695.119 29.3707C697.139 23.6954 699.957 18.938 703.551 15.0595L700.617 12.3405C696.612 16.662 693.53 21.9046 691.35 28.0294L695.119 29.3707ZM703.567 15.0418C707.173 11.0571 711.433 8.02809 716.364 5.94193L714.805 2.25806C709.336 4.5719 704.596 7.94291 700.601 12.3582L703.567 15.0418ZM716.351 5.94718C721.385 3.85753 726.922 2.8 732.984 2.8V-1.2C726.447 -1.2 720.383 -0.0575371 714.818 2.25281L716.351 5.94718ZM732.984 2.8C737.876 2.8 742.167 3.56711 745.892 5.05695L747.377 1.34304C743.102 -0.367107 738.293 -1.2 732.984 -1.2V2.8ZM745.947 5.07824C749.782 6.4812 752.906 8.51614 755.371 11.1628L758.298 8.43716C755.362 5.28386 751.687 2.91879 747.322 1.32175L745.947 5.07824ZM755.396 11.1892C757.977 13.8624 759.929 17.1031 761.242 20.9463L765.027 19.6537C763.539 15.2969 761.292 11.5376 758.273 8.41081L755.396 11.1892ZM761.256 20.9872C762.665 24.8375 763.384 29.1508 763.384 33.95H767.384C767.384 28.7492 766.604 23.9625 765.013 19.6128L761.256 20.9872ZM763.384 33.95C763.384 41.162 762.361 47.5798 760.35 53.2293L764.119 54.5706C766.308 48.4202 767.384 41.538 767.384 33.95H763.384ZM760.35 53.2293C758.329 58.9077 755.507 63.723 751.901 67.7082L754.867 70.3918C758.862 65.977 761.94 60.6923 764.119 54.5706L760.35 53.2293ZM751.918 67.6905C748.318 71.5738 744.009 74.5601 738.968 76.6528L740.501 80.3472C746.06 78.0399 750.85 74.7262 754.851 70.4095L751.918 67.6905ZM738.955 76.6581C734.029 78.7423 728.548 79.8 722.484 79.8V83.8C729.021 83.8 735.04 82.6577 740.514 80.3419L738.955 76.6581ZM723.834 69.25C729.851 69.25 734.85 67.4626 738.599 63.7142L735.77 60.8858C732.919 63.7374 729.017 65.25 723.834 65.25V69.25ZM738.599 63.7142C742.366 59.9468 744.754 54.729 745.904 48.2494L741.965 47.5506C740.915 53.471 738.803 57.8532 735.77 60.8858L738.599 63.7142ZM745.906 48.2333L747.706 37.5833L743.762 36.9167L741.962 47.5667L745.906 48.2333ZM747.707 37.5788C747.916 36.3254 748.073 35.0711 748.177 33.8161L744.191 33.4839C744.096 34.6289 743.953 35.7746 743.762 36.9212L747.707 37.5788ZM748.157 33.9788C748.369 32.7052 748.484 31.5408 748.484 30.5H744.484C744.484 31.2592 744.399 32.1948 744.212 33.3212L748.157 33.9788ZM748.484 30.5C748.484 25.0646 747.04 20.6391 743.793 17.6325L741.076 20.5675C743.228 22.5609 744.484 25.7354 744.484 30.5H748.484ZM743.821 17.6583C740.753 14.709 736.603 13.35 731.634 13.35V17.35C735.866 17.35 738.916 18.491 741.048 20.5417L743.821 17.6583ZM731.634 13.35C725.598 13.35 720.557 15.1989 716.72 19.0358L719.549 21.8642C722.512 18.9011 726.47 17.35 731.634 17.35V13.35ZM716.72 19.0358C713.045 22.711 710.712 27.8854 709.565 34.3506L713.504 35.0494C714.557 29.1146 716.624 24.789 719.549 21.8642L716.72 19.0358ZM709.562 34.3667L707.762 45.0167L711.706 45.6833L713.506 35.0333L709.562 34.3667ZM707.762 45.0212C707.562 46.2212 707.362 47.4212 707.162 48.6212L711.107 49.2788C711.307 48.0788 711.507 46.8788 711.707 45.6788L707.762 45.0212ZM707.141 48.7839C707.038 50.022 706.984 51.1297 706.984 52.1H710.984C710.984 51.2703 711.031 50.278 711.127 49.1161L707.141 48.7839ZM706.984 52.1C706.984 57.5149 708.367 61.9308 711.498 64.9417L714.271 62.0583C712.202 60.0692 710.984 56.8851 710.984 52.1H706.984ZM711.526 64.9675C714.682 67.8898 718.862 69.25 723.834 69.25V65.25C719.607 65.25 716.487 64.1102 714.243 62.0325L711.526 64.9675ZM776.426 73.1L774.949 74.4491L774.956 74.456L774.962 74.4628L776.426 73.1ZM771.326 30.05L769.432 29.4079L769.427 29.4224L769.422 29.4369L771.326 30.05ZM779.726 14.75L781.259 16.0339L781.267 16.0252L781.274 16.0165L779.726 14.75ZM792.926 4.55L793.764 6.36592L793.778 6.35932L793.792 6.3525L792.926 4.55ZM830.426 6.34999L829.172 7.90842L829.183 7.91679L829.193 7.92501L830.426 6.34999ZM839.576 20.15L840.406 21.9695L841.945 21.2671L841.508 19.6325L839.576 20.15ZM824.126 27.2L822.223 27.817L822.915 29.9507L824.956 29.0195L824.126 27.2ZM819.026 18.95L817.759 20.4979L819.026 18.95ZM796.526 21.05L797.895 22.5077L797.907 22.4968L797.918 22.4858L796.526 21.05ZM789.926 35.3L787.955 34.9612L787.953 34.9712L789.926 35.3ZM788.426 44.3L790.393 44.6578L790.396 44.6433L790.399 44.6288L788.426 44.3ZM787.976 47.9L789.969 48.0661L789.97 48.0534L787.976 47.9ZM791.426 62.45L789.956 63.8066L789.97 63.8215L789.984 63.8362L791.426 62.45ZM807.626 65.9L808.018 67.8612L808.065 67.8518L808.111 67.8403L807.626 65.9ZM812.576 63.5L811.466 61.8359L811.444 61.8507L811.422 61.8661L812.576 63.5ZM818.426 58.4L816.98 57.0176L816.979 57.0191L818.426 58.4ZM825.926 49.25L826.991 47.5575L825.418 46.5671L824.316 48.0636L825.926 49.25ZM838.076 56.9L839.753 57.99L840.859 56.2887L839.141 55.2075L838.076 56.9ZM830.276 67.55L831.808 68.8352V68.8352L830.276 67.55ZM821.876 75.35L820.729 73.7115L821.876 75.35ZM811.976 80.15L811.391 78.2373L811.384 78.2396L811.376 78.242L811.976 80.15ZM799.976 79.8C790.056 79.8 782.806 77.0181 777.89 71.7372L774.962 74.4628C780.845 80.7819 789.296 83.8 799.976 83.8V79.8ZM777.902 71.7509C773.03 66.4188 770.476 58.9539 770.476 49.1H766.476C766.476 59.6461 769.222 68.1812 774.949 74.4491L777.902 71.7509ZM770.476 49.1C770.476 42.488 771.399 36.3467 773.229 30.6631L769.422 29.4369C767.452 35.5533 766.476 42.112 766.476 49.1H770.476ZM773.22 30.6921C775.149 25.0005 777.835 20.1242 781.259 16.0339L778.192 13.4661C774.417 17.9758 771.502 23.2994 769.432 29.4079L773.22 30.6921ZM781.274 16.0165C784.68 11.8528 788.837 8.63988 793.764 6.36592L792.088 2.73408C786.615 5.26011 781.971 8.84716 778.178 13.4835L781.274 16.0165ZM793.792 6.3525C798.69 3.9981 804.238 2.8 810.476 2.8V-1.2C803.714 -1.2 797.562 0.101902 792.059 2.74749L793.792 6.3525ZM810.476 2.8C818.928 2.8 825.062 4.60207 829.172 7.90842L831.679 4.79157C826.59 0.697933 819.423 -1.2 810.476 -1.2V2.8ZM829.193 7.92501C833.454 11.2598 836.257 15.4899 837.644 20.6675L841.508 19.6325C839.895 13.6101 836.597 8.64015 831.658 4.77499L829.193 7.92501ZM838.746 18.3305L823.296 25.3805L824.956 29.0195L840.406 21.9695L838.746 18.3305ZM826.028 26.583C824.752 22.6482 822.88 19.5191 820.292 17.4021L817.759 20.4979C819.572 21.9809 821.099 24.3518 822.223 27.817L826.028 26.583ZM820.292 17.4021C817.579 15.1819 813.684 14.25 808.976 14.25V18.25C813.267 18.25 816.073 19.1181 817.759 20.4979L820.292 17.4021ZM808.976 14.25C803.506 14.25 798.841 16.019 795.133 19.6142L797.918 22.4858C800.81 19.681 804.446 18.25 808.976 18.25V14.25ZM795.156 19.5923C791.428 23.0946 789.097 28.3128 787.955 34.9612L791.897 35.6388C792.954 29.4872 795.023 25.2054 797.895 22.5077L795.156 19.5923ZM787.953 34.9712L786.453 43.9712L790.399 44.6288L791.899 35.6288L787.953 34.9712ZM786.458 43.9422C786.244 45.1199 786.086 46.389 785.982 47.7466L789.97 48.0534C790.065 46.811 790.208 45.6801 790.393 44.6578L786.458 43.9422ZM785.983 47.7339C785.879 48.984 785.826 50.1897 785.826 51.35H789.826C789.826 50.3103 789.873 49.216 789.969 48.0661L785.983 47.7339ZM785.826 51.35C785.826 56.4709 787.109 60.7223 789.956 63.8066L792.895 61.0934C790.942 58.9777 789.826 55.8291 789.826 51.35H785.826ZM789.984 63.8362C793.002 66.9743 797.474 68.35 802.976 68.35V64.35C798.077 64.35 794.85 63.1257 792.867 61.0638L789.984 63.8362ZM802.976 68.35C804.701 68.35 806.383 68.1881 808.018 67.8612L807.234 63.9388C805.868 64.2119 804.45 64.35 802.976 64.35V68.35ZM808.111 67.8403C810.004 67.3669 811.878 66.4407 813.729 65.1339L811.422 61.8661C809.874 62.9593 808.447 63.6331 807.141 63.9597L808.111 67.8403ZM813.685 65.1641C815.646 63.857 817.708 62.0481 819.872 59.781L816.979 57.0191C814.943 59.1519 813.106 60.743 811.466 61.8359L813.685 65.1641ZM819.871 59.7824C822.151 57.3989 824.707 54.2757 827.536 50.4364L824.316 48.0636C821.545 51.8243 819.101 54.8011 816.981 57.0176L819.871 59.7824ZM824.86 50.9425L837.01 58.5925L839.141 55.2075L826.991 47.5575L824.86 50.9425ZM836.399 55.81C833.836 59.7537 831.283 63.2367 828.743 66.2648L831.808 68.8352C834.469 65.6633 837.116 62.0463 839.753 57.99L836.399 55.81ZM828.743 66.2648C826.244 69.2445 823.571 71.7218 820.729 73.7115L823.023 76.9885C826.18 74.7782 829.107 72.0555 831.808 68.8352L828.743 66.2648ZM820.729 73.7115C817.906 75.6878 814.796 77.1969 811.391 78.2373L812.56 82.0627C816.355 80.9031 819.846 79.2122 823.023 76.9885L820.729 73.7115ZM811.376 78.242C808.108 79.269 804.317 79.8 799.976 79.8V83.8C804.635 83.8 808.843 83.231 812.575 82.058L811.376 78.242ZM834.867 80L832.894 79.6712L832.506 82H834.867V80ZM847.767 2.59999V0.599995H846.073L845.794 2.2712L847.767 2.59999ZM863.367 2.59999L865.338 2.93981L865.742 0.599995H863.367V2.59999ZM861.117 15.65L859.146 15.3102L858.743 17.65H861.117V15.65ZM862.017 15.65V17.65H863.36L863.868 16.4073L862.017 15.65ZM868.767 5L870.181 6.41422L870.194 6.40136L870.207 6.38827L868.767 5ZM888.417 4.84999L886.839 6.07788L886.85 6.09238L886.861 6.10667L888.417 4.84999ZM890.817 15.95L888.828 15.7428L888.598 17.95H890.817V15.95ZM891.567 15.95V17.95H892.894L893.41 16.7279L891.567 15.95ZM898.767 5L900.156 6.4388V6.4388L898.767 5ZM923.067 20.9L921.076 20.7104V20.7104L923.067 20.9ZM922.317 26.75L920.344 26.4212L920.344 26.4221L922.317 26.75ZM913.467 80V82H915.162L915.44 80.3279L913.467 80ZM897.867 80L895.894 79.6731L895.509 82H897.867V80ZM906.417 28.4L904.456 28.0078L904.45 28.0403L904.444 28.0731L906.417 28.4ZM898.167 16.1L899.115 17.8609L899.166 17.8336L899.215 17.8033L898.167 16.1ZM894.267 20.15L892.59 19.06L892.575 19.0834L892.561 19.1071L894.267 20.15ZM890.067 31.1L888.098 30.7524L888.096 30.7628L888.094 30.7732L890.067 31.1ZM881.967 80V82H883.663L883.94 80.3268L881.967 80ZM866.367 80L864.394 79.6731L864.009 82H866.367V80ZM874.917 28.4L872.956 28.0078L872.95 28.0403L872.944 28.0731L874.917 28.4ZM866.667 16.1L867.615 17.8609L867.666 17.8336L867.715 17.8033L866.667 16.1ZM862.767 20.15L861.09 19.06L861.075 19.0834L861.061 19.1071L862.767 20.15ZM858.567 31.1L856.598 30.7524L856.596 30.7628L856.594 30.7732L858.567 31.1ZM850.467 80V82H852.163L852.44 80.3268L850.467 80ZM836.84 80.3288L849.74 2.92879L845.794 2.2712L832.894 79.6712L836.84 80.3288ZM847.767 4.59999H863.367V0.599995H847.767V4.59999ZM861.396 2.26018L859.146 15.3102L863.088 15.9898L865.338 2.93981L861.396 2.26018ZM861.117 17.65H862.017V13.65H861.117V17.65ZM863.868 16.4073C865.592 12.1948 867.709 8.88649 870.181 6.41422L867.353 3.58578C864.425 6.5135 862.043 10.3052 860.166 14.8927L863.868 16.4073ZM870.207 6.38827C872.498 4.01251 875.412 2.8 879.117 2.8V-1.2C874.422 -1.2 870.437 0.387489 867.328 3.61173L870.207 6.38827ZM879.117 2.8C882.737 2.8 885.194 3.96383 886.839 6.07788L889.996 3.62211C887.44 0.33617 883.697 -1.2 879.117 -1.2V2.8ZM886.861 6.10667C888.506 8.14254 889.298 11.2347 888.828 15.7428L892.806 16.1572C893.337 11.0653 892.529 6.75745 889.973 3.59332L886.861 6.10667ZM890.817 17.95H891.567V13.95H890.817V17.95ZM893.41 16.7279C895.226 12.4251 897.487 9.01612 900.156 6.4388L897.378 3.5612C894.247 6.58387 891.708 10.4749 889.725 15.1721L893.41 16.7279ZM900.156 6.4388C902.622 4.05823 905.893 2.8 910.167 2.8V-1.2C905.041 -1.2 900.712 0.34177 897.378 3.5612L900.156 6.4388ZM910.167 2.8C914.206 2.8 916.883 3.90401 918.586 5.78133C920.323 7.69561 921.367 10.7627 921.367 15.35H925.367C925.367 10.2373 924.212 6.02939 921.548 3.09367C918.852 0.120995 914.928 -1.2 910.167 -1.2V2.8ZM921.367 15.35C921.367 16.8705 921.272 18.6549 921.076 20.7104L925.058 21.0896C925.262 18.9451 925.367 17.0295 925.367 15.35H921.367ZM921.076 20.7104C920.88 22.7708 920.636 24.6738 920.344 26.4212L924.29 27.0788C924.599 25.2262 924.854 23.2292 925.058 21.0896L921.076 20.7104ZM920.344 26.4221L911.494 79.6721L915.44 80.3279L924.29 27.0779L920.344 26.4221ZM913.467 78H897.867V82H913.467V78ZM899.84 80.3269L908.39 28.7269L904.444 28.0731L895.894 79.6731L899.84 80.3269ZM908.378 28.7922C908.899 26.1895 909.167 23.7561 909.167 21.5H905.167C905.167 23.4439 904.935 25.6105 904.456 28.0078L908.378 28.7922ZM909.167 21.5C909.167 19.1077 908.729 16.9488 907.53 15.35C906.249 13.643 904.355 12.9 902.217 12.9V16.9C903.379 16.9 903.96 17.257 904.33 17.75C904.781 18.3512 905.167 19.4923 905.167 21.5H909.167ZM902.217 12.9C900.414 12.9 898.705 13.4208 897.119 14.3967L899.215 17.8033C900.23 17.1791 901.22 16.9 902.217 16.9V12.9ZM897.219 14.3391C895.495 15.2672 893.972 16.9337 892.59 19.06L895.944 21.24C897.162 19.3663 898.239 18.3328 899.115 17.8609L897.219 14.3391ZM892.561 19.1071C891.395 21.0138 890.437 22.9812 889.69 25.0086L893.444 26.3914C894.097 24.6188 894.939 22.8862 895.974 21.1929L892.561 19.1071ZM889.69 25.0086C888.956 27.0016 888.421 28.9173 888.098 30.7524L892.037 31.4476C892.313 29.8827 892.778 28.1984 893.444 26.3914L889.69 25.0086ZM888.094 30.7732L879.994 79.6732L883.94 80.3268L892.04 31.4268L888.094 30.7732ZM881.967 78H866.367V82H881.967V78ZM868.34 80.3269L876.89 28.7269L872.944 28.0731L864.394 79.6731L868.34 80.3269ZM876.878 28.7922C877.399 26.1895 877.667 23.7561 877.667 21.5H873.667C873.667 23.4439 873.435 25.6105 872.956 28.0078L876.878 28.7922ZM877.667 21.5C877.667 19.1077 877.229 16.9488 876.03 15.35C874.749 13.643 872.855 12.9 870.717 12.9V16.9C871.879 16.9 872.46 17.257 872.83 17.75C873.281 18.3512 873.667 19.4923 873.667 21.5H877.667ZM870.717 12.9C868.914 12.9 867.205 13.4208 865.619 14.3967L867.715 17.8033C868.73 17.1791 869.72 16.9 870.717 16.9V12.9ZM865.719 14.3391C863.995 15.2672 862.472 16.9337 861.09 19.06L864.444 21.24C865.662 19.3663 866.739 18.3328 867.615 17.8609L865.719 14.3391ZM861.061 19.1071C859.895 21.0138 858.937 22.9812 858.19 25.0086L861.944 26.3914C862.597 24.6188 863.439 22.8862 864.474 21.1929L861.061 19.1071ZM858.19 25.0086C857.456 27.0016 856.921 28.9173 856.598 30.7524L860.537 31.4476C860.813 29.8827 861.278 28.1984 861.944 26.3914L858.19 25.0086ZM856.594 30.7732L848.494 79.6732L852.44 80.3268L860.54 31.4268L856.594 30.7732ZM850.467 78H834.867V82H850.467V78ZM941.159 79.85L940.479 81.7311L940.487 81.734L940.496 81.7369L941.159 79.85ZM932.009 74.6L930.654 76.0719L930.671 76.0868L930.687 76.1014L932.009 74.6ZM926.309 66.65L924.464 67.4235L924.469 67.4344L924.474 67.4452L926.309 66.65ZM924.659 51.35L926.65 51.5396L924.659 51.35ZM925.709 42.95L923.736 42.62L923.732 42.6435L923.729 42.6672L925.709 42.95ZM932.459 2.59999V0.599995H930.765L930.486 2.27001L932.459 2.59999ZM951.359 2.59999L953.332 2.92464L953.714 0.599995H951.359V2.59999ZM945.659 37.25L943.685 36.9254L943.303 39.25H945.659V37.25ZM946.409 37.25V39.25H947.523L948.109 38.3027L946.409 37.25ZM955.709 27.5L956.785 29.1854L956.797 29.1779L955.709 27.5ZM985.559 29.6L984.144 31.0142L984.154 31.0236L984.163 31.0329L985.559 29.6ZM988.409 60.95L986.572 60.1571L986.568 60.1674L986.564 60.1777L988.409 60.95ZM980.609 72.05L979.261 70.5721L979.25 70.5821L979.239 70.5923L980.609 72.05ZM968.759 79.25L968.065 77.374L968.059 77.3765L968.052 77.3791L968.759 79.25ZM971.609 53.9L973.556 54.3545L973.564 54.3234L973.57 54.2922L971.609 53.9ZM972.059 51.05L974.046 51.2709L974.048 51.2599L974.049 51.249L972.059 51.05ZM948.659 42.05L947.327 40.5581L947.313 40.5702L947.3 40.5825L948.659 42.05ZM943.559 51.5L941.592 51.1377L941.59 51.145L941.589 51.1524L943.559 51.5ZM946.109 64.55L944.694 65.9642L944.73 65.9995L944.767 66.0331L946.109 64.55ZM953.909 79.8C949.286 79.8 945.267 79.1736 941.822 77.9631L940.496 81.7369C944.45 83.1264 948.932 83.8 953.909 83.8V79.8ZM941.838 77.9689C938.439 76.7415 935.616 75.1101 933.33 73.0986L930.687 76.1014C933.402 78.4899 936.678 80.3585 940.479 81.7311L941.838 77.9689ZM933.363 73.1281C931.06 71.01 929.328 68.588 928.144 65.8548L924.474 67.4452C925.889 70.712 927.957 73.59 930.654 76.0719L933.363 73.1281ZM928.153 65.8765C926.96 63.0316 926.359 59.9956 926.359 56.75H922.359C922.359 60.5044 923.057 64.0684 924.464 67.4235L928.153 65.8765ZM926.359 56.75C926.359 55.3329 926.453 53.5997 926.65 51.5396L922.668 51.1604C922.464 53.3003 922.359 55.1671 922.359 56.75H926.359ZM926.65 51.5396C926.845 49.4845 927.19 46.7195 927.688 43.2328L923.729 42.6672C923.227 46.1805 922.872 49.0155 922.668 51.1604L926.65 51.5396ZM927.681 43.28L934.431 2.92998L930.486 2.27001L923.736 42.62L927.681 43.28ZM932.459 4.59999H951.359V0.599995H932.459V4.59999ZM949.385 2.27535L943.685 36.9254L947.632 37.5746L953.332 2.92464L949.385 2.27535ZM945.659 39.25H946.409V35.25H945.659V39.25ZM948.109 38.3027C950.576 34.3179 953.475 31.3005 956.785 29.1854L954.632 25.8146C950.742 28.2995 947.441 31.7821 944.708 36.1973L948.109 38.3027ZM956.797 29.1779C960.096 27.0382 964.341 25.9 969.659 25.9V21.9C963.776 21.9 958.721 23.1618 954.62 25.8221L956.797 29.1779ZM969.659 25.9C976.076 25.9 980.813 27.6824 984.144 31.0142L986.973 28.1858C982.705 23.9176 976.841 21.9 969.659 21.9V25.9ZM984.163 31.0329C987.44 34.2231 989.259 39.2128 989.259 46.4H993.259C993.259 38.5872 991.277 32.3769 986.954 28.1671L984.163 31.0329ZM989.259 46.4C989.259 51.4563 988.353 56.0328 986.572 60.1571L990.245 61.7429C992.264 57.0672 993.259 51.9437 993.259 46.4H989.259ZM986.564 60.1777C984.875 64.2128 982.443 67.6709 979.261 70.5721L981.956 73.5279C985.574 70.2291 988.343 66.2872 990.253 61.7223L986.564 60.1777ZM979.239 70.5923C976.15 73.4943 972.435 75.759 968.065 77.374L969.452 81.126C974.282 79.341 978.467 76.8057 981.978 73.5077L979.239 70.5923ZM968.052 77.3791C963.804 78.9839 959.097 79.8 953.909 79.8V83.8C959.521 83.8 964.714 82.9161 969.465 81.1209L968.052 77.3791ZM955.709 69.4C960.323 69.4 964.266 68.1707 967.353 65.5496C970.423 62.9434 972.441 59.1355 973.556 54.3545L969.661 53.4455C968.677 57.6645 966.995 60.6066 964.764 62.5004C962.551 64.3793 959.594 65.4 955.709 65.4V69.4ZM973.57 54.2922C973.78 53.2425 973.939 52.235 974.046 51.2709L970.071 50.8291C969.978 51.665 969.837 52.5575 969.647 53.5078L973.57 54.2922ZM974.049 51.249C974.153 50.2087 974.209 49.2881 974.209 48.5H970.209C970.209 49.1118 970.164 49.8913 970.069 50.851L974.049 51.249ZM974.209 48.5C974.209 44.7384 973.162 41.5651 970.74 39.3683C968.354 37.2053 964.971 36.3 960.959 36.3V40.3C964.446 40.3 966.688 41.0947 968.053 42.3317C969.38 43.5349 970.209 45.4616 970.209 48.5H974.209ZM960.959 36.3C955.28 36.3 950.626 37.6124 947.327 40.5581L949.991 43.5419C952.292 41.4875 955.837 40.3 960.959 40.3V36.3ZM947.3 40.5825C944.267 43.3909 942.366 46.936 941.592 51.1377L945.526 51.8623C946.151 48.464 947.651 45.7091 950.017 43.5175L947.3 40.5825ZM941.589 51.1524C941.27 52.9583 941.109 54.7247 941.109 56.45H945.109C945.109 54.9753 945.247 53.4417 945.528 51.8476L941.589 51.1524ZM941.109 56.45C941.109 60.2658 942.245 63.5152 944.694 65.9642L947.523 63.1358C945.972 61.5848 945.109 59.4342 945.109 56.45H941.109ZM944.767 66.0331C947.385 68.4018 951.162 69.4 955.709 69.4V65.4C951.655 65.4 949.032 64.4982 947.45 63.0669L944.767 66.0331Z" fill="#D1D1D1" mask="url(#path-1-outside-1_344_608)"/>
<defs>
<linearGradient id="paint0_linear_344_608" x1="-6" y1="23.5" x2="1002" y2="23.5" gradientUnits="userSpaceOnUse">
<stop stop-color="#FF4D26"/>
<stop offset="0.455" stop-color="#1C0904" stop-opacity="0.9199"/>
<stop offset="1" stop-opacity="0.91"/>
</linearGradient>
</defs>
</svg>
