<svg width="522" height="360" viewBox="0 0 522 360" fill="none" xmlns="http://www.w3.org/2000/svg">
<rect x="62.565" y="7.02031" width="466" height="237" rx="15" transform="rotate(15 62.565 7.02031)" stroke="black" stroke-width="2"/>
<path d="M40.9189 89.7364L491.523 210.475" stroke="black" stroke-width="2"/>
<path d="M6.40088 216.626L456.039 337.106" stroke="black" stroke-width="2"/>
<path d="M124.342 112.607L90.5659 238.66" stroke="black" stroke-width="2"/>
<path d="M507.787 130.458L520.647 123.034" stroke="black" stroke-width="2"/>
<path d="M85.627 5.95285L520.777 122.551L463.966 334.572L448.035 351.526" stroke="black" stroke-width="2"/>
<path d="M86.5927 6.21165L85.1438 5.82342C82.2976 6.78625 75.7031 8.98781 72.0945 10.0914C68.4859 11.1951 67.1755 11.7067 66.9714 11.8245" stroke="black" stroke-width="2"/>
<path d="M89.6602 242.041L86.0367 255.564" stroke="black" stroke-width="2"/>
<path d="M244.208 283.452L240.585 296.975" stroke="black" stroke-width="2"/>
<path d="M379.438 319.687L375.815 333.21" stroke="black" stroke-width="2"/>
<rect x="125.308" y="112.866" width="379" height="131" transform="rotate(15 125.308 112.866)" fill="black"/>
<path d="M141.201 164.611C135.712 163.14 131.992 160.711 130.042 157.325C128.138 153.921 127.841 149.775 129.151 144.886C130.461 139.997 132.788 136.569 136.131 134.601C139.52 132.615 143.96 132.358 149.449 133.829C151.566 134.396 153.372 135.108 154.865 135.965C156.405 136.804 157.664 137.751 158.643 138.805C159.621 139.859 160.342 141.012 160.805 142.263C161.307 143.525 161.599 144.868 161.68 146.291L153.058 145.534C153.013 144.76 152.913 144.033 152.76 143.352C152.606 142.671 152.331 142.049 151.936 141.486C151.58 140.934 151.059 140.444 150.375 140.017C149.738 139.572 148.91 139.213 147.89 138.94C145.499 138.299 143.61 138.524 142.225 139.615C140.887 140.689 139.898 142.419 139.258 144.807L137.865 150.008C137.225 152.396 137.212 154.403 137.827 156.03C138.489 157.639 140.015 158.764 142.407 159.405C144.446 159.951 146.038 159.89 147.184 159.222C148.368 158.565 149.367 157.583 150.179 156.278L158.024 159.934C157.243 161.125 156.319 162.142 155.253 162.984C154.226 163.836 153.022 164.488 151.64 164.94C150.266 165.364 148.702 165.554 146.948 165.511C145.234 165.478 143.318 165.178 141.201 164.611Z" fill="white"/>
<path d="M183.586 162.076L173.234 159.302L169.899 171.752L161.018 169.372L168.992 139.613L177.872 141.993L174.64 154.058L184.991 156.832L188.224 144.767L197.105 147.146L189.131 176.905L180.25 174.525L183.586 162.076Z" fill="white"/>
<path d="M196.518 178.884L197.786 174.152L206.608 176.516L212.046 156.222L203.224 153.858L204.492 149.126L230.958 156.217L229.69 160.95L220.868 158.586L215.43 178.88L224.252 181.244L222.984 185.976L196.518 178.884Z" fill="white"/>
<path d="M245.232 192.486C239.743 191.015 236.023 188.586 234.073 185.2C232.169 181.796 231.873 177.65 233.183 172.761C234.492 167.872 236.819 164.444 240.162 162.476C243.552 160.49 247.991 160.233 253.48 161.704C255.598 162.271 257.403 162.983 258.896 163.84C260.436 164.679 261.696 165.626 262.674 166.68C263.652 167.734 264.373 168.887 264.836 170.138C265.338 171.4 265.63 172.743 265.711 174.166L257.089 173.409C257.044 172.635 256.945 171.908 256.791 171.227C256.637 170.546 256.363 169.924 255.967 169.361C255.611 168.809 255.091 168.319 254.407 167.892C253.769 167.447 252.941 167.088 251.922 166.815C249.53 166.174 247.641 166.399 246.256 167.491C244.918 168.564 243.929 170.294 243.29 172.682L241.896 177.883C241.256 180.271 241.244 182.278 241.858 183.905C242.52 185.514 244.046 186.639 246.438 187.28C248.477 187.826 250.069 187.765 251.215 187.097C252.399 186.44 253.398 185.458 254.21 184.153L262.055 187.809C261.274 189.001 260.35 190.017 259.284 190.859C258.257 191.711 257.053 192.363 255.671 192.815C254.297 193.239 252.733 193.429 250.98 193.386C249.265 193.353 247.35 193.053 245.232 192.486Z" fill="white"/>
<path d="M281.253 188.292L276.613 191.024L274.283 199.721L265.461 197.357L273.434 167.599L282.257 169.963L278.921 182.412L279.391 182.538L285.186 178.79L294.431 173.225L304.312 175.872L288.65 185.156L296.926 205.789L286.986 203.125L281.253 188.292Z" fill="white"/>
<path d="M300.843 206.838L308.817 177.079L335.048 184.108L333.643 189.352L316.234 184.687L314.406 191.509L331.227 196.016L329.822 201.26L313.001 196.753L311.071 203.958L328.479 208.623L327.074 213.867L300.843 206.838Z" fill="white"/>
<path d="M347.879 198.239L347.232 198.065L341.931 217.848L334.403 215.831L342.377 186.072L352.963 188.908L357.014 211.196L357.661 211.37L362.962 191.587L370.49 193.605L362.516 223.363L351.93 220.527L347.879 198.239Z" fill="white"/>
<path d="M124.351 171.27L138.76 175.131C142.799 176.213 145.686 177.749 147.423 179.737C149.199 181.736 149.759 183.958 149.104 186.402C148.647 188.107 147.693 189.314 146.243 190.022C144.839 190.712 142.998 190.996 140.72 190.873L140.651 191.129C143.078 192.266 144.825 193.587 145.893 195.092C147 196.607 147.283 198.374 146.742 200.392C146.072 202.893 144.441 204.588 141.849 205.478C139.297 206.378 136.06 206.303 132.139 205.252L116.377 201.029L124.351 171.27ZM130.633 200.051C132.751 200.618 134.368 200.777 135.485 200.528C136.603 200.28 137.344 199.473 137.71 198.109L138.041 196.872C138.406 195.508 138.168 194.439 137.324 193.664C136.481 192.89 135.001 192.219 132.884 191.652L128.414 190.454L126.163 198.853L130.633 200.051ZM132.909 187.089C134.987 187.646 136.561 187.809 137.632 187.578C138.71 187.318 139.424 186.535 139.774 185.227L140.117 183.948C140.467 182.641 140.237 181.619 139.425 180.884C138.614 180.149 137.169 179.503 135.091 178.946L131.738 178.048L129.556 186.191L132.909 187.089Z" fill="white"/>
<path d="M159.7 212.637L150.995 210.305L158.969 180.546L174.849 184.801C176.849 185.337 178.572 186.042 180.018 186.917C181.472 187.764 182.618 188.741 183.456 189.849C184.333 190.968 184.89 192.183 185.127 193.495C185.363 194.808 185.287 196.189 184.899 197.638C184.335 199.742 183.224 201.378 181.566 202.549C179.908 203.719 177.857 204.236 175.414 204.099L180.285 218.153L170.639 215.568L166.717 202.682L162.659 201.595L159.7 212.637ZM169.042 198.005C171.12 198.562 172.627 198.661 173.564 198.302C174.539 197.955 175.202 197.127 175.553 195.819L175.895 194.54C176.246 193.233 176.085 192.185 175.414 191.396C174.782 190.617 173.427 189.949 171.349 189.393L166.291 188.037L163.984 196.649L169.042 198.005Z" fill="white"/>
<path d="M185.908 219.66L193.882 189.901L220.112 196.929L218.707 202.173L201.298 197.509L199.471 204.33L216.291 208.837L214.886 214.081L198.066 209.574L196.135 216.78L213.544 221.444L212.139 226.688L185.908 219.66Z" fill="white"/>
<path d="M241.464 234.546L240.795 226.69L229.562 223.68L225.113 230.165L216.174 227.769L235.263 200.989L247.732 204.33L250.874 237.067L241.464 234.546ZM239.841 208.842L239.371 208.715L232.355 218.899L240.825 221.169L239.841 208.842Z" fill="white"/>
<path d="M267.417 242.048C263.966 241.124 261.077 239.908 258.75 238.401C256.422 236.894 254.664 235.219 253.477 233.378L259.69 230.656C260.86 232.249 262.251 233.566 263.863 234.607C265.515 235.659 267.262 236.432 269.105 236.926C271.222 237.493 272.921 237.583 274.201 237.195C275.482 236.807 276.294 235.973 276.636 234.694C276.918 233.643 276.7 232.731 275.982 231.96C275.304 231.199 273.995 230.437 272.056 229.674L267.9 228.012C264.336 226.57 261.933 224.875 260.689 222.927C259.454 220.951 259.129 218.869 259.716 216.68C260.485 213.809 262.373 211.939 265.38 211.069C268.394 210.171 272.234 210.347 276.9 211.597C280.076 212.448 282.745 213.544 284.907 214.885C287.069 216.226 288.712 217.702 289.835 219.313L283.751 222.024C282.889 220.848 281.778 219.819 280.417 218.937C279.064 218.026 277.447 217.319 275.565 216.814C271.605 215.753 269.309 216.402 268.677 218.761C268.402 219.785 268.628 220.668 269.354 221.41C270.118 222.164 271.466 222.936 273.397 223.728L277.542 225.432C280.761 226.752 283.085 228.349 284.516 230.225C285.946 232.101 286.345 234.219 285.713 236.578C285.34 237.971 284.66 239.175 283.674 240.19C282.695 241.177 281.421 241.932 279.852 242.456C278.29 242.951 276.464 243.178 274.375 243.136C272.324 243.104 270.005 242.742 267.417 242.048Z" fill="white"/>
<path d="M313.858 227.669L307.289 252.184L298.467 249.82L305.036 225.305L293.214 222.137L294.619 216.893L327.084 225.592L325.679 230.836L313.858 227.669Z" fill="white"/>
<path d="M141.201 164.611C135.712 163.14 131.992 160.711 130.042 157.325C128.138 153.921 127.841 149.775 129.151 144.886C130.461 139.997 132.788 136.569 136.131 134.601C139.52 132.615 143.96 132.358 149.449 133.829C151.566 134.396 153.372 135.108 154.865 135.965C156.405 136.804 157.664 137.751 158.643 138.805C159.621 139.859 160.342 141.012 160.805 142.263C161.307 143.525 161.599 144.868 161.68 146.291L153.058 145.534C153.013 144.76 152.913 144.033 152.76 143.352C152.606 142.671 152.331 142.049 151.936 141.486C151.58 140.934 151.059 140.444 150.375 140.017C149.738 139.572 148.91 139.213 147.89 138.94C145.499 138.299 143.61 138.524 142.225 139.615C140.887 140.689 139.898 142.419 139.258 144.807L137.865 150.008C137.225 152.396 137.212 154.403 137.827 156.03C138.489 157.639 140.015 158.764 142.407 159.405C144.446 159.951 146.038 159.89 147.184 159.222C148.368 158.565 149.367 157.583 150.179 156.278L158.024 159.934C157.243 161.125 156.319 162.142 155.253 162.984C154.226 163.836 153.022 164.488 151.64 164.94C150.266 165.364 148.702 165.554 146.948 165.511C145.234 165.478 143.318 165.178 141.201 164.611Z" stroke="#FF4D26"/>
<path d="M183.586 162.076L173.234 159.302L169.899 171.752L161.018 169.372L168.992 139.613L177.872 141.993L174.64 154.058L184.991 156.832L188.224 144.767L197.105 147.146L189.131 176.905L180.25 174.525L183.586 162.076Z" stroke="#FF4D26"/>
<path d="M196.518 178.884L197.786 174.152L206.608 176.516L212.046 156.222L203.224 153.858L204.492 149.126L230.958 156.217L229.69 160.95L220.868 158.586L215.43 178.88L224.252 181.244L222.984 185.976L196.518 178.884Z" stroke="#FF4D26"/>
<path d="M245.232 192.486C239.743 191.015 236.023 188.586 234.073 185.2C232.169 181.796 231.873 177.65 233.183 172.761C234.492 167.872 236.819 164.444 240.162 162.476C243.552 160.49 247.991 160.233 253.48 161.704C255.598 162.271 257.403 162.983 258.896 163.84C260.436 164.679 261.696 165.626 262.674 166.68C263.652 167.734 264.373 168.887 264.836 170.138C265.338 171.4 265.63 172.743 265.711 174.166L257.089 173.409C257.044 172.635 256.945 171.908 256.791 171.227C256.637 170.546 256.363 169.924 255.967 169.361C255.611 168.809 255.091 168.319 254.407 167.892C253.769 167.447 252.941 167.088 251.922 166.815C249.53 166.174 247.641 166.399 246.256 167.491C244.918 168.564 243.929 170.294 243.29 172.682L241.896 177.883C241.256 180.271 241.244 182.278 241.858 183.905C242.52 185.514 244.046 186.639 246.438 187.28C248.477 187.826 250.069 187.765 251.215 187.097C252.399 186.44 253.398 185.458 254.21 184.153L262.055 187.809C261.274 189.001 260.35 190.017 259.284 190.859C258.257 191.711 257.053 192.363 255.671 192.815C254.297 193.239 252.733 193.429 250.98 193.386C249.265 193.353 247.35 193.053 245.232 192.486Z" stroke="#FF4D26"/>
<path d="M281.253 188.292L276.613 191.024L274.283 199.721L265.461 197.357L273.434 167.599L282.257 169.963L278.921 182.412L279.391 182.538L285.186 178.79L294.431 173.225L304.312 175.872L288.65 185.156L296.926 205.789L286.986 203.125L281.253 188.292Z" stroke="#FF4D26"/>
<path d="M300.843 206.838L308.817 177.079L335.048 184.108L333.643 189.352L316.234 184.687L314.406 191.509L331.227 196.016L329.822 201.26L313.001 196.753L311.071 203.958L328.479 208.623L327.074 213.867L300.843 206.838Z" stroke="#FF4D26"/>
<path d="M347.879 198.239L347.232 198.065L341.931 217.848L334.403 215.831L342.377 186.072L352.963 188.908L357.014 211.196L357.661 211.37L362.962 191.587L370.49 193.605L362.516 223.363L351.93 220.527L347.879 198.239Z" stroke="#FF4D26"/>
<path d="M124.351 171.27L138.76 175.131C142.799 176.213 145.686 177.749 147.423 179.737C149.199 181.736 149.759 183.958 149.104 186.402C148.647 188.107 147.693 189.314 146.243 190.022C144.839 190.712 142.998 190.996 140.72 190.873L140.651 191.129C143.078 192.266 144.825 193.587 145.893 195.092C147 196.607 147.283 198.374 146.742 200.392C146.072 202.893 144.441 204.588 141.849 205.478C139.297 206.378 136.06 206.303 132.139 205.252L116.377 201.029L124.351 171.27ZM130.633 200.051C132.751 200.618 134.368 200.777 135.485 200.528C136.603 200.28 137.344 199.473 137.71 198.109L138.041 196.872C138.406 195.508 138.168 194.439 137.324 193.664C136.481 192.89 135.001 192.219 132.884 191.652L128.414 190.454L126.163 198.853L130.633 200.051ZM132.909 187.089C134.987 187.646 136.561 187.809 137.632 187.578C138.71 187.318 139.424 186.535 139.774 185.227L140.117 183.948C140.467 182.641 140.237 181.619 139.425 180.884C138.614 180.149 137.169 179.503 135.091 178.946L131.738 178.048L129.556 186.191L132.909 187.089Z" stroke="#FF4D26"/>
<path d="M159.7 212.637L150.995 210.305L158.969 180.546L174.849 184.801C176.849 185.337 178.572 186.042 180.018 186.917C181.472 187.764 182.618 188.741 183.456 189.849C184.333 190.968 184.89 192.183 185.127 193.495C185.363 194.808 185.287 196.189 184.899 197.638C184.335 199.742 183.224 201.378 181.566 202.549C179.908 203.719 177.857 204.236 175.414 204.099L180.285 218.153L170.639 215.568L166.717 202.682L162.659 201.595L159.7 212.637ZM169.042 198.005C171.12 198.562 172.627 198.661 173.564 198.302C174.539 197.955 175.202 197.127 175.553 195.819L175.895 194.54C176.246 193.233 176.085 192.185 175.414 191.396C174.782 190.617 173.427 189.949 171.349 189.393L166.291 188.037L163.984 196.649L169.042 198.005Z" stroke="#FF4D26"/>
<path d="M185.908 219.66L193.882 189.901L220.112 196.929L218.707 202.173L201.298 197.509L199.471 204.33L216.291 208.837L214.886 214.081L198.066 209.574L196.135 216.78L213.544 221.444L212.139 226.688L185.908 219.66Z" stroke="#FF4D26"/>
<path d="M241.464 234.546L240.795 226.69L229.562 223.68L225.113 230.165L216.174 227.769L235.263 200.989L247.732 204.33L250.874 237.067L241.464 234.546ZM239.841 208.842L239.371 208.715L232.355 218.899L240.825 221.169L239.841 208.842Z" stroke="#FF4D26"/>
<path d="M267.417 242.048C263.966 241.124 261.077 239.908 258.75 238.401C256.422 236.894 254.664 235.219 253.477 233.378L259.69 230.656C260.86 232.249 262.251 233.566 263.863 234.607C265.515 235.659 267.262 236.432 269.105 236.926C271.222 237.493 272.921 237.583 274.201 237.195C275.482 236.807 276.294 235.973 276.636 234.694C276.918 233.643 276.7 232.731 275.982 231.96C275.304 231.199 273.995 230.437 272.056 229.674L267.9 228.012C264.336 226.57 261.933 224.875 260.689 222.927C259.454 220.951 259.129 218.869 259.716 216.68C260.485 213.809 262.373 211.939 265.38 211.069C268.394 210.171 272.234 210.347 276.9 211.597C280.076 212.448 282.745 213.544 284.907 214.885C287.069 216.226 288.712 217.702 289.835 219.313L283.751 222.024C282.889 220.848 281.778 219.819 280.417 218.937C279.064 218.026 277.447 217.319 275.565 216.814C271.605 215.753 269.309 216.402 268.677 218.761C268.402 219.785 268.628 220.668 269.354 221.41C270.118 222.164 271.466 222.936 273.397 223.728L277.542 225.432C280.761 226.752 283.085 228.349 284.516 230.225C285.946 232.101 286.345 234.219 285.713 236.578C285.34 237.971 284.66 239.175 283.674 240.19C282.695 241.177 281.421 241.932 279.852 242.456C278.29 242.951 276.464 243.178 274.375 243.136C272.324 243.104 270.005 242.742 267.417 242.048Z" stroke="#FF4D26"/>
<path d="M313.858 227.669L307.289 252.184L298.467 249.82L305.036 225.305L293.214 222.137L294.619 216.893L327.084 225.592L325.679 230.836L313.858 227.669Z" stroke="#FF4D26"/>
<path d="M112.295 227.092L123.77 230.167L123.132 232.547L111.657 229.472L112.295 227.092ZM107.55 230.945L126.08 235.91L125.431 238.333L106.901 233.368L107.55 230.945ZM116.342 229.498L119.062 230.226L116.477 239.874C116.096 241.298 115.579 241.865 114.435 241.969C113.307 242.099 111.872 241.76 109.981 241.254C110.031 240.47 109.802 239.201 109.58 238.413C110.944 238.847 112.581 239.286 113.054 239.39C113.506 239.488 113.677 239.443 113.774 239.081L116.342 229.498ZM118.318 222.124L121.038 222.852L120.013 226.678L117.293 225.949L118.318 222.124ZM109.967 222.095L128.412 227.038L126.96 232.456L124.304 231.745L125.124 228.685L111.842 225.126L111.022 228.186L108.515 227.514L109.967 222.095ZM131.619 234.365L146.09 238.243L142.924 250.058L140.311 249.358L142.844 239.901L133.473 237.39L130.939 246.847L128.453 246.18L131.619 234.365ZM138.201 233.259L140.751 233.943L137.335 246.693L134.785 246.01L138.201 233.259ZM131.557 239.018L143.924 242.332L143.349 244.478L130.981 241.164L131.557 239.018ZM130.385 243.305L142.795 246.63L142.163 248.989L129.753 245.663L130.385 243.305ZM139.568 227.818L142.288 228.547L141.252 232.414L138.532 231.685L139.568 227.818ZM131.411 228.001L149.389 232.818L147.977 238.088L145.342 237.382L146.127 234.449L133.292 231.01L132.506 233.943L129.999 233.271L131.411 228.001ZM161.582 236.017C159.185 237.652 155.18 239.084 151.414 239.624C151.276 238.949 150.874 237.816 150.506 237.148C154.377 236.728 158.491 235.143 160.756 233.404L163.349 234.099C165.017 237.393 167.854 240.407 170.884 242.358C170.118 242.836 169.305 243.575 168.66 244.199C165.953 242.062 162.93 238.724 161.582 236.017ZM155.075 241.516L164.447 244.027L163.957 245.855L154.586 243.343L155.075 241.516ZM159.739 237.709L162.375 238.415L161.606 241.284L158.971 240.578L159.739 237.709ZM149.021 248.981C151.446 249.449 155.069 250.124 158.491 250.699L157.903 252.978C154.673 252.454 151.235 251.852 148.729 251.431L149.021 248.981ZM159.388 247.181C160.202 250.178 162.964 252.535 167.269 254.235C166.574 254.618 165.642 255.462 165.12 256.051C160.613 254.001 158.018 251.187 157.061 247.195L159.388 247.181ZM165.771 248.436L167.21 250.461C165.262 251.101 162.92 251.681 161.165 251.939L160.005 250.148C161.777 249.826 164.228 249.093 165.771 248.436ZM155.901 238.435L166.972 241.401L164.814 249.455L153.743 246.489L154.272 244.512L162.773 246.79L163.872 242.689L155.371 240.411L155.901 238.435ZM154.328 238.013L156.857 238.691L153.68 250.549L151.077 250.147L154.328 238.013ZM185.088 253.999L185.897 250.982L192.697 252.804L191.889 255.821L185.088 253.999ZM213.583 250.611C215.208 251.092 218.486 251.947 220.915 252.234C223.147 252.49 225.418 252.598 226.617 252.372L227.755 255.182C226.981 255.18 226.368 255.175 226.005 255.169C224.596 255.156 222.822 254.977 221.123 254.772C218.609 254.463 215.463 253.711 213.603 253.258L213.583 250.611ZM210.568 265.518C214.791 264.805 217.221 262.45 218.286 258.476C218.286 258.476 218.656 257.095 219.464 254.077L222.334 254.504C221.844 256.332 221.087 259.158 221.087 259.158C219.937 263.451 217.56 266.709 212.798 268.075L210.568 265.518ZM210.623 255.284C211.207 255.486 211.891 255.737 212.571 255.92C213.909 256.278 225.278 259.325 226.702 259.706C227.148 259.826 228.164 260.03 228.643 260.112L227.909 262.854C227.346 262.657 226.656 262.427 226.061 262.268C224.723 261.909 213.162 258.811 211.909 258.475C211.25 258.299 210.452 258.131 209.888 258.025L210.623 255.284ZM239.316 257.597C239.348 256.968 239.336 256.418 239.297 255.884L242.445 256.203C242.38 256.619 242.271 257.364 242.219 257.897C242.056 259.356 241.279 270.672 241.144 272.96C241.128 273.616 241.114 274.432 241.117 275.184L237.915 274.896C238.019 274.081 238.17 273.347 238.192 272.67C238.386 270.672 239.195 259.409 239.316 257.597ZM232.786 258.763C233.456 258.897 234.105 259.025 234.808 259.122C236.671 259.394 244.416 260.239 246.431 260.369C247.118 260.439 247.977 260.464 248.527 260.452L248.306 263.4C247.833 263.296 246.928 263.19 246.267 263.104C243.918 262.861 236.295 262.072 234.627 261.921C233.934 261.872 233.347 261.851 232.574 261.849L232.786 258.763ZM231.139 264.995C231.697 265.121 232.703 265.277 233.39 265.347C235.749 265.638 243.842 266.462 246.411 266.65C247.279 266.723 248.117 266.742 248.73 266.747L248.531 269.7C247.946 269.589 247.035 269.505 246.215 269.421C243.408 269.102 235.422 268.306 233.21 268.146C232.25 268.071 231.472 267.999 230.971 268.002L231.139 264.995ZM257.571 261.441C258.77 262.832 260.94 265.783 261.847 267.415L259.087 269.044C258.301 267.558 256.244 264.524 254.977 263.046L257.571 261.441ZM251.101 274.876C254.563 275.302 257.595 274.953 259.98 274.294C264.195 273.1 267.823 270.611 269.952 268.106L270.791 271.52C268.423 273.983 264.811 276.158 260.837 277.302C258.322 278.018 255.268 278.452 252.156 278.165L251.101 274.876ZM290.514 272.158C290.281 272.346 289.728 272.881 289.417 273.276C288.005 275.062 285.658 277.53 283.261 279.166C280.147 281.269 276.232 283.045 272.522 283.713L270.927 280.826C274.711 280.473 278.679 278.758 281.268 277.083C283.098 275.865 284.958 274.109 285.851 272.731C284.958 272.492 279.54 271.04 278.626 270.795C277.755 270.561 276.557 270.354 276.078 270.272L276.893 267.233C277.444 267.472 278.744 267.888 279.36 268.054C280.487 268.355 285.927 269.813 286.862 270.064C287.797 270.314 288.654 270.43 289.14 270.401L290.514 272.158ZM284.01 277.476C285.721 279.848 287.89 283.822 288.815 285.893L285.829 287.347C284.843 284.737 283.204 281.588 281.483 278.917L284.01 277.476ZM294.778 278.175C295.547 278.449 297.055 278.944 298.16 279.24C300.667 279.912 307.68 281.791 309.571 282.298C310.57 282.566 311.533 282.71 312.118 282.821L311.219 286.179C310.714 286.021 309.659 285.624 308.767 285.385C306.833 284.867 299.841 282.993 297.334 282.322C296.144 282.003 294.703 281.685 293.878 281.532L294.778 278.175ZM331.43 281.846C331.248 282.526 331.652 283.227 332.332 283.409C333.012 283.591 333.713 283.187 333.895 282.507C334.077 281.827 333.673 281.126 332.993 280.944C332.313 280.762 331.612 281.166 331.43 281.846ZM330.113 281.493C330.488 280.091 331.943 279.251 333.346 279.626C334.749 280.002 335.589 281.457 335.213 282.86C334.837 284.262 333.382 285.102 331.979 284.726C330.577 284.351 329.737 282.896 330.113 281.493ZM332.255 283.867C331.935 284.213 331.621 284.79 331.395 285.208C330.348 287.159 328.525 290.224 326.108 292.104C323.512 294.142 320.122 295.488 315.994 295.68L314.361 292.51C318.851 292.665 321.748 291.46 324.023 289.769C325.92 288.387 327.376 286.181 328.142 284.427C326.846 284.08 319.833 282.201 318.24 281.774C317.262 281.512 316.246 281.308 315.682 281.202L316.491 278.185C317.106 278.441 318.267 278.866 318.968 279.054C320.562 279.481 327.617 281.371 328.807 281.69C329.232 281.804 329.918 281.965 330.51 281.964L332.255 283.867Z" fill="white"/>
<mask id="path-14-outside-1_344_421" maskUnits="userSpaceOnUse" x="45.4644" y="61.1815" width="235.654" height="86.4542" fill="black">
<rect fill="white" x="45.4644" y="61.1815" width="235.654" height="86.4542"/>
<path d="M52.491 72.8066L73.2623 78.3722L72.5231 81.1309L51.7518 75.5653L52.491 72.8066ZM55.764 67.5464L73.1043 72.1928L72.3651 74.9514L55.0248 70.3051L55.764 67.5464ZM63.7895 65.9699L66.7336 66.7588L60.9009 88.5269L57.9567 87.738L63.7895 65.9699ZM60.408 76.6423L62.5519 78.2852C59.3387 81.3748 54.8216 83.7673 50.6494 84.6868C50.3721 83.8671 49.743 82.5058 49.2492 81.7524C53.2355 81.1557 57.7058 79.1235 60.408 76.6423ZM64.3428 77.7215C65.4192 81.2152 68.2745 85.2103 71.4114 87.6907C70.6132 88.0731 69.3816 88.9606 68.7192 89.5782C65.6353 86.7145 63.0077 82.3331 61.7637 78.074L64.3428 77.7215ZM75.3552 79.9269L96.196 85.5112L95.4817 88.1771L74.6409 82.5928L75.3552 79.9269ZM78.4822 72.6151L97.3062 77.6589L96.598 80.3017L77.7741 75.2578L78.4822 72.6151ZM87.0011 72.1646L89.9684 72.9597L84.1357 94.7278L81.1683 93.9327L87.0011 72.1646ZM92.5366 79.1389L95.2277 80.7793C93.9414 82.1491 92.5731 83.5465 91.5517 84.391L89.352 82.9568C90.3874 81.967 91.7297 80.3886 92.5366 79.1389ZM79.0788 76.6013L81.8078 76.3387C82.3301 77.8203 82.7112 79.7363 82.7082 80.9529L79.7627 81.2818C79.8291 80.1069 79.5129 78.1339 79.0788 76.6013ZM83.531 83.2605L85.5374 84.7672C82.3768 87.8461 77.8891 90.2215 73.782 91.0839C73.5216 90.2936 72.9095 88.9617 72.4326 88.2377C76.4065 87.6874 80.8581 85.7247 83.531 83.2605ZM87.4827 84.3691C88.5484 87.8102 91.3698 91.7465 94.5129 94.2037C93.7147 94.5862 92.548 95.4165 91.915 96.0171C88.7893 93.2167 86.1957 88.8942 84.9918 84.6707L87.4827 84.3691ZM112.752 83.1641C111.793 85.4417 110.603 88.0298 109.059 90.5479C106.413 94.858 103.649 97.1984 101.122 96.5213C98.5258 95.8256 97.1571 92.4027 98.2069 88.4849C99.6356 83.153 105.525 79.8115 111.529 81.4203C117.255 82.9546 119.827 87.9172 118.466 92.9941C117.162 97.8623 113.246 100.515 107.161 99.854L106.133 96.6464C107.068 96.7727 107.748 96.8307 108.411 96.8593C111.548 96.9296 114.431 95.4412 115.344 92.0334C116.32 88.3938 114.744 85.1886 110.733 84.114C105.818 82.7971 102.055 86.0871 101.272 89.0081C100.645 91.3495 101.267 92.7339 102.148 92.9699C103.145 93.237 104.424 91.9894 106.236 89.1207C107.492 87.1217 108.716 84.5924 109.6 82.2204L112.752 83.1641ZM134.117 87.3483C131.502 89.1324 127.133 90.6948 123.024 91.2835C122.874 90.5474 122.434 89.3117 122.033 88.583C126.256 88.1243 130.744 86.3951 133.216 84.498L136.044 85.2559C137.864 88.8493 140.958 92.1382 144.264 94.2664C143.428 94.7879 142.542 95.5939 141.837 96.2748C138.884 93.943 135.586 90.3014 134.117 87.3483ZM127.018 93.3475L137.241 96.0869L136.707 98.0805L126.484 95.3412L127.018 93.3475ZM132.106 89.1949L134.981 89.9652L134.142 93.0948L131.268 92.3245L132.106 89.1949ZM120.413 101.492C123.059 102.002 127.011 102.738 130.744 103.365L130.103 105.852C126.579 105.28 122.829 104.623 120.095 104.164L120.413 101.492ZM131.723 99.5278C132.611 102.797 135.624 105.369 140.32 107.223C139.562 107.641 138.545 108.561 137.976 109.204C133.059 106.967 130.229 103.898 129.184 99.5433L131.723 99.5278ZM138.686 100.897L140.255 103.106C138.13 103.804 135.576 104.436 133.661 104.718L132.396 102.764C134.329 102.413 137.003 101.613 138.686 100.897ZM127.919 89.9861L139.997 93.2224L137.642 102.008L125.565 98.7722L126.142 96.6162L135.415 99.1009L136.614 94.6267L127.341 92.142L127.919 89.9861ZM126.203 89.5264L128.962 90.2656L125.496 103.201L122.656 102.763L126.203 89.5264ZM159.76 106.966L160.642 103.674L168.06 105.662L167.178 108.953L159.76 106.966ZM191.596 107.421L204.114 110.775L203.419 113.372L190.9 110.017L191.596 107.421ZM186.42 111.625L206.634 117.041L205.926 119.684L185.711 114.267L186.42 111.625ZM196.011 110.045L198.978 110.84L196.158 121.365C195.742 122.918 195.179 123.537 193.931 123.65C192.7 123.793 191.135 123.423 189.071 122.87C189.126 122.015 188.876 120.631 188.634 119.771C190.123 120.245 191.908 120.723 192.424 120.836C192.917 120.944 193.104 120.894 193.21 120.5L196.011 110.045ZM198.167 102.001L201.134 102.796L200.016 106.969L197.048 106.174L198.167 102.001ZM189.056 101.97L209.178 107.362L207.594 113.273L204.697 112.497L205.591 109.158L191.102 105.276L190.208 108.614L187.472 107.881L189.056 101.97ZM212.677 115.355L228.464 119.586L225.01 132.475L222.159 131.711L224.923 121.395L214.699 118.655L211.935 128.972L209.223 128.245L212.677 115.355ZM219.858 114.149L222.639 114.894L218.912 128.804L216.131 128.058L219.858 114.149ZM212.609 120.431L226.101 124.046L225.473 126.387L211.981 122.772L212.609 120.431ZM211.331 125.107L224.869 128.735L224.18 131.308L210.641 127.681L211.331 125.107ZM221.349 108.213L224.316 109.008L223.186 113.227L220.218 112.432L221.349 108.213ZM212.45 108.412L232.062 113.667L230.522 119.416L227.647 118.646L228.504 115.447L214.502 111.695L213.645 114.894L210.909 114.161L212.45 108.412ZM241.645 125.751L244.45 126.503L243.785 128.983L240.98 128.232L241.645 125.751ZM241.016 127.819L242.924 129.324C240.034 130.836 235.723 131.345 231.689 131.01C231.549 130.326 231.119 129.242 230.746 128.595C234.562 129.096 238.681 128.932 241.016 127.819ZM244.137 128.506C244.567 132.373 247.009 135.313 251.731 137.349C251.061 137.716 250.139 138.562 249.634 139.147C244.552 136.693 242.228 133.312 241.735 128.384L244.137 128.506ZM249.917 131.322L251.496 133.311C249.769 133.916 247.712 134.359 246.136 134.583L244.834 132.768C246.392 132.514 248.575 131.882 249.917 131.322ZM233.087 132.005C235.595 132.379 239.406 132.903 243.037 133.355L242.552 135.535C239.129 135.14 235.522 134.695 232.878 134.36L233.087 132.005ZM232.252 124.551L253.185 130.16L252.601 132.339L231.668 126.73L232.252 124.551ZM247.928 116.304L250.409 116.968L248.328 124.734L245.847 124.07L247.928 116.304ZM253.135 116.904L255.661 117.581L253.171 126.877C252.847 128.082 252.46 128.6 251.533 128.724C250.605 128.848 249.463 128.567 247.84 128.132C247.898 127.452 247.776 126.425 247.619 125.712C248.65 126.038 249.785 126.342 250.116 126.406C250.464 126.499 250.582 126.431 250.656 126.153L253.135 116.904ZM240.364 113.283L242.752 113.923L239.541 125.908L237.153 125.268L240.364 113.283ZM242.768 121.282L244.994 121.878L244.286 124.521C244.049 125.402 243.799 125.782 243.121 125.898C242.467 126.021 241.725 125.823 240.729 125.555C240.755 124.991 240.599 124.278 240.485 123.776C241.012 123.942 241.545 124.085 241.737 124.111C241.922 124.161 242.004 124.133 242.054 123.948L242.768 121.282ZM234.678 119.114L243.695 121.53L243.242 123.222L236.334 121.371L235.557 124.269L233.448 123.704L234.678 119.114ZM234.441 116.193L246.079 119.311L245.582 121.166L233.944 118.048L234.441 116.193ZM237.712 114.187L246.174 116.455L245.701 118.216L236.521 115.757L237.712 114.187ZM237.362 112.528L239.271 113.562C238.405 114.845 237.207 116.164 236.188 116.91C235.834 116.467 235.084 115.744 234.642 115.352C235.66 114.706 236.651 113.605 237.362 112.528ZM236.001 130.401L237.824 129.349L238.947 130.072L237.742 134.57L235.076 133.855L236.001 130.401ZM264.213 123.5L263.374 126.629L271.534 128.816L272.373 125.686L264.213 123.5ZM262.232 120.136L275.933 123.807L273.678 132.222L259.977 128.551L262.232 120.136ZM256.279 129.648L265.135 132.021L262.364 142.36L259.583 141.614L261.645 133.918L258.191 132.992L256.091 140.828L253.472 140.126L256.279 129.648ZM267.105 132.549L276.285 135.008L273.509 145.371L270.704 144.619L272.772 136.899L269.063 135.906L266.964 143.741L264.298 143.027L267.105 132.549ZM255.656 136.612L261.729 138.239L261.015 140.905L254.941 139.278L255.656 136.612ZM266.598 139.543L273.089 141.283L272.374 143.949L265.883 142.209L266.598 139.543Z"/>
</mask>
<path d="M52.491 72.8066L73.2623 78.3722L72.5231 81.1309L51.7518 75.5653L52.491 72.8066ZM55.764 67.5464L73.1043 72.1928L72.3651 74.9514L55.0248 70.3051L55.764 67.5464ZM63.7895 65.9699L66.7336 66.7588L60.9009 88.5269L57.9567 87.738L63.7895 65.9699ZM60.408 76.6423L62.5519 78.2852C59.3387 81.3748 54.8216 83.7673 50.6494 84.6868C50.3721 83.8671 49.743 82.5058 49.2492 81.7524C53.2355 81.1557 57.7058 79.1235 60.408 76.6423ZM64.3428 77.7215C65.4192 81.2152 68.2745 85.2103 71.4114 87.6907C70.6132 88.0731 69.3816 88.9606 68.7192 89.5782C65.6353 86.7145 63.0077 82.3331 61.7637 78.074L64.3428 77.7215ZM75.3552 79.9269L96.196 85.5112L95.4817 88.1771L74.6409 82.5928L75.3552 79.9269ZM78.4822 72.6151L97.3062 77.6589L96.598 80.3017L77.7741 75.2578L78.4822 72.6151ZM87.0011 72.1646L89.9684 72.9597L84.1357 94.7278L81.1683 93.9327L87.0011 72.1646ZM92.5366 79.1389L95.2277 80.7793C93.9414 82.1491 92.5731 83.5465 91.5517 84.391L89.352 82.9568C90.3874 81.967 91.7297 80.3886 92.5366 79.1389ZM79.0788 76.6013L81.8078 76.3387C82.3301 77.8203 82.7112 79.7363 82.7082 80.9529L79.7627 81.2818C79.8291 80.1069 79.5129 78.1339 79.0788 76.6013ZM83.531 83.2605L85.5374 84.7672C82.3768 87.8461 77.8891 90.2215 73.782 91.0839C73.5216 90.2936 72.9095 88.9617 72.4326 88.2377C76.4065 87.6874 80.8581 85.7247 83.531 83.2605ZM87.4827 84.3691C88.5484 87.8102 91.3698 91.7465 94.5129 94.2037C93.7147 94.5862 92.548 95.4165 91.915 96.0171C88.7893 93.2167 86.1957 88.8942 84.9918 84.6707L87.4827 84.3691ZM112.752 83.1641C111.793 85.4417 110.603 88.0298 109.059 90.5479C106.413 94.858 103.649 97.1984 101.122 96.5213C98.5258 95.8256 97.1571 92.4027 98.2069 88.4849C99.6356 83.153 105.525 79.8115 111.529 81.4203C117.255 82.9546 119.827 87.9172 118.466 92.9941C117.162 97.8623 113.246 100.515 107.161 99.854L106.133 96.6464C107.068 96.7727 107.748 96.8307 108.411 96.8593C111.548 96.9296 114.431 95.4412 115.344 92.0334C116.32 88.3938 114.744 85.1886 110.733 84.114C105.818 82.7971 102.055 86.0871 101.272 89.0081C100.645 91.3495 101.267 92.7339 102.148 92.9699C103.145 93.237 104.424 91.9894 106.236 89.1207C107.492 87.1217 108.716 84.5924 109.6 82.2204L112.752 83.1641ZM134.117 87.3483C131.502 89.1324 127.133 90.6948 123.024 91.2835C122.874 90.5474 122.434 89.3117 122.033 88.583C126.256 88.1243 130.744 86.3951 133.216 84.498L136.044 85.2559C137.864 88.8493 140.958 92.1382 144.264 94.2664C143.428 94.7879 142.542 95.5939 141.837 96.2748C138.884 93.943 135.586 90.3014 134.117 87.3483ZM127.018 93.3475L137.241 96.0869L136.707 98.0805L126.484 95.3412L127.018 93.3475ZM132.106 89.1949L134.981 89.9652L134.142 93.0948L131.268 92.3245L132.106 89.1949ZM120.413 101.492C123.059 102.002 127.011 102.738 130.744 103.365L130.103 105.852C126.579 105.28 122.829 104.623 120.095 104.164L120.413 101.492ZM131.723 99.5278C132.611 102.797 135.624 105.369 140.32 107.223C139.562 107.641 138.545 108.561 137.976 109.204C133.059 106.967 130.229 103.898 129.184 99.5433L131.723 99.5278ZM138.686 100.897L140.255 103.106C138.13 103.804 135.576 104.436 133.661 104.718L132.396 102.764C134.329 102.413 137.003 101.613 138.686 100.897ZM127.919 89.9861L139.997 93.2224L137.642 102.008L125.565 98.7722L126.142 96.6162L135.415 99.1009L136.614 94.6267L127.341 92.142L127.919 89.9861ZM126.203 89.5264L128.962 90.2656L125.496 103.201L122.656 102.763L126.203 89.5264ZM159.76 106.966L160.642 103.674L168.06 105.662L167.178 108.953L159.76 106.966ZM191.596 107.421L204.114 110.775L203.419 113.372L190.9 110.017L191.596 107.421ZM186.42 111.625L206.634 117.041L205.926 119.684L185.711 114.267L186.42 111.625ZM196.011 110.045L198.978 110.84L196.158 121.365C195.742 122.918 195.179 123.537 193.931 123.65C192.7 123.793 191.135 123.423 189.071 122.87C189.126 122.015 188.876 120.631 188.634 119.771C190.123 120.245 191.908 120.723 192.424 120.836C192.917 120.944 193.104 120.894 193.21 120.5L196.011 110.045ZM198.167 102.001L201.134 102.796L200.016 106.969L197.048 106.174L198.167 102.001ZM189.056 101.97L209.178 107.362L207.594 113.273L204.697 112.497L205.591 109.158L191.102 105.276L190.208 108.614L187.472 107.881L189.056 101.97ZM212.677 115.355L228.464 119.586L225.01 132.475L222.159 131.711L224.923 121.395L214.699 118.655L211.935 128.972L209.223 128.245L212.677 115.355ZM219.858 114.149L222.639 114.894L218.912 128.804L216.131 128.058L219.858 114.149ZM212.609 120.431L226.101 124.046L225.473 126.387L211.981 122.772L212.609 120.431ZM211.331 125.107L224.869 128.735L224.18 131.308L210.641 127.681L211.331 125.107ZM221.349 108.213L224.316 109.008L223.186 113.227L220.218 112.432L221.349 108.213ZM212.45 108.412L232.062 113.667L230.522 119.416L227.647 118.646L228.504 115.447L214.502 111.695L213.645 114.894L210.909 114.161L212.45 108.412ZM241.645 125.751L244.45 126.503L243.785 128.983L240.98 128.232L241.645 125.751ZM241.016 127.819L242.924 129.324C240.034 130.836 235.723 131.345 231.689 131.01C231.549 130.326 231.119 129.242 230.746 128.595C234.562 129.096 238.681 128.932 241.016 127.819ZM244.137 128.506C244.567 132.373 247.009 135.313 251.731 137.349C251.061 137.716 250.139 138.562 249.634 139.147C244.552 136.693 242.228 133.312 241.735 128.384L244.137 128.506ZM249.917 131.322L251.496 133.311C249.769 133.916 247.712 134.359 246.136 134.583L244.834 132.768C246.392 132.514 248.575 131.882 249.917 131.322ZM233.087 132.005C235.595 132.379 239.406 132.903 243.037 133.355L242.552 135.535C239.129 135.14 235.522 134.695 232.878 134.36L233.087 132.005ZM232.252 124.551L253.185 130.16L252.601 132.339L231.668 126.73L232.252 124.551ZM247.928 116.304L250.409 116.968L248.328 124.734L245.847 124.07L247.928 116.304ZM253.135 116.904L255.661 117.581L253.171 126.877C252.847 128.082 252.46 128.6 251.533 128.724C250.605 128.848 249.463 128.567 247.84 128.132C247.898 127.452 247.776 126.425 247.619 125.712C248.65 126.038 249.785 126.342 250.116 126.406C250.464 126.499 250.582 126.431 250.656 126.153L253.135 116.904ZM240.364 113.283L242.752 113.923L239.541 125.908L237.153 125.268L240.364 113.283ZM242.768 121.282L244.994 121.878L244.286 124.521C244.049 125.402 243.799 125.782 243.121 125.898C242.467 126.021 241.725 125.823 240.729 125.555C240.755 124.991 240.599 124.278 240.485 123.776C241.012 123.942 241.545 124.085 241.737 124.111C241.922 124.161 242.004 124.133 242.054 123.948L242.768 121.282ZM234.678 119.114L243.695 121.53L243.242 123.222L236.334 121.371L235.557 124.269L233.448 123.704L234.678 119.114ZM234.441 116.193L246.079 119.311L245.582 121.166L233.944 118.048L234.441 116.193ZM237.712 114.187L246.174 116.455L245.701 118.216L236.521 115.757L237.712 114.187ZM237.362 112.528L239.271 113.562C238.405 114.845 237.207 116.164 236.188 116.91C235.834 116.467 235.084 115.744 234.642 115.352C235.66 114.706 236.651 113.605 237.362 112.528ZM236.001 130.401L237.824 129.349L238.947 130.072L237.742 134.57L235.076 133.855L236.001 130.401ZM264.213 123.5L263.374 126.629L271.534 128.816L272.373 125.686L264.213 123.5ZM262.232 120.136L275.933 123.807L273.678 132.222L259.977 128.551L262.232 120.136ZM256.279 129.648L265.135 132.021L262.364 142.36L259.583 141.614L261.645 133.918L258.191 132.992L256.091 140.828L253.472 140.126L256.279 129.648ZM267.105 132.549L276.285 135.008L273.509 145.371L270.704 144.619L272.772 136.899L269.063 135.906L266.964 143.741L264.298 143.027L267.105 132.549ZM255.656 136.612L261.729 138.239L261.015 140.905L254.941 139.278L255.656 136.612ZM266.598 139.543L273.089 141.283L272.374 143.949L265.883 142.209L266.598 139.543Z" fill="white"/>
<path d="M52.491 72.8066L52.7498 71.8407L51.7839 71.5818L51.5251 72.5478L52.491 72.8066ZM73.2623 78.3722L74.2282 78.631L74.487 77.6651L73.5211 77.4063L73.2623 78.3722ZM72.5231 81.1309L72.2643 82.0968L73.2302 82.3557L73.489 81.3897L72.5231 81.1309ZM51.7518 75.5653L50.7859 75.3064L50.5271 76.2724L51.493 76.5312L51.7518 75.5653ZM55.764 67.5464L56.0228 66.5805L55.0568 66.3217L54.798 67.2876L55.764 67.5464ZM73.1043 72.1928L74.0702 72.4516L74.329 71.4857L73.3631 71.2268L73.1043 72.1928ZM72.3651 74.9514L72.1062 75.9174L73.0722 76.1762L73.331 75.2103L72.3651 74.9514ZM55.0248 70.3051L54.0588 70.0463L53.8 71.0122L54.7659 71.2711L55.0248 70.3051ZM63.7895 65.9699L64.0483 65.004L63.0824 64.7451L62.8235 65.7111L63.7895 65.9699ZM66.7336 66.7588L67.6995 67.0176L67.9583 66.0517L66.9924 65.7928L66.7336 66.7588ZM60.9009 88.5269L60.642 89.4928L61.608 89.7516L61.8668 88.7857L60.9009 88.5269ZM57.9567 87.738L56.9908 87.4792L56.732 88.4451L57.6979 88.7039L57.9567 87.738ZM60.408 76.6423L61.0163 75.8486L60.35 75.338L59.7317 75.9057L60.408 76.6423ZM62.5519 78.2852L63.245 79.006L64.0839 78.1993L63.1601 77.4915L62.5519 78.2852ZM50.6494 84.6868L49.7022 85.0072L49.9894 85.8562L50.8647 85.6633L50.6494 84.6868ZM49.2492 81.7524L49.1012 80.7634L47.5569 80.9945L48.4128 82.3005L49.2492 81.7524ZM64.3428 77.7215L65.2984 77.4271L65.0485 76.6158L64.2074 76.7307L64.3428 77.7215ZM71.4114 87.6907L71.8435 88.5925L73.2886 87.9001L72.0317 86.9063L71.4114 87.6907ZM68.7192 89.5782L68.0387 90.311L68.7205 90.9441L69.4011 90.3096L68.7192 89.5782ZM61.7637 78.074L61.6282 77.0832L60.4784 77.2404L60.8038 78.3544L61.7637 78.074ZM52.2322 73.7725L73.0035 79.3381L73.5211 77.4063L52.7498 71.8407L52.2322 73.7725ZM72.2964 78.1134L71.5572 80.8721L73.489 81.3897L74.2282 78.631L72.2964 78.1134ZM72.7819 80.165L52.0106 74.5993L51.493 76.5312L72.2643 82.0968L72.7819 80.165ZM52.7177 75.8241L53.4569 73.0654L51.5251 72.5478L50.7859 75.3064L52.7177 75.8241ZM55.5051 68.5124L72.8454 73.1587L73.3631 71.2268L56.0228 66.5805L55.5051 68.5124ZM72.1383 71.9339L71.3991 74.6926L73.331 75.2103L74.0702 72.4516L72.1383 71.9339ZM72.6239 73.9855L55.2836 69.3392L54.7659 71.2711L72.1062 75.9174L72.6239 73.9855ZM55.9907 70.5639L56.7299 67.8053L54.798 67.2876L54.0588 70.0463L55.9907 70.5639ZM63.5306 66.9358L66.4748 67.7247L66.9924 65.7928L64.0483 65.004L63.5306 66.9358ZM65.7677 66.4999L59.9349 88.268L61.8668 88.7857L67.6995 67.0176L65.7677 66.4999ZM61.1597 87.5609L58.2155 86.7721L57.6979 88.7039L60.642 89.4928L61.1597 87.5609ZM58.9226 87.9968L64.7554 66.2287L62.8235 65.7111L56.9908 87.4792L58.9226 87.9968ZM59.7998 77.4361L61.9436 79.0789L63.1601 77.4915L61.0163 75.8486L59.7998 77.4361ZM61.8587 77.5644C58.778 80.5267 54.4261 82.8304 50.4342 83.7102L50.8647 85.6633C55.2171 84.7041 59.8994 82.223 63.245 79.006L61.8587 77.5644ZM51.5967 84.3663C51.2976 83.4821 50.6342 82.0413 50.0856 81.2042L48.4128 82.3005C48.8519 82.9704 49.4467 84.252 49.7022 85.0072L51.5967 84.3663ZM49.3972 82.7413C53.5567 82.1188 58.2181 80.0107 61.0843 77.3789L59.7317 75.9057C57.1934 78.2363 52.9142 80.1927 49.1012 80.7634L49.3972 82.7413ZM63.3871 78.016C64.5302 81.7259 67.5152 85.8847 70.7912 88.4751L72.0317 86.9063C69.0338 84.5359 66.3083 80.7045 65.2984 77.4271L63.3871 78.016ZM70.9793 86.7889C70.0702 87.2245 68.7562 88.1765 68.0372 88.8468L69.4011 90.3096C70.007 89.7447 71.1562 88.9218 71.8435 88.5925L70.9793 86.7889ZM69.3996 88.8454C66.4584 86.1142 63.9211 81.8937 62.7235 77.7936L60.8038 78.3544C62.0943 82.7726 64.8121 87.3147 68.0387 90.311L69.3996 88.8454ZM61.8991 79.0648L64.4782 78.7123L64.2074 76.7307L61.6282 77.0832L61.8991 79.0648ZM75.3552 79.9269L75.614 78.961L74.6481 78.7021L74.3893 79.6681L75.3552 79.9269ZM96.196 85.5112L97.162 85.77L97.4208 84.8041L96.4549 84.5452L96.196 85.5112ZM95.4817 88.1771L95.2229 89.1431L96.1888 89.4019L96.4476 88.4359L95.4817 88.1771ZM74.6409 82.5928L73.6749 82.334L73.4161 83.3L74.3821 83.5588L74.6409 82.5928ZM78.4822 72.6151L78.741 71.6491L77.7751 71.3903L77.5163 72.3562L78.4822 72.6151ZM97.3062 77.6589L98.2721 77.9178L98.5309 76.9518L97.565 76.693L97.3062 77.6589ZM96.598 80.3017L96.3392 81.2676L97.3051 81.5265L97.564 80.5605L96.598 80.3017ZM77.7741 75.2578L76.8081 74.999L76.5493 75.9649L77.5153 76.2238L77.7741 75.2578ZM87.0011 72.1646L87.2599 71.1986L86.294 70.9398L86.0352 71.9057L87.0011 72.1646ZM89.9684 72.9597L90.9343 73.2185L91.1931 72.2525L90.2272 71.9937L89.9684 72.9597ZM84.1357 94.7278L83.8768 95.6937L84.8428 95.9525L85.1016 94.9866L84.1357 94.7278ZM81.1683 93.9327L80.2024 93.6738L79.9436 94.6398L80.9095 94.8986L81.1683 93.9327ZM92.5366 79.1389L93.0571 78.285L92.2251 77.7779L91.6965 78.5965L92.5366 79.1389ZM95.2277 80.7793L95.9567 81.4639L96.7996 80.5663L95.7482 79.9254L95.2277 80.7793ZM91.5517 84.391L91.0056 85.2286L91.6219 85.6305L92.1889 85.1617L91.5517 84.391ZM89.352 82.9568L88.661 82.2339L87.7491 83.1055L88.8058 83.7944L89.352 82.9568ZM79.0788 76.6013L78.983 75.6059L77.79 75.7207L78.1167 76.8739L79.0788 76.6013ZM81.8078 76.3387L82.7509 76.0062L82.4908 75.2683L81.712 75.3433L81.8078 76.3387ZM82.7082 80.9529L82.8192 81.9468L83.706 81.8478L83.7082 80.9554L82.7082 80.9529ZM79.7627 81.2818L78.7643 81.2254L78.6976 82.4069L79.8737 82.2756L79.7627 81.2818ZM83.531 83.2605L84.1315 82.4609L83.4655 81.9608L82.8532 82.5253L83.531 83.2605ZM85.5374 84.7672L86.2352 85.4835L87.0716 84.6687L86.1379 83.9675L85.5374 84.7672ZM73.782 91.0839L72.8322 91.3967L73.112 92.2463L73.9875 92.0625L73.782 91.0839ZM72.4326 88.2377L72.2955 87.2471L70.7261 87.4644L71.5975 88.7876L72.4326 88.2377ZM87.4827 84.3691L88.438 84.0732L88.1911 83.276L87.3625 83.3763L87.4827 84.3691ZM94.5129 94.2037L94.945 95.1056L96.3989 94.4089L95.1288 93.4159L94.5129 94.2037ZM91.915 96.0171L91.2477 96.7619L91.9344 97.3772L92.6033 96.7426L91.915 96.0171ZM84.9918 84.6707L84.8716 83.6779L83.7091 83.8187L84.0301 84.9448L84.9918 84.6707ZM75.0964 80.8928L95.9372 86.4771L96.4549 84.5452L75.614 78.961L75.0964 80.8928ZM95.2301 85.2523L94.5158 87.9183L96.4476 88.4359L97.162 85.77L95.2301 85.2523ZM95.7405 87.2112L74.8997 81.6269L74.3821 83.5588L95.2229 89.1431L95.7405 87.2112ZM75.6068 82.8517L76.3211 80.1857L74.3893 79.6681L73.6749 82.334L75.6068 82.8517ZM78.2234 73.581L97.0473 78.6249L97.565 76.693L78.741 71.6491L78.2234 73.581ZM96.3402 77.4001L95.6321 80.0429L97.564 80.5605L98.2721 77.9178L96.3402 77.4001ZM96.8569 79.3358L78.0329 74.2919L77.5153 76.2238L96.3392 81.2676L96.8569 79.3358ZM78.74 75.5167L79.4481 72.8739L77.5163 72.3562L76.8081 74.999L78.74 75.5167ZM86.7423 73.1305L89.7096 73.9256L90.2272 71.9937L87.2599 71.1986L86.7423 73.1305ZM89.0025 72.7008L83.1697 94.4689L85.1016 94.9866L90.9343 73.2185L89.0025 72.7008ZM84.3945 93.7618L81.4271 92.9667L80.9095 94.8986L83.8768 95.6937L84.3945 93.7618ZM82.1343 94.1915L87.967 72.4234L86.0352 71.9057L80.2024 93.6738L82.1343 94.1915ZM92.0161 79.9928L94.7072 81.6332L95.7482 79.9254L93.0571 78.285L92.0161 79.9928ZM94.4988 80.0948C93.2098 81.4673 91.881 82.8212 90.9145 83.6203L92.1889 85.1617C93.2651 84.2719 94.673 82.8308 95.9567 81.4639L94.4988 80.0948ZM92.0979 83.5533L89.8981 82.1191L88.8058 83.7944L91.0056 85.2286L92.0979 83.5533ZM90.0429 83.6796C91.1276 82.6428 92.5221 81.0049 93.3767 79.6814L91.6965 78.5965C90.9372 79.7724 89.6472 81.2912 88.661 82.2339L90.0429 83.6796ZM79.1746 77.5967L81.9036 77.3341L81.712 75.3433L78.983 75.6059L79.1746 77.5967ZM80.8647 76.6711C81.3614 78.0803 81.7108 79.8799 81.7082 80.9505L83.7082 80.9554C83.7116 79.5926 83.2988 77.5604 82.7509 76.0062L80.8647 76.6711ZM82.5972 79.9591L79.6518 80.288L79.8737 82.2756L82.8192 81.9468L82.5972 79.9591ZM80.7611 81.3382C80.8364 80.0055 80.4892 77.911 80.041 76.3288L78.1167 76.8739C78.5367 78.3568 78.8217 80.2083 78.7643 81.2254L80.7611 81.3382ZM82.9305 84.0602L84.9369 85.5668L86.1379 83.9675L84.1315 82.4609L82.9305 84.0602ZM84.8396 84.0509C81.8132 86.999 77.4956 89.2823 73.5765 90.1052L73.9875 92.0625C78.2826 91.1607 82.9404 88.6931 86.2352 85.4835L84.8396 84.0509ZM74.7318 90.771C74.4488 89.9121 73.8012 88.4976 73.2678 87.6877L71.5975 88.7876C72.0178 89.4259 72.5945 90.6751 72.8322 91.3967L74.7318 90.771ZM72.5698 89.2282C76.715 88.6542 81.3647 86.6178 84.2088 83.9957L82.8532 82.5253C80.3515 84.8316 76.0979 86.7206 72.2955 87.2471L72.5698 89.2282ZM86.5275 84.6649C87.6604 88.323 90.6127 92.4239 93.897 94.9916L95.1288 93.4159C92.1269 91.0691 89.4364 87.2973 88.438 84.0732L86.5275 84.6649ZM94.0808 93.3019C93.1776 93.7347 91.9261 94.6282 91.2267 95.2917L92.6033 96.7426C93.17 96.2049 94.2518 95.4377 94.945 95.1056L94.0808 93.3019ZM92.5823 95.2723C89.6105 92.6098 87.1108 88.4564 85.9535 84.3965L84.0301 84.9448C85.2806 89.3319 87.9682 93.8237 91.2477 96.7619L92.5823 95.2723ZM85.112 85.6634L87.6029 85.3618L87.3625 83.3763L84.8716 83.6779L85.112 85.6634ZM112.752 83.1641L113.673 83.5519L114.105 82.5256L113.039 82.2061L112.752 83.1641ZM109.059 90.5479L109.911 91.071L109.911 91.0707L109.059 90.5479ZM107.161 99.854L106.209 100.159L106.408 100.778L107.053 100.848L107.161 99.854ZM106.133 96.6464L106.266 95.6554L104.697 95.4433L105.18 96.9518L106.133 96.6464ZM108.411 96.8593L108.368 97.8584L108.378 97.8589L108.389 97.8591L108.411 96.8593ZM106.236 89.1207L107.081 89.6548L107.083 89.6527L106.236 89.1207ZM109.6 82.2204L109.887 81.2624L108.99 80.9938L108.663 81.8711L109.6 82.2204ZM111.83 82.7763C110.88 85.0333 109.713 87.569 108.206 90.0251L109.911 91.0707C111.494 88.4906 112.707 85.8502 113.673 83.5519L111.83 82.7763ZM108.206 90.0248C106.913 92.1312 105.635 93.6804 104.432 94.6151C103.234 95.5463 102.231 95.7831 101.381 95.5554L100.863 97.4873C102.541 97.9367 104.183 97.3418 105.659 96.1945C107.132 95.0507 108.558 93.2747 109.911 91.071L108.206 90.0248ZM101.381 95.5554C100.465 95.31 99.6844 94.5661 99.2339 93.3612C98.7826 92.154 98.6928 90.5351 99.1728 88.7438L97.241 88.2261C96.6712 90.3526 96.7409 92.404 97.3606 94.0616C97.9811 95.7215 99.1828 97.0369 100.863 97.4873L101.381 95.5554ZM99.1728 88.7438C100.445 83.9942 105.75 80.9069 111.27 82.3862L111.788 80.4544C105.301 78.7161 98.8257 82.3119 97.241 88.2261L99.1728 88.7438ZM111.27 82.3862C113.901 83.0911 115.744 84.5616 116.788 86.3772C117.834 88.1966 118.118 90.4314 117.5 92.7353L119.432 93.2529C120.175 90.4799 119.853 87.6949 118.522 85.3803C117.189 83.0617 114.883 81.2838 111.788 80.4544L111.27 82.3862ZM117.5 92.7353C116.903 94.963 115.733 96.6141 114.076 97.6496C112.41 98.691 110.149 99.1728 107.27 98.8598L107.053 100.848C110.258 101.196 112.997 100.682 115.136 99.3456C117.285 98.0028 118.725 95.8934 119.432 93.2529L117.5 92.7353ZM108.114 99.5485L107.085 96.3409L105.18 96.9518L106.209 100.159L108.114 99.5485ZM105.999 97.6374C106.96 97.7673 107.671 97.8283 108.368 97.8584L108.454 95.8603C107.825 95.8331 107.175 95.7781 106.266 95.6554L105.999 97.6374ZM108.389 97.8591C111.859 97.9368 115.248 96.2572 116.31 92.2922L114.378 91.7746C113.615 94.6251 111.236 95.9224 108.434 95.8596L108.389 97.8591ZM116.31 92.2922C116.852 90.2719 116.705 88.285 115.782 86.6257C114.856 84.9597 113.212 83.7431 110.992 83.1481L110.474 85.0799C112.264 85.5596 113.414 86.4828 114.034 87.5979C114.658 88.7197 114.812 90.1553 114.378 91.7746L116.31 92.2922ZM110.992 83.1481C105.489 81.6736 101.216 85.3513 100.306 88.7492L102.238 89.2669C102.893 86.8229 106.148 83.9207 110.474 85.0799L110.992 83.1481ZM100.306 88.7492C99.9614 90.0352 99.9318 91.1575 100.182 92.0485C100.43 92.933 101 93.6974 101.89 93.9358L102.407 92.004C102.401 92.0024 102.365 91.9921 102.308 91.9267C102.249 91.8581 102.169 91.7285 102.107 91.5085C101.982 91.0629 101.955 90.3223 102.238 89.2669L100.306 88.7492ZM101.89 93.9358C102.924 94.2129 103.851 93.6343 104.575 92.9463C105.338 92.2212 106.164 91.1064 107.081 89.6548L105.39 88.5866C104.495 90.0036 103.776 90.947 103.198 91.4962C102.91 91.769 102.698 91.9054 102.557 91.9662C102.491 91.9948 102.45 92.0024 102.431 92.0044C102.414 92.0062 102.409 92.0044 102.407 92.004L101.89 93.9358ZM107.083 89.6527C108.379 87.5895 109.633 84.9977 110.538 82.5696L108.663 81.8711C107.8 84.187 106.605 86.6539 105.389 88.5886L107.083 89.6527ZM109.314 83.1783L112.465 84.1221L113.039 82.2061L109.887 81.2624L109.314 83.1783ZM134.117 87.3483L135.012 86.9028L134.501 85.8757L133.553 86.5223L134.117 87.3483ZM123.024 91.2835L122.044 91.484L122.233 92.407L123.166 92.2734L123.024 91.2835ZM122.033 88.583L121.925 87.5889L120.434 87.7509L121.157 89.0653L122.033 88.583ZM133.216 84.498L133.474 83.5321L132.998 83.4044L132.607 83.7048L133.216 84.498ZM136.044 85.2559L136.936 84.804L136.734 84.4055L136.303 84.2899L136.044 85.2559ZM144.264 94.2664L144.793 95.1147L146.132 94.2794L144.805 93.4255L144.264 94.2664ZM141.837 96.2748L141.218 97.0596L141.904 97.6015L142.533 96.9937L141.837 96.2748ZM127.018 93.3475L127.277 92.3816L126.311 92.1228L126.052 93.0887L127.018 93.3475ZM137.241 96.0869L138.207 96.3457L138.466 95.3797L137.5 95.1209L137.241 96.0869ZM136.707 98.0805L136.448 99.0465L137.414 99.3053L137.673 98.3393L136.707 98.0805ZM126.484 95.3412L125.518 95.0824L125.259 96.0483L126.225 96.3071L126.484 95.3412ZM132.106 89.1949L132.365 88.229L131.399 87.9702L131.14 88.9361L132.106 89.1949ZM134.981 89.9652L135.947 90.224L136.206 89.2581L135.24 88.9992L134.981 89.9652ZM134.142 93.0948L133.883 94.0607L134.849 94.3195L135.108 93.3536L134.142 93.0948ZM131.268 92.3245L130.302 92.0657L130.043 93.0316L131.009 93.2905L131.268 92.3245ZM120.413 101.492L120.603 100.51L119.547 100.306L119.42 101.373L120.413 101.492ZM130.744 103.365L131.713 103.615L131.985 102.56L130.91 102.379L130.744 103.365ZM130.103 105.852L129.943 106.839L130.843 106.985L131.071 106.102L130.103 105.852ZM120.095 104.164L119.102 104.046L118.989 104.992L119.929 105.15L120.095 104.164ZM131.723 99.5278L132.688 99.2656L132.486 98.5231L131.717 98.5278L131.723 99.5278ZM140.32 107.223L140.803 108.099L142.663 107.073L140.687 106.293L140.32 107.223ZM137.976 109.204L137.561 110.114L138.234 110.42L138.724 109.867L137.976 109.204ZM129.184 99.5433L129.178 98.5433L127.918 98.551L128.212 99.7765L129.184 99.5433ZM138.686 100.897L139.501 100.317L139.035 99.661L138.294 99.9766L138.686 100.897ZM140.255 103.106L140.567 104.056L141.856 103.633L141.071 102.527L140.255 103.106ZM133.661 104.718L132.822 105.262L133.171 105.801L133.807 105.708L133.661 104.718ZM132.396 102.764L132.217 101.78L130.742 102.049L131.557 103.308L132.396 102.764ZM127.919 89.9861L128.178 89.0202L127.212 88.7613L126.953 89.7273L127.919 89.9861ZM139.997 93.2224L140.963 93.4812L141.221 92.5153L140.256 92.2564L139.997 93.2224ZM137.642 102.008L137.384 102.974L138.35 103.233L138.608 102.267L137.642 102.008ZM125.565 98.7722L124.599 98.5133L124.34 99.4793L125.306 99.7381L125.565 98.7722ZM126.142 96.6162L126.401 95.6503L125.435 95.3915L125.176 96.3574L126.142 96.6162ZM135.415 99.1009L135.156 100.067L136.122 100.326L136.381 99.3597L135.415 99.1009ZM136.614 94.6267L137.58 94.8855L137.839 93.9196L136.873 93.6608L136.614 94.6267ZM127.341 92.142L126.375 91.8832L126.116 92.8491L127.082 93.108L127.341 92.142ZM126.203 89.5264L126.462 88.5605L125.496 88.3017L125.237 89.2676L126.203 89.5264ZM128.962 90.2656L129.928 90.5244L130.187 89.5585L129.221 89.2997L128.962 90.2656ZM125.496 103.201L125.343 104.19L126.23 104.326L126.462 103.46L125.496 103.201ZM122.656 102.763L121.69 102.505L121.402 103.582L122.504 103.752L122.656 102.763ZM133.553 86.5223C131.095 88.1993 126.881 89.7206 122.882 90.2936L123.166 92.2734C127.384 91.6689 131.909 90.0654 134.68 88.1744L133.553 86.5223ZM124.004 91.083C123.834 90.2538 123.362 88.9223 122.909 88.1008L121.157 89.0653C121.507 89.701 121.913 90.8411 122.044 91.484L124.004 91.083ZM122.141 89.5772C126.508 89.1027 131.181 87.321 133.825 85.2913L132.607 83.7048C130.308 85.4692 126.003 87.1458 121.925 87.5889L122.141 89.5772ZM132.957 85.464L135.785 86.2218L136.303 84.2899L133.474 83.5321L132.957 85.464ZM135.152 85.7077C137.058 89.4717 140.279 92.8904 143.723 95.1072L144.805 93.4255C141.637 91.3861 138.67 88.227 136.936 84.804L135.152 85.7077ZM143.734 93.4181C142.802 94.0002 141.85 94.8715 141.142 95.5559L142.533 96.9937C143.233 96.3162 144.055 95.5756 144.793 95.1147L143.734 93.4181ZM142.457 95.4899C139.576 93.215 136.395 89.6816 135.012 86.9028L133.221 87.7939C134.778 90.9212 138.193 94.671 141.218 97.0596L142.457 95.4899ZM126.759 94.3134L136.983 97.0528L137.5 95.1209L127.277 92.3816L126.759 94.3134ZM136.276 95.828L135.741 97.8217L137.673 98.3393L138.207 96.3457L136.276 95.828ZM136.966 97.1146L126.743 94.3753L126.225 96.3071L136.448 99.0465L136.966 97.1146ZM127.45 95.6L127.984 93.6063L126.052 93.0887L125.518 95.0824L127.45 95.6ZM131.847 90.1609L134.722 90.9311L135.24 88.9992L132.365 88.229L131.847 90.1609ZM134.015 89.7064L133.176 92.836L135.108 93.3536L135.947 90.224L134.015 89.7064ZM134.401 92.1288L131.526 91.3586L131.009 93.2905L133.883 94.0607L134.401 92.1288ZM132.234 92.5833L133.072 89.4537L131.14 88.9361L130.302 92.0657L132.234 92.5833ZM120.224 102.473C122.875 102.985 126.835 103.722 130.578 104.351L130.91 102.379C127.188 101.753 123.244 101.019 120.603 100.51L120.224 102.473ZM129.776 103.115L129.134 105.602L131.071 106.102L131.713 103.615L129.776 103.115ZM130.263 104.865C126.741 104.294 123.006 103.639 120.26 103.178L119.929 105.15C122.652 105.608 126.416 106.267 129.943 106.839L130.263 104.865ZM121.088 104.283L121.406 101.61L119.42 101.373L119.102 104.046L121.088 104.283ZM130.758 99.7899C131.769 103.512 135.144 106.254 139.953 108.153L140.687 106.293C136.104 104.483 133.453 102.082 132.688 99.2656L130.758 99.7899ZM139.837 106.347C138.94 106.842 137.836 107.854 137.227 108.54L138.724 109.867C139.255 109.268 140.184 108.44 140.803 108.099L139.837 106.347ZM138.39 108.294C133.682 106.152 131.113 103.296 130.157 99.3101L128.212 99.7765C129.345 104.5 132.436 107.782 137.561 110.114L138.39 108.294ZM129.19 100.543L131.729 100.528L131.717 98.5278L129.178 98.5433L129.19 100.543ZM137.871 101.476L139.44 103.685L141.071 102.527L139.501 100.317L137.871 101.476ZM139.943 102.156C137.861 102.84 135.362 103.457 133.516 103.729L133.807 105.708C135.789 105.416 138.4 104.768 140.567 104.056L139.943 102.156ZM134.501 104.175L133.235 102.221L131.557 103.308L132.822 105.262L134.501 104.175ZM132.575 103.748C134.578 103.384 137.324 102.564 139.078 101.817L138.294 99.9766C136.682 100.663 134.08 101.442 132.217 101.78L132.575 103.748ZM127.66 90.952L139.738 94.1883L140.256 92.2564L128.178 89.0202L127.66 90.952ZM139.031 92.9635L136.677 101.75L138.608 102.267L140.963 93.4812L139.031 92.9635ZM137.901 101.043L125.823 97.8062L125.306 99.7381L137.384 102.974L137.901 101.043ZM126.53 99.031L127.108 96.875L125.176 96.3574L124.599 98.5133L126.53 99.031ZM125.883 97.5821L135.156 100.067L135.674 98.1349L126.401 95.6503L125.883 97.5821ZM136.381 99.3597L137.58 94.8855L135.648 94.3679L134.449 98.8421L136.381 99.3597ZM136.873 93.6608L127.6 91.1761L127.082 93.108L136.355 95.5926L136.873 93.6608ZM128.307 92.4009L128.885 90.2449L126.953 89.7273L126.375 91.8832L128.307 92.4009ZM125.944 90.4924L128.703 91.2315L129.221 89.2997L126.462 88.5605L125.944 90.4924ZM127.996 90.0068L124.53 102.942L126.462 103.46L129.928 90.5244L127.996 90.0068ZM125.648 102.213L122.809 101.775L122.504 103.752L125.343 104.19L125.648 102.213ZM123.622 103.022L127.169 89.7853L125.237 89.2676L121.69 102.505L123.622 103.022ZM159.76 106.966L158.794 106.707L158.535 107.673L159.501 107.932L159.76 106.966ZM160.642 103.674L160.901 102.708L159.935 102.449L159.676 103.415L160.642 103.674ZM168.06 105.662L169.026 105.92L169.285 104.954L168.319 104.696L168.06 105.662ZM167.178 108.953L166.919 109.919L167.885 110.178L168.144 109.212L167.178 108.953ZM160.726 107.225L161.608 103.933L159.676 103.415L158.794 106.707L160.726 107.225ZM160.383 104.64L167.801 106.627L168.319 104.696L160.901 102.708L160.383 104.64ZM167.094 105.403L166.212 108.695L168.144 109.212L169.026 105.92L167.094 105.403ZM167.437 107.988L160.019 106L159.501 107.932L166.919 109.919L167.437 107.988ZM191.596 107.421L191.855 106.455L190.889 106.196L190.63 107.162L191.596 107.421ZM204.114 110.775L205.08 111.034L205.339 110.068L204.373 109.809L204.114 110.775ZM203.419 113.372L203.16 114.338L204.126 114.596L204.385 113.631L203.419 113.372ZM190.9 110.017L189.934 109.759L189.675 110.725L190.641 110.983L190.9 110.017ZM186.42 111.625L186.678 110.659L185.712 110.4L185.454 111.366L186.42 111.625ZM206.634 117.041L207.6 117.3L207.859 116.334L206.893 116.075L206.634 117.041ZM205.926 119.684L205.668 120.65L206.633 120.909L206.892 119.943L205.926 119.684ZM185.711 114.267L184.746 114.008L184.487 114.974L185.453 115.233L185.711 114.267ZM196.011 110.045L196.27 109.079L195.304 108.82L195.045 109.786L196.011 110.045ZM198.978 110.84L199.944 111.099L200.203 110.133L199.237 109.874L198.978 110.84ZM193.931 123.65L193.841 122.654L193.828 122.656L193.816 122.657L193.931 123.65ZM189.071 122.87L188.073 122.806L188.021 123.624L188.813 123.836L189.071 122.87ZM188.634 119.771L188.938 118.818L187.17 118.256L187.672 120.042L188.634 119.771ZM192.424 120.836L192.209 121.813L192.211 121.814L192.424 120.836ZM198.167 102.001L198.425 101.035L197.459 100.776L197.201 101.742L198.167 102.001ZM201.134 102.796L202.1 103.055L202.359 102.089L201.393 101.83L201.134 102.796ZM200.016 106.969L199.757 107.935L200.723 108.194L200.982 107.228L200.016 106.969ZM197.048 106.174L196.083 105.915L195.824 106.881L196.79 107.14L197.048 106.174ZM189.056 101.97L189.315 101.004L188.349 100.745L188.09 101.711L189.056 101.97ZM209.178 107.362L210.144 107.621L210.403 106.655L209.437 106.396L209.178 107.362ZM207.594 113.273L207.336 114.239L208.301 114.498L208.56 113.532L207.594 113.273ZM204.697 112.497L203.731 112.238L203.472 113.204L204.438 113.463L204.697 112.497ZM205.591 109.158L206.557 109.417L206.816 108.451L205.85 108.193L205.591 109.158ZM191.102 105.276L191.361 104.31L190.395 104.051L190.136 105.017L191.102 105.276ZM190.208 108.614L189.949 109.58L190.915 109.839L191.174 108.873L190.208 108.614ZM187.472 107.881L186.506 107.623L186.247 108.589L187.213 108.847L187.472 107.881ZM191.337 108.387L203.855 111.741L204.373 109.809L191.855 106.455L191.337 108.387ZM203.148 110.517L202.453 113.113L204.385 113.631L205.08 111.034L203.148 110.517ZM203.677 112.406L191.159 109.052L190.641 110.983L203.16 114.338L203.677 112.406ZM191.866 110.276L192.562 107.68L190.63 107.162L189.934 109.759L191.866 110.276ZM186.161 112.59L206.376 118.007L206.893 116.075L186.678 110.659L186.161 112.59ZM205.669 116.782L204.96 119.425L206.892 119.943L207.6 117.3L205.669 116.782ZM206.185 118.718L185.97 113.301L185.453 115.233L205.668 120.65L206.185 118.718ZM186.677 114.526L187.385 111.883L185.454 111.366L184.746 114.008L186.677 114.526ZM195.752 111.011L198.72 111.806L199.237 109.874L196.27 109.079L195.752 111.011ZM198.013 110.581L195.192 121.106L197.124 121.624L199.944 111.099L198.013 110.581ZM195.192 121.106C194.998 121.832 194.807 122.176 194.635 122.355C194.501 122.495 194.303 122.613 193.841 122.654L194.021 124.646C194.807 124.575 195.514 124.327 196.078 123.741C196.604 123.193 196.903 122.451 197.124 121.624L195.192 121.106ZM193.816 122.657C192.812 122.773 191.445 122.471 189.33 121.904L188.813 123.836C190.825 124.375 192.588 124.812 194.046 124.644L193.816 122.657ZM190.069 122.934C190.135 121.912 189.85 120.399 189.597 119.501L187.672 120.042C187.903 120.863 188.118 122.119 188.073 122.806L190.069 122.934ZM188.331 120.724C189.838 121.203 191.654 121.691 192.209 121.813L192.639 119.86C192.162 119.755 190.408 119.286 188.938 118.818L188.331 120.724ZM192.211 121.814C192.437 121.863 192.892 121.96 193.33 121.786C193.898 121.561 194.095 121.058 194.176 120.759L192.244 120.242C192.232 120.284 192.238 120.24 192.287 120.168C192.35 120.076 192.455 119.982 192.594 119.927C192.654 119.903 192.705 119.893 192.738 119.889C192.755 119.887 192.768 119.886 192.776 119.886C192.784 119.886 192.788 119.886 192.788 119.886C192.789 119.886 192.785 119.886 192.778 119.885C192.771 119.884 192.762 119.883 192.748 119.881C192.721 119.877 192.685 119.87 192.637 119.859L192.211 121.814ZM194.176 120.759L196.977 110.304L195.045 109.786L192.244 120.242L194.176 120.759ZM197.908 102.967L200.875 103.762L201.393 101.83L198.425 101.035L197.908 102.967ZM200.168 102.537L199.05 106.71L200.982 107.228L202.1 103.055L200.168 102.537ZM200.275 106.003L197.307 105.208L196.79 107.14L199.757 107.935L200.275 106.003ZM198.014 106.433L199.133 102.26L197.201 101.742L196.083 105.915L198.014 106.433ZM188.797 102.936L208.92 108.328L209.437 106.396L189.315 101.004L188.797 102.936ZM208.212 107.103L206.628 113.014L208.56 113.532L210.144 107.621L208.212 107.103ZM207.853 112.307L204.955 111.531L204.438 113.463L207.336 114.239L207.853 112.307ZM205.663 112.756L206.557 109.417L204.625 108.9L203.731 112.238L205.663 112.756ZM205.85 108.193L191.361 104.31L190.843 106.242L205.332 110.124L205.85 108.193ZM190.136 105.017L189.242 108.356L191.174 108.873L192.068 105.535L190.136 105.017ZM190.467 107.648L187.731 106.916L187.213 108.847L189.949 109.58L190.467 107.648ZM188.438 108.14L190.022 102.229L188.09 101.711L186.506 107.623L188.438 108.14ZM212.677 115.355L212.935 114.39L211.969 114.131L211.711 115.097L212.677 115.355ZM228.464 119.586L229.43 119.844L229.688 118.879L228.723 118.62L228.464 119.586ZM225.01 132.475L224.751 133.441L225.717 133.7L225.976 132.734L225.01 132.475ZM222.159 131.711L221.193 131.452L220.934 132.418L221.9 132.677L222.159 131.711ZM224.923 121.395L225.889 121.654L226.148 120.688L225.182 120.429L224.923 121.395ZM214.699 118.655L214.958 117.69L213.992 117.431L213.734 118.397L214.699 118.655ZM211.935 128.972L211.676 129.937L212.642 130.196L212.901 129.23L211.935 128.972ZM209.223 128.245L208.257 127.986L207.998 128.952L208.964 129.211L209.223 128.245ZM219.858 114.149L220.116 113.183L219.15 112.924L218.892 113.89L219.858 114.149ZM222.639 114.894L223.605 115.153L223.864 114.187L222.898 113.928L222.639 114.894ZM218.912 128.804L218.654 129.77L219.62 130.028L219.878 129.062L218.912 128.804ZM216.131 128.058L215.165 127.799L214.906 128.765L215.872 129.024L216.131 128.058ZM212.609 120.431L212.868 119.465L211.902 119.206L211.643 120.172L212.609 120.431ZM226.101 124.046L227.067 124.305L227.325 123.339L226.36 123.08L226.101 124.046ZM225.473 126.387L225.215 127.353L226.18 127.612L226.439 126.646L225.473 126.387ZM211.981 122.772L211.015 122.513L210.757 123.479L211.722 123.738L211.981 122.772ZM211.331 125.107L211.59 124.142L210.624 123.883L210.365 124.849L211.331 125.107ZM224.869 128.735L225.835 128.994L226.094 128.028L225.128 127.769L224.869 128.735ZM224.18 131.308L223.921 132.274L224.887 132.533L225.146 131.567L224.18 131.308ZM210.641 127.681L209.675 127.422L209.417 128.388L210.382 128.647L210.641 127.681ZM221.349 108.213L221.608 107.247L220.642 106.988L220.383 107.954L221.349 108.213ZM224.316 109.008L225.282 109.267L225.541 108.301L224.575 108.042L224.316 109.008ZM223.186 113.227L222.927 114.193L223.893 114.452L224.152 113.486L223.186 113.227ZM220.218 112.432L219.252 112.173L218.994 113.139L219.959 113.398L220.218 112.432ZM212.45 108.412L212.709 107.446L211.743 107.187L211.484 108.153L212.45 108.412ZM232.062 113.667L233.028 113.926L233.287 112.96L232.321 112.701L232.062 113.667ZM230.522 119.416L230.263 120.382L231.229 120.641L231.488 119.675L230.522 119.416ZM227.647 118.646L226.681 118.387L226.422 119.353L227.388 119.612L227.647 118.646ZM228.504 115.447L229.47 115.706L229.729 114.74L228.763 114.481L228.504 115.447ZM214.502 111.695L214.761 110.729L213.795 110.47L213.536 111.436L214.502 111.695ZM213.645 114.894L213.386 115.86L214.352 116.119L214.611 115.153L213.645 114.894ZM210.909 114.161L209.944 113.903L209.685 114.869L210.651 115.127L210.909 114.161ZM212.418 116.321L228.205 120.552L228.723 118.62L212.935 114.39L212.418 116.321ZM227.498 119.327L224.044 132.216L225.976 132.734L229.43 119.844L227.498 119.327ZM225.269 131.509L222.417 130.745L221.9 132.677L224.751 133.441L225.269 131.509ZM223.125 131.97L225.889 121.654L223.957 121.136L221.193 131.452L223.125 131.97ZM225.182 120.429L214.958 117.69L214.441 119.621L224.664 122.361L225.182 120.429ZM213.734 118.397L210.969 128.713L212.901 129.23L215.665 118.914L213.734 118.397ZM212.194 128.006L209.482 127.279L208.964 129.211L211.676 129.937L212.194 128.006ZM210.189 128.504L213.643 115.614L211.711 115.097L208.257 127.986L210.189 128.504ZM219.599 115.115L222.381 115.86L222.898 113.928L220.116 113.183L219.599 115.115ZM221.674 114.636L217.947 128.545L219.878 129.062L223.605 115.153L221.674 114.636ZM219.171 127.838L216.389 127.092L215.872 129.024L218.654 129.77L219.171 127.838ZM217.097 128.317L220.824 114.408L218.892 113.89L215.165 127.799L217.097 128.317ZM212.35 121.397L225.842 125.012L226.36 123.08L212.868 119.465L212.35 121.397ZM225.135 123.787L224.507 126.129L226.439 126.646L227.067 124.305L225.135 123.787ZM225.732 125.422L212.24 121.806L211.722 123.738L225.215 127.353L225.732 125.422ZM212.947 123.031L213.575 120.69L211.643 120.172L211.015 122.513L212.947 123.031ZM211.072 126.073L224.61 129.701L225.128 127.769L211.59 124.142L211.072 126.073ZM223.903 128.476L223.214 131.049L225.146 131.567L225.835 128.994L223.903 128.476ZM224.439 130.342L210.9 126.715L210.382 128.647L223.921 132.274L224.439 130.342ZM211.607 127.939L212.297 125.366L210.365 124.849L209.675 127.422L211.607 127.939ZM221.09 109.179L224.057 109.974L224.575 108.042L221.608 107.247L221.09 109.179ZM223.35 108.749L222.22 112.968L224.152 113.486L225.282 109.267L223.35 108.749ZM223.444 112.261L220.477 111.466L219.959 113.398L222.927 114.193L223.444 112.261ZM221.184 112.691L222.315 108.471L220.383 107.954L219.252 112.173L221.184 112.691ZM212.191 109.378L231.803 114.633L232.321 112.701L212.709 107.446L212.191 109.378ZM231.096 113.408L229.556 119.158L231.488 119.675L233.028 113.926L231.096 113.408ZM230.78 118.451L227.906 117.68L227.388 119.612L230.263 120.382L230.78 118.451ZM228.613 118.905L229.47 115.706L227.538 115.188L226.681 118.387L228.613 118.905ZM228.763 114.481L214.761 110.729L214.243 112.661L228.245 116.413L228.763 114.481ZM213.536 111.436L212.679 114.636L214.611 115.153L215.468 111.954L213.536 111.436ZM213.904 113.928L211.168 113.195L210.651 115.127L213.386 115.86L213.904 113.928ZM211.875 114.42L213.416 108.671L211.484 108.153L209.944 113.903L211.875 114.42ZM241.645 125.751L241.904 124.785L240.938 124.527L240.679 125.492L241.645 125.751ZM244.45 126.503L245.416 126.762L245.675 125.796L244.709 125.537L244.45 126.503ZM243.785 128.983L243.527 129.949L244.493 130.208L244.751 129.242L243.785 128.983ZM240.98 128.232L240.014 127.973L239.756 128.939L240.722 129.198L240.98 128.232ZM241.016 127.819L241.636 127.034L241.148 126.649L240.586 126.916L241.016 127.819ZM242.924 129.324L243.387 130.21L244.755 129.495L243.543 128.539L242.924 129.324ZM231.689 131.01L230.709 131.21L230.859 131.944L231.606 132.006L231.689 131.01ZM230.746 128.595L230.876 127.604L228.866 127.34L229.88 129.095L230.746 128.595ZM244.137 128.506L245.131 128.396L245.037 127.551L244.188 127.507L244.137 128.506ZM251.731 137.349L252.212 138.226L254.008 137.241L252.127 136.431L251.731 137.349ZM249.634 139.147L249.199 140.048L249.89 140.382L250.391 139.8L249.634 139.147ZM241.735 128.384L241.785 127.385L240.624 127.327L240.74 128.484L241.735 128.384ZM249.917 131.322L250.7 130.7L250.23 130.108L249.532 130.399L249.917 131.322ZM251.496 133.311L251.827 134.254L253.153 133.789L252.279 132.689L251.496 133.311ZM246.136 134.583L245.324 135.166L245.677 135.658L246.277 135.573L246.136 134.583ZM244.834 132.768L244.673 131.781L243.08 132.039L244.021 133.351L244.834 132.768ZM233.087 132.005L233.234 131.016L232.184 130.86L232.091 131.917L233.087 132.005ZM243.037 133.355L244.013 133.572L244.252 132.498L243.16 132.362L243.037 133.355ZM242.552 135.535L242.437 136.529L243.332 136.632L243.528 135.752L242.552 135.535ZM232.878 134.36L231.882 134.271L231.797 135.23L232.752 135.352L232.878 134.36ZM232.252 124.551L232.51 123.585L231.544 123.326L231.286 124.292L232.252 124.551ZM253.185 130.16L254.151 130.419L254.41 129.453L253.444 129.194L253.185 130.16ZM252.601 132.339L252.342 133.305L253.308 133.564L253.567 132.598L252.601 132.339ZM231.668 126.73L230.702 126.472L230.443 127.437L231.409 127.696L231.668 126.73ZM247.928 116.304L248.187 115.338L247.221 115.079L246.962 116.045L247.928 116.304ZM250.409 116.968L251.375 117.227L251.634 116.261L250.668 116.002L250.409 116.968ZM248.328 124.734L248.069 125.7L249.035 125.959L249.294 124.993L248.328 124.734ZM245.847 124.07L244.882 123.811L244.623 124.777L245.589 125.036L245.847 124.07ZM253.135 116.904L253.393 115.938L252.427 115.679L252.169 116.645L253.135 116.904ZM255.661 117.581L256.627 117.839L256.886 116.873L255.92 116.615L255.661 117.581ZM251.533 128.724L251.4 127.733L251.4 127.733L251.533 128.724ZM247.84 128.132L246.844 128.047L246.772 128.881L247.581 129.098L247.84 128.132ZM247.619 125.712L247.92 124.759L246.27 124.237L246.642 125.927L247.619 125.712ZM250.116 126.406L250.375 125.44L250.341 125.431L250.306 125.424L250.116 126.406ZM240.364 113.283L240.623 112.317L239.657 112.058L239.399 113.024L240.364 113.283ZM242.752 113.923L243.718 114.182L243.977 113.216L243.011 112.957L242.752 113.923ZM239.541 125.908L239.282 126.874L240.248 127.133L240.507 126.167L239.541 125.908ZM237.153 125.268L236.187 125.009L235.928 125.975L236.894 126.234L237.153 125.268ZM242.768 121.282L243.027 120.316L242.061 120.057L241.802 121.023L242.768 121.282ZM244.994 121.878L245.96 122.137L246.218 121.171L245.252 120.912L244.994 121.878ZM243.121 125.898L242.952 124.913L242.944 124.914L242.937 124.916L243.121 125.898ZM240.729 125.555L239.73 125.508L239.691 126.313L240.47 126.521L240.729 125.555ZM240.485 123.776L240.785 122.822L239.125 122.299L239.51 123.997L240.485 123.776ZM241.737 124.111L241.995 123.145L241.935 123.129L241.874 123.121L241.737 124.111ZM234.678 119.114L234.936 118.148L233.97 117.889L233.712 118.855L234.678 119.114ZM243.695 121.53L244.661 121.789L244.92 120.823L243.954 120.564L243.695 121.53ZM243.242 123.222L242.983 124.188L243.949 124.447L244.208 123.481L243.242 123.222ZM236.334 121.371L236.592 120.405L235.627 120.147L235.368 121.113L236.334 121.371ZM235.557 124.269L235.298 125.235L236.264 125.494L236.523 124.528L235.557 124.269ZM233.448 123.704L232.482 123.445L232.223 124.411L233.189 124.67L233.448 123.704ZM234.441 116.193L234.7 115.227L233.734 114.968L233.475 115.934L234.441 116.193ZM246.079 119.311L247.045 119.57L247.304 118.604L246.338 118.345L246.079 119.311ZM245.582 121.166L245.323 122.132L246.289 122.391L246.548 121.425L245.582 121.166ZM233.944 118.048L232.979 117.789L232.72 118.755L233.686 119.014L233.944 118.048ZM237.712 114.187L237.971 113.221L237.322 113.047L236.915 113.583L237.712 114.187ZM246.174 116.455L247.139 116.713L247.398 115.747L246.432 115.489L246.174 116.455ZM245.701 118.216L245.443 119.182L246.409 119.441L246.667 118.475L245.701 118.216ZM236.521 115.757L235.725 115.152L234.825 116.337L236.262 116.723L236.521 115.757ZM237.362 112.528L237.837 111.649L237.032 111.213L236.527 111.977L237.362 112.528ZM239.271 113.562L240.1 114.121L240.717 113.207L239.747 112.682L239.271 113.562ZM236.188 116.91L235.406 117.534L236.004 118.282L236.778 117.717L236.188 116.91ZM234.642 115.352L234.106 114.508L232.985 115.22L233.978 116.101L234.642 115.352ZM236.001 130.401L235.501 129.535L235.143 129.742L235.035 130.142L236.001 130.401ZM237.824 129.349L238.365 128.508L237.852 128.178L237.324 128.483L237.824 129.349ZM238.947 130.072L239.913 130.331L240.102 129.626L239.488 129.231L238.947 130.072ZM237.742 134.57L237.483 135.535L238.449 135.794L238.708 134.828L237.742 134.57ZM235.076 133.855L234.11 133.596L233.851 134.562L234.817 134.821L235.076 133.855ZM241.386 126.717L244.191 127.469L244.709 125.537L241.904 124.785L241.386 126.717ZM243.484 126.244L242.82 128.725L244.751 129.242L245.416 126.762L243.484 126.244ZM244.044 128.017L241.239 127.266L240.722 129.198L243.527 129.949L244.044 128.017ZM241.946 128.491L242.611 126.01L240.679 125.492L240.014 127.973L241.946 128.491ZM240.397 128.604L242.305 130.109L243.543 128.539L241.636 127.034L240.397 128.604ZM242.46 128.438C239.804 129.827 235.708 130.341 231.772 130.013L231.606 132.006C235.739 132.35 240.264 131.844 243.387 130.21L242.46 128.438ZM232.669 130.809C232.504 130.006 232.031 128.821 231.612 128.095L229.88 129.095C230.207 129.662 230.594 130.646 230.709 131.21L232.669 130.809ZM230.615 129.587C232.579 129.844 234.629 129.933 236.501 129.81C238.357 129.689 240.115 129.357 241.447 128.722L240.586 126.916C239.583 127.395 238.113 127.701 236.371 127.815C234.646 127.927 232.728 127.847 230.876 127.604L230.615 129.587ZM243.143 128.617C243.624 132.939 246.385 136.134 251.335 138.267L252.127 136.431C247.633 134.493 245.51 131.807 245.131 128.396L243.143 128.617ZM251.25 136.472C250.434 136.919 249.421 137.863 248.877 138.494L250.391 139.8C250.856 139.261 251.688 138.513 252.212 138.226L251.25 136.472ZM250.069 138.247C247.636 137.072 245.931 135.708 244.774 134.107C243.62 132.51 242.963 130.611 242.73 128.285L240.74 128.484C241 131.085 241.752 133.34 243.153 135.279C244.552 137.214 246.55 138.768 249.199 140.048L250.069 138.247ZM241.684 129.383L244.086 129.505L244.188 127.507L241.785 127.385L241.684 129.383ZM249.134 131.944L250.713 133.932L252.279 132.689L250.7 130.7L249.134 131.944ZM251.165 132.367C249.514 132.946 247.523 133.376 245.996 133.593L246.277 135.573C247.901 135.342 250.024 134.886 251.827 134.254L251.165 132.367ZM246.949 134L245.646 132.185L244.021 133.351L245.324 135.166L246.949 134ZM244.994 133.755C246.631 133.489 248.888 132.834 250.302 132.245L249.532 130.399C248.261 130.929 246.154 131.54 244.673 131.781L244.994 133.755ZM232.939 132.994C235.457 133.37 239.275 133.895 242.913 134.347L243.16 132.362C239.536 131.912 235.734 131.389 233.234 131.016L232.939 132.994ZM242.06 133.137L241.575 135.318L243.528 135.752L244.013 133.572L242.06 133.137ZM242.666 134.542C239.249 134.147 235.645 133.703 233.004 133.368L232.752 135.352C235.398 135.688 239.01 136.133 242.437 136.529L242.666 134.542ZM233.874 134.448L234.083 132.094L232.091 131.917L231.882 134.271L233.874 134.448ZM231.993 125.517L252.926 131.126L253.444 129.194L232.51 123.585L231.993 125.517ZM252.219 129.902L251.635 132.081L253.567 132.598L254.151 130.419L252.219 129.902ZM252.86 131.374L231.926 125.764L231.409 127.696L252.342 133.305L252.86 131.374ZM232.634 126.989L233.218 124.81L231.286 124.292L230.702 126.472L232.634 126.989ZM247.67 117.27L250.15 117.934L250.668 116.002L248.187 115.338L247.67 117.27ZM249.443 116.709L247.362 124.475L249.294 124.993L251.375 117.227L249.443 116.709ZM248.587 123.768L246.106 123.104L245.589 125.036L248.069 125.7L248.587 123.768ZM246.813 124.328L248.894 116.562L246.962 116.045L244.882 123.811L246.813 124.328ZM252.876 117.869L255.403 118.547L255.92 116.615L253.393 115.938L252.876 117.869ZM254.695 117.322L252.205 126.618L254.136 127.135L256.627 117.839L254.695 117.322ZM252.205 126.618C252.052 127.188 251.92 127.436 251.819 127.555C251.76 127.624 251.679 127.695 251.4 127.733L251.665 129.715C252.314 129.628 252.89 129.379 253.338 128.856C253.742 128.384 253.966 127.771 254.136 127.135L252.205 126.618ZM251.4 127.733C250.713 127.824 249.787 127.618 248.099 127.166L247.581 129.098C249.139 129.515 250.497 129.871 251.665 129.715L251.4 127.733ZM248.836 128.217C248.906 127.396 248.763 126.259 248.595 125.497L246.642 125.927C246.788 126.591 246.89 127.507 246.844 128.047L248.836 128.217ZM247.317 126.666C248.355 126.994 249.537 127.313 249.927 127.388L250.306 125.424C250.034 125.372 248.944 125.082 247.92 124.759L247.317 126.666ZM249.857 127.372C250.045 127.422 250.487 127.532 250.927 127.318C251.425 127.075 251.571 126.602 251.622 126.412L249.69 125.894C249.667 125.982 249.716 125.683 250.05 125.52C250.2 125.447 250.327 125.444 250.376 125.446C250.419 125.447 250.427 125.454 250.375 125.44L249.857 127.372ZM251.622 126.412L254.1 117.162L252.169 116.645L249.69 125.894L251.622 126.412ZM240.106 114.249L242.493 114.889L243.011 112.957L240.623 112.317L240.106 114.249ZM241.786 113.664L238.575 125.649L240.507 126.167L243.718 114.182L241.786 113.664ZM239.8 124.942L237.412 124.302L236.894 126.234L239.282 126.874L239.8 124.942ZM238.119 125.527L241.33 113.542L239.399 113.024L236.187 125.009L238.119 125.527ZM242.509 122.248L244.735 122.844L245.252 120.912L243.027 120.316L242.509 122.248ZM244.028 121.619L243.32 124.262L245.251 124.78L245.96 122.137L244.028 121.619ZM243.32 124.262C243.207 124.683 243.127 124.823 243.09 124.869C243.082 124.879 243.083 124.877 243.082 124.877C243.077 124.88 243.042 124.897 242.952 124.913L243.291 126.884C243.812 126.794 244.285 126.573 244.648 126.123C244.964 125.73 245.128 125.239 245.251 124.78L243.32 124.262ZM242.937 124.916C242.556 124.987 242.066 124.879 240.987 124.589L240.47 126.521C241.385 126.766 242.379 127.055 243.306 126.881L242.937 124.916ZM241.727 125.603C241.762 124.878 241.567 124.026 241.46 123.555L239.51 123.997C239.63 124.53 239.749 125.105 239.73 125.508L241.727 125.603ZM240.184 124.729C240.701 124.892 241.312 125.062 241.6 125.102L241.874 123.121C241.876 123.121 241.868 123.12 241.845 123.115C241.823 123.111 241.795 123.105 241.76 123.097C241.689 123.08 241.599 123.058 241.495 123.03C241.287 122.974 241.036 122.901 240.785 122.822L240.184 124.729ZM241.478 125.077C241.581 125.105 241.972 125.214 242.378 125.019C242.84 124.798 242.976 124.37 243.02 124.206L241.088 123.689C241.089 123.684 241.107 123.615 241.163 123.526C241.228 123.423 241.34 123.299 241.514 123.216C241.679 123.137 241.825 123.13 241.901 123.134C241.97 123.137 242.01 123.149 241.995 123.145L241.478 125.077ZM243.02 124.206L243.734 121.54L241.802 121.023L241.088 123.689L243.02 124.206ZM234.419 120.08L243.437 122.496L243.954 120.564L234.936 118.148L234.419 120.08ZM242.729 121.271L242.276 122.964L244.208 123.481L244.661 121.789L242.729 121.271ZM243.501 122.257L236.592 120.405L236.075 122.337L242.983 124.188L243.501 122.257ZM235.368 121.113L234.591 124.01L236.523 124.528L237.3 121.63L235.368 121.113ZM235.816 123.303L233.706 122.738L233.189 124.67L235.298 125.235L235.816 123.303ZM234.414 123.963L235.643 119.373L233.712 118.855L232.482 123.445L234.414 123.963ZM234.183 117.159L245.82 120.277L246.338 118.345L234.7 115.227L234.183 117.159ZM245.113 119.053L244.616 120.907L246.548 121.425L247.045 119.57L245.113 119.053ZM245.841 120.2L234.203 117.082L233.686 119.014L245.323 122.132L245.841 120.2ZM234.91 118.307L235.407 116.452L233.475 115.934L232.979 117.789L234.91 118.307ZM237.453 115.153L245.915 117.42L246.432 115.489L237.971 113.221L237.453 115.153ZM245.208 116.196L244.736 117.958L246.667 118.475L247.139 116.713L245.208 116.196ZM245.96 117.25L236.78 114.791L236.262 116.723L245.443 119.182L245.96 117.25ZM237.318 116.361L238.509 114.792L236.915 113.583L235.725 115.152L237.318 116.361ZM236.886 113.408L238.795 114.441L239.747 112.682L237.837 111.649L236.886 113.408ZM238.442 113.002C237.622 114.219 236.499 115.443 235.597 116.102L236.778 117.717C237.915 116.885 239.189 115.471 240.1 114.121L238.442 113.002ZM236.969 116.285C236.559 115.773 235.755 115.003 235.305 114.604L233.978 116.101C234.412 116.485 235.109 117.161 235.406 117.534L236.969 116.285ZM235.178 116.197C236.354 115.45 237.438 114.228 238.196 113.079L236.527 111.977C235.864 112.982 234.966 113.962 234.106 114.508L235.178 116.197ZM236.501 131.267L238.324 130.215L237.324 128.483L235.501 129.535L236.501 131.267ZM237.282 130.19L238.405 130.913L239.488 129.231L238.365 128.508L237.282 130.19ZM237.981 129.813L236.776 134.311L238.708 134.828L239.913 130.331L237.981 129.813ZM238.001 133.604L235.335 132.889L234.817 134.821L237.483 135.535L238.001 133.604ZM236.042 134.114L236.967 130.66L235.035 130.142L234.11 133.596L236.042 134.114ZM264.213 123.5L264.472 122.534L263.506 122.275L263.247 123.241L264.213 123.5ZM263.374 126.629L262.408 126.37L262.15 127.336L263.115 127.595L263.374 126.629ZM271.534 128.816L271.276 129.782L272.241 130.04L272.5 129.074L271.534 128.816ZM272.373 125.686L273.339 125.945L273.598 124.979L272.632 124.72L272.373 125.686ZM262.232 120.136L262.491 119.17L261.525 118.911L261.266 119.877L262.232 120.136ZM275.933 123.807L276.898 124.066L277.157 123.1L276.191 122.841L275.933 123.807ZM273.678 132.222L273.419 133.188L274.385 133.447L274.644 132.481L273.678 132.222ZM259.977 128.551L259.011 128.293L258.752 129.258L259.718 129.517L259.977 128.551ZM256.279 129.648L256.538 128.682L255.572 128.423L255.313 129.389L256.279 129.648ZM265.135 132.021L266.101 132.279L266.36 131.313L265.394 131.055L265.135 132.021ZM262.364 142.36L262.106 143.326L263.072 143.585L263.33 142.619L262.364 142.36ZM259.583 141.614L258.617 141.356L258.358 142.321L259.324 142.58L259.583 141.614ZM261.645 133.918L262.611 134.177L262.87 133.211L261.904 132.952L261.645 133.918ZM258.191 132.992L258.45 132.026L257.484 131.768L257.225 132.734L258.191 132.992ZM256.091 140.828L255.832 141.794L256.798 142.053L257.057 141.087L256.091 140.828ZM253.472 140.126L252.506 139.867L252.247 140.833L253.213 141.092L253.472 140.126ZM267.105 132.549L267.364 131.583L266.398 131.324L266.139 132.29L267.105 132.549ZM276.285 135.008L277.251 135.267L277.51 134.301L276.544 134.042L276.285 135.008ZM273.509 145.371L273.25 146.337L274.216 146.596L274.475 145.63L273.509 145.371ZM270.704 144.619L269.738 144.36L269.479 145.326L270.445 145.585L270.704 144.619ZM272.772 136.899L273.738 137.158L273.997 136.192L273.031 135.934L272.772 136.899ZM269.063 135.906L269.322 134.94L268.356 134.681L268.097 135.647L269.063 135.906ZM266.964 143.741L266.705 144.707L267.671 144.966L267.93 144L266.964 143.741ZM264.298 143.027L263.332 142.768L263.073 143.734L264.039 143.993L264.298 143.027ZM255.656 136.612L255.914 135.646L254.949 135.387L254.69 136.353L255.656 136.612ZM261.729 138.239L262.695 138.498L262.954 137.532L261.988 137.273L261.729 138.239ZM261.015 140.905L260.756 141.871L261.722 142.13L261.981 141.164L261.015 140.905ZM254.941 139.278L253.975 139.019L253.717 139.985L254.682 140.243L254.941 139.278ZM266.598 139.543L266.856 138.578L265.891 138.319L265.632 139.285L266.598 139.543ZM273.089 141.283L274.055 141.542L274.313 140.576L273.347 140.317L273.089 141.283ZM272.374 143.949L272.115 144.915L273.081 145.173L273.34 144.207L272.374 143.949ZM265.883 142.209L264.917 141.951L264.659 142.917L265.624 143.175L265.883 142.209ZM263.247 123.241L262.408 126.37L264.34 126.888L265.179 123.758L263.247 123.241ZM263.115 127.595L271.276 129.782L271.793 127.85L263.633 125.663L263.115 127.595ZM272.5 129.074L273.339 125.945L271.407 125.427L270.568 128.557L272.5 129.074ZM272.632 124.72L264.472 122.534L263.954 124.465L272.114 126.652L272.632 124.72ZM261.973 121.102L275.674 124.773L276.191 122.841L262.491 119.17L261.973 121.102ZM274.967 123.548L272.712 131.964L274.644 132.481L276.898 124.066L274.967 123.548ZM273.937 131.257L260.236 127.585L259.718 129.517L273.419 133.188L273.937 131.257ZM260.943 128.81L263.198 120.395L261.266 119.877L259.011 128.293L260.943 128.81ZM256.02 130.614L264.876 132.986L265.394 131.055L256.538 128.682L256.02 130.614ZM264.169 131.762L261.399 142.101L263.33 142.619L266.101 132.279L264.169 131.762ZM262.623 141.394L259.841 140.648L259.324 142.58L262.106 143.326L262.623 141.394ZM260.549 141.873L262.611 134.177L260.679 133.659L258.617 141.356L260.549 141.873ZM261.904 132.952L258.45 132.026L257.932 133.958L261.386 134.884L261.904 132.952ZM257.225 132.734L255.125 140.569L257.057 141.087L259.157 133.251L257.225 132.734ZM256.35 139.862L253.73 139.16L253.213 141.092L255.832 141.794L256.35 139.862ZM254.437 140.385L257.245 129.906L255.313 129.389L252.506 139.867L254.437 140.385ZM266.847 133.514L276.027 135.974L276.544 134.042L267.364 131.583L266.847 133.514ZM275.32 134.75L272.543 145.112L274.475 145.63L277.251 135.267L275.32 134.75ZM273.768 144.405L270.963 143.653L270.445 145.585L273.25 146.337L273.768 144.405ZM271.67 144.878L273.738 137.158L271.806 136.641L269.738 144.36L271.67 144.878ZM273.031 135.934L269.322 134.94L268.804 136.872L272.514 137.865L273.031 135.934ZM268.097 135.647L265.998 143.482L267.93 144L270.029 136.164L268.097 135.647ZM267.222 142.775L264.556 142.061L264.039 143.993L266.705 144.707L267.222 142.775ZM265.264 143.286L268.071 132.807L266.139 132.29L263.332 142.768L265.264 143.286ZM255.397 137.577L261.471 139.205L261.988 137.273L255.914 135.646L255.397 137.577ZM260.763 137.98L260.049 140.646L261.981 141.164L262.695 138.498L260.763 137.98ZM261.274 139.939L255.2 138.312L254.682 140.243L260.756 141.871L261.274 139.939ZM255.907 139.536L256.622 136.87L254.69 136.353L253.975 139.019L255.907 139.536ZM266.339 140.509L272.83 142.249L273.347 140.317L266.856 138.578L266.339 140.509ZM272.123 141.024L271.408 143.69L273.34 144.207L274.055 141.542L272.123 141.024ZM272.633 142.983L266.142 141.243L265.624 143.175L272.115 144.915L272.633 142.983ZM266.849 142.468L267.564 139.802L265.632 139.285L264.917 141.951L266.849 142.468Z" fill="black" mask="url(#path-14-outside-1_344_421)"/>
</svg>
