<svg width="528" height="390" viewBox="0 0 528 390" fill="none" xmlns="http://www.w3.org/2000/svg">
<rect x="3.26207" y="165.099" width="466" height="237" rx="15" transform="rotate(-19.3419 3.26207 165.099)" stroke="black" stroke-width="2"/>
<path d="M32.0518 245.608L472.222 91.1009" stroke="black" stroke-width="2"/>
<path d="M75.1333 369.852L514.36 215.676" stroke="black" stroke-width="2"/>
<path d="M113.835 217.431L157.058 340.565" stroke="black" stroke-width="2"/>
<path d="M440.511 15.8569L446.941 2.47187" stroke="black" stroke-width="2"/>
<path d="M21.7017 151.208L446.775 2.00006L519.474 209.111L515.885 232.097" stroke="black" stroke-width="2"/>
<path d="M22.6456 150.877L21.2302 151.374C19.4234 153.774 15.2203 159.312 12.8634 162.259C10.5064 165.206 9.71301 166.368 9.61095 166.58" stroke="black" stroke-width="2"/>
<path d="M158.217 343.867L162.854 357.077" stroke="black" stroke-width="2"/>
<path d="M309.186 290.875L313.823 304.084" stroke="black" stroke-width="2"/>
<path d="M441.284 244.506L445.921 257.716" stroke="black" stroke-width="2"/>
<rect x="114.779" y="217.099" width="379" height="131" transform="rotate(-19.3419 114.779 217.099)" fill="black"/>
<mask id="path-12-outside-1_344_436" maskUnits="userSpaceOnUse" x="25.2524" y="137.175" width="232.235" height="103.028" fill="black">
<rect fill="white" x="25.2524" y="137.175" width="232.235" height="103.028"/>
<path d="M32.0559 225.101L52.3462 217.979L53.2922 220.674L33.0019 227.796L32.0559 225.101ZM31.791 218.912L48.7297 212.966L49.6757 215.661L32.7369 221.606L31.791 218.912ZM37.5281 213.082L40.4041 212.073L47.8681 233.337L44.9922 234.347L37.5281 213.082ZM40.7568 223.802L43.4537 223.949C42.5436 228.313 40.1635 232.837 37.2374 235.949C36.546 235.429 35.2586 234.66 34.4258 234.316C37.3806 231.575 39.9253 227.375 40.7568 223.802ZM44.6144 222.473C47.4741 224.751 52.0855 226.439 56.0748 226.717C55.6315 227.483 55.1152 228.911 54.9167 229.795C50.7548 229.17 46.1136 227.034 42.6838 224.219L44.6144 222.473ZM54.9514 218.082L75.3096 210.936L76.2237 213.54L55.8655 220.686L54.9514 218.082ZM53.4085 210.281L71.7965 203.826L72.7027 206.408L54.3146 212.862L53.4085 210.281ZM60.1882 205.103L63.0868 204.085L70.5509 225.35L67.6523 226.367L60.1882 205.103ZM68.6933 207.739L71.8407 207.575C71.5513 209.432 71.2099 211.358 70.8429 212.631L68.2175 212.688C68.5141 211.286 68.732 209.226 68.6933 207.739ZM56.1498 213.236L58.2549 211.479C59.5221 212.408 60.9176 213.775 61.6015 214.781L59.3549 216.714C58.7469 215.707 57.3729 214.256 56.1498 213.236ZM63.5826 216.222L66.0892 216.334C65.2165 220.66 62.8511 225.153 59.9464 228.182C59.2856 227.676 58.0288 226.922 57.2266 226.593C60.1973 223.897 62.7658 219.765 63.5826 216.222ZM67.4709 214.908C70.292 217.148 74.8422 218.807 78.8236 219.063C78.3803 219.829 77.8854 221.173 77.7016 222.026C73.5409 221.477 68.9609 219.371 65.5843 216.563L67.4709 214.908ZM87.6553 199.658C88.149 202.08 88.6261 204.888 88.7715 207.838C89.0185 212.89 88.0566 216.381 85.5883 217.248C83.052 218.138 79.9909 216.084 78.6475 212.257C76.8193 207.048 79.7971 200.967 85.6623 198.908C91.2557 196.945 96.1782 199.592 97.9191 204.551C99.5883 209.307 97.8515 213.706 92.4548 216.593L89.7958 214.525C90.6392 214.101 91.2336 213.766 91.7973 213.415C94.4268 211.704 95.968 208.848 94.7995 205.519C93.5516 201.964 90.442 200.206 86.5244 201.582C81.7235 203.267 80.4718 208.106 81.4734 210.96C82.2762 213.247 83.5716 214.039 84.4321 213.737C85.4058 213.395 85.7576 211.643 85.6356 208.252C85.5452 205.893 85.1292 203.114 84.521 200.657L87.6553 199.658ZM107.657 191.061C106.504 194.009 103.778 197.764 100.718 200.567C100.178 200.045 99.1183 199.272 98.376 198.897C101.604 196.136 104.334 192.176 105.305 189.215L108.067 188.246C111.597 190.186 116.007 191.156 119.938 191.048C119.542 191.95 119.264 193.116 119.067 194.076C115.313 193.816 110.536 192.67 107.657 191.061ZM105.18 200.019L115.166 196.513L115.85 198.461L105.863 201.966L105.18 200.019ZM107.038 193.72L109.846 192.734L110.919 195.791L108.111 196.777L107.038 193.72ZM104.32 210.469C106.793 209.398 110.472 207.776 113.908 206.188L114.781 208.603C111.549 210.119 108.082 211.692 105.565 212.855L104.32 210.469ZM112.551 202.467C115.128 204.666 119.067 205.089 123.991 203.971C123.6 204.744 123.28 206.078 123.172 206.929C117.851 207.856 113.783 206.919 110.463 203.912L112.551 202.467ZM119.072 199.67L121.615 200.609C120.254 202.383 118.501 204.347 117.08 205.66L114.932 204.76C116.33 203.379 118.087 201.211 119.072 199.67ZM104.027 196.735L115.825 192.594L118.838 201.176L107.04 205.318L106.3 203.212L115.359 200.032L113.824 195.661L104.766 198.841L104.027 196.735ZM102.351 197.323L105.046 196.377L109.482 209.013L106.89 210.254L102.351 197.323ZM139.896 192.792L138.768 189.577L146.014 187.033L147.143 190.249L139.896 192.792ZM166.44 175.209L178.668 170.916L179.559 173.452L167.33 177.745L166.44 175.209ZM164.537 181.599L184.284 174.668L185.19 177.25L165.443 184.181L164.537 181.599ZM171.566 174.885L174.465 173.867L178.073 184.148C178.606 185.665 178.49 186.495 177.523 187.292C176.588 188.103 175.086 188.681 173.071 189.389C172.634 188.652 171.647 187.65 170.962 187.077C172.458 186.628 174.201 186.016 174.692 185.818C175.159 185.629 175.286 185.483 175.151 185.098L171.566 174.885ZM168.808 167.027L171.706 166.009L173.137 170.085L170.238 171.103L168.808 167.027ZM161.268 172.14L180.924 165.241L182.951 171.015L180.12 172.009L178.976 168.748L164.822 173.716L165.967 176.977L163.295 177.915L161.268 172.14ZM188.322 169.868L203.744 164.454L208.163 177.045L205.378 178.023L201.841 167.946L191.854 171.451L195.391 181.529L192.742 182.459L188.322 169.868ZM193.571 164.82L196.288 163.867L201.057 177.454L198.34 178.408L193.571 164.82ZM191.129 174.097L204.309 169.47L205.112 171.758L191.932 176.384L191.129 174.097ZM192.712 178.679L205.937 174.037L206.819 176.55L193.594 181.193L192.712 178.679ZM191.453 159.078L194.352 158.06L195.798 162.182L192.9 163.199L191.453 159.078ZM184.218 164.263L203.376 157.538L205.347 163.154L202.539 164.14L201.442 161.014L187.765 165.816L188.861 168.941L186.189 169.879L184.218 164.263ZM218.105 162.109L220.846 161.148L221.696 163.571L218.956 164.532L218.105 162.109ZM218.753 164.171L221.177 164.338C219.644 167.216 216.372 170.069 212.851 172.068C212.35 171.582 211.383 170.93 210.71 170.606C214.144 168.867 217.452 166.408 218.753 164.171ZM221.717 162.978C224.253 165.929 227.929 166.979 232.976 165.996C232.63 166.677 232.346 167.896 232.259 168.664C226.678 169.503 222.852 168.023 219.665 164.233L221.717 162.978ZM228.078 162.043L230.504 162.794C229.419 164.268 227.971 165.794 226.796 166.868L224.696 166.104C225.841 165.015 227.285 163.262 228.078 162.043ZM214.567 172.101C216.849 170.995 220.291 169.278 223.544 167.602L224.373 169.676C221.325 171.281 218.095 172.949 215.723 174.163L214.567 172.101ZM209.672 166.418L230.121 159.24L230.868 161.368L210.42 168.546L209.672 166.418ZM217.964 150.764L220.387 149.913L223.05 157.5L220.627 158.35L217.964 150.764ZM222.601 148.322L225.069 147.456L228.257 156.537C228.67 157.714 228.642 158.36 227.946 158.986C227.25 159.612 226.149 160.024 224.563 160.58C224.228 159.986 223.547 159.207 223.016 158.707C224.051 158.395 225.16 158.005 225.469 157.871C225.809 157.752 225.868 157.63 225.772 157.358L222.601 148.322ZM210.014 152.537L212.347 151.718L216.456 163.426L214.124 164.245L210.014 152.537ZM216.511 157.785L218.685 157.022L219.591 159.604C219.894 160.464 219.901 160.92 219.407 161.398C218.937 161.868 218.212 162.123 217.238 162.465C216.942 161.984 216.41 161.483 216.033 161.133C216.562 160.972 217.083 160.79 217.256 160.703C217.437 160.64 217.489 160.571 217.425 160.39L216.511 157.785ZM208.608 160.559L217.417 157.467L217.997 159.12L211.249 161.489L212.243 164.32L210.182 165.043L208.608 160.559ZM206.765 158.281L218.133 154.291L218.769 156.102L207.401 160.093L206.765 158.281ZM208.334 154.78L216.6 151.879L217.204 153.6L208.237 156.747L208.334 154.78ZM207.109 153.608L209.269 153.384C209.278 154.932 209.033 156.697 208.611 157.888C208.07 157.722 207.042 157.548 206.457 157.474C206.933 156.366 207.129 154.898 207.109 153.608ZM216.069 169.132L216.98 167.236L218.315 167.199L219.857 171.592L217.253 172.507L216.069 169.132ZM235.469 147.519L236.542 150.576L244.513 147.778L243.44 144.721L235.469 147.519ZM231.936 145.859L245.319 141.162L248.205 149.382L234.821 154.08L231.936 145.859ZM232.387 157.071L241.037 154.034L244.583 164.134L241.865 165.088L239.226 157.57L235.852 158.754L238.539 166.408L235.98 167.307L232.387 157.071ZM242.962 153.359L251.93 150.211L255.483 160.334L252.743 161.295L250.096 153.754L246.473 155.026L249.159 162.68L246.555 163.595L242.962 153.359ZM235.8 163.173L241.733 161.09L242.648 163.694L236.714 165.777L235.8 163.173ZM246.489 159.421L252.83 157.195L253.744 159.799L247.403 162.025L246.489 159.421Z"/>
</mask>
<path d="M32.0559 225.101L52.3462 217.979L53.2922 220.674L33.0019 227.796L32.0559 225.101ZM31.791 218.912L48.7297 212.966L49.6757 215.661L32.7369 221.606L31.791 218.912ZM37.5281 213.082L40.4041 212.073L47.8681 233.337L44.9922 234.347L37.5281 213.082ZM40.7568 223.802L43.4537 223.949C42.5436 228.313 40.1635 232.837 37.2374 235.949C36.546 235.429 35.2586 234.66 34.4258 234.316C37.3806 231.575 39.9253 227.375 40.7568 223.802ZM44.6144 222.473C47.4741 224.751 52.0855 226.439 56.0748 226.717C55.6315 227.483 55.1152 228.911 54.9167 229.795C50.7548 229.17 46.1136 227.034 42.6838 224.219L44.6144 222.473ZM54.9514 218.082L75.3096 210.936L76.2237 213.54L55.8655 220.686L54.9514 218.082ZM53.4085 210.281L71.7965 203.826L72.7027 206.408L54.3146 212.862L53.4085 210.281ZM60.1882 205.103L63.0868 204.085L70.5509 225.35L67.6523 226.367L60.1882 205.103ZM68.6933 207.739L71.8407 207.575C71.5513 209.432 71.2099 211.358 70.8429 212.631L68.2175 212.688C68.5141 211.286 68.732 209.226 68.6933 207.739ZM56.1498 213.236L58.2549 211.479C59.5221 212.408 60.9176 213.775 61.6015 214.781L59.3549 216.714C58.7469 215.707 57.3729 214.256 56.1498 213.236ZM63.5826 216.222L66.0892 216.334C65.2165 220.66 62.8511 225.153 59.9464 228.182C59.2856 227.676 58.0288 226.922 57.2266 226.593C60.1973 223.897 62.7658 219.765 63.5826 216.222ZM67.4709 214.908C70.292 217.148 74.8422 218.807 78.8236 219.063C78.3803 219.829 77.8854 221.173 77.7016 222.026C73.5409 221.477 68.9609 219.371 65.5843 216.563L67.4709 214.908ZM87.6553 199.658C88.149 202.08 88.6261 204.888 88.7715 207.838C89.0185 212.89 88.0566 216.381 85.5883 217.248C83.052 218.138 79.9909 216.084 78.6475 212.257C76.8193 207.048 79.7971 200.967 85.6623 198.908C91.2557 196.945 96.1782 199.592 97.9191 204.551C99.5883 209.307 97.8515 213.706 92.4548 216.593L89.7958 214.525C90.6392 214.101 91.2336 213.766 91.7973 213.415C94.4268 211.704 95.968 208.848 94.7995 205.519C93.5516 201.964 90.442 200.206 86.5244 201.582C81.7235 203.267 80.4718 208.106 81.4734 210.96C82.2762 213.247 83.5716 214.039 84.4321 213.737C85.4058 213.395 85.7576 211.643 85.6356 208.252C85.5452 205.893 85.1292 203.114 84.521 200.657L87.6553 199.658ZM107.657 191.061C106.504 194.009 103.778 197.764 100.718 200.567C100.178 200.045 99.1183 199.272 98.376 198.897C101.604 196.136 104.334 192.176 105.305 189.215L108.067 188.246C111.597 190.186 116.007 191.156 119.938 191.048C119.542 191.95 119.264 193.116 119.067 194.076C115.313 193.816 110.536 192.67 107.657 191.061ZM105.18 200.019L115.166 196.513L115.85 198.461L105.863 201.966L105.18 200.019ZM107.038 193.72L109.846 192.734L110.919 195.791L108.111 196.777L107.038 193.72ZM104.32 210.469C106.793 209.398 110.472 207.776 113.908 206.188L114.781 208.603C111.549 210.119 108.082 211.692 105.565 212.855L104.32 210.469ZM112.551 202.467C115.128 204.666 119.067 205.089 123.991 203.971C123.6 204.744 123.28 206.078 123.172 206.929C117.851 207.856 113.783 206.919 110.463 203.912L112.551 202.467ZM119.072 199.67L121.615 200.609C120.254 202.383 118.501 204.347 117.08 205.66L114.932 204.76C116.33 203.379 118.087 201.211 119.072 199.67ZM104.027 196.735L115.825 192.594L118.838 201.176L107.04 205.318L106.3 203.212L115.359 200.032L113.824 195.661L104.766 198.841L104.027 196.735ZM102.351 197.323L105.046 196.377L109.482 209.013L106.89 210.254L102.351 197.323ZM139.896 192.792L138.768 189.577L146.014 187.033L147.143 190.249L139.896 192.792ZM166.44 175.209L178.668 170.916L179.559 173.452L167.33 177.745L166.44 175.209ZM164.537 181.599L184.284 174.668L185.19 177.25L165.443 184.181L164.537 181.599ZM171.566 174.885L174.465 173.867L178.073 184.148C178.606 185.665 178.49 186.495 177.523 187.292C176.588 188.103 175.086 188.681 173.071 189.389C172.634 188.652 171.647 187.65 170.962 187.077C172.458 186.628 174.201 186.016 174.692 185.818C175.159 185.629 175.286 185.483 175.151 185.098L171.566 174.885ZM168.808 167.027L171.706 166.009L173.137 170.085L170.238 171.103L168.808 167.027ZM161.268 172.14L180.924 165.241L182.951 171.015L180.12 172.009L178.976 168.748L164.822 173.716L165.967 176.977L163.295 177.915L161.268 172.14ZM188.322 169.868L203.744 164.454L208.163 177.045L205.378 178.023L201.841 167.946L191.854 171.451L195.391 181.529L192.742 182.459L188.322 169.868ZM193.571 164.82L196.288 163.867L201.057 177.454L198.34 178.408L193.571 164.82ZM191.129 174.097L204.309 169.47L205.112 171.758L191.932 176.384L191.129 174.097ZM192.712 178.679L205.937 174.037L206.819 176.55L193.594 181.193L192.712 178.679ZM191.453 159.078L194.352 158.06L195.798 162.182L192.9 163.199L191.453 159.078ZM184.218 164.263L203.376 157.538L205.347 163.154L202.539 164.14L201.442 161.014L187.765 165.816L188.861 168.941L186.189 169.879L184.218 164.263ZM218.105 162.109L220.846 161.148L221.696 163.571L218.956 164.532L218.105 162.109ZM218.753 164.171L221.177 164.338C219.644 167.216 216.372 170.069 212.851 172.068C212.35 171.582 211.383 170.93 210.71 170.606C214.144 168.867 217.452 166.408 218.753 164.171ZM221.717 162.978C224.253 165.929 227.929 166.979 232.976 165.996C232.63 166.677 232.346 167.896 232.259 168.664C226.678 169.503 222.852 168.023 219.665 164.233L221.717 162.978ZM228.078 162.043L230.504 162.794C229.419 164.268 227.971 165.794 226.796 166.868L224.696 166.104C225.841 165.015 227.285 163.262 228.078 162.043ZM214.567 172.101C216.849 170.995 220.291 169.278 223.544 167.602L224.373 169.676C221.325 171.281 218.095 172.949 215.723 174.163L214.567 172.101ZM209.672 166.418L230.121 159.24L230.868 161.368L210.42 168.546L209.672 166.418ZM217.964 150.764L220.387 149.913L223.05 157.5L220.627 158.35L217.964 150.764ZM222.601 148.322L225.069 147.456L228.257 156.537C228.67 157.714 228.642 158.36 227.946 158.986C227.25 159.612 226.149 160.024 224.563 160.58C224.228 159.986 223.547 159.207 223.016 158.707C224.051 158.395 225.16 158.005 225.469 157.871C225.809 157.752 225.868 157.63 225.772 157.358L222.601 148.322ZM210.014 152.537L212.347 151.718L216.456 163.426L214.124 164.245L210.014 152.537ZM216.511 157.785L218.685 157.022L219.591 159.604C219.894 160.464 219.901 160.92 219.407 161.398C218.937 161.868 218.212 162.123 217.238 162.465C216.942 161.984 216.41 161.483 216.033 161.133C216.562 160.972 217.083 160.79 217.256 160.703C217.437 160.64 217.489 160.571 217.425 160.39L216.511 157.785ZM208.608 160.559L217.417 157.467L217.997 159.12L211.249 161.489L212.243 164.32L210.182 165.043L208.608 160.559ZM206.765 158.281L218.133 154.291L218.769 156.102L207.401 160.093L206.765 158.281ZM208.334 154.78L216.6 151.879L217.204 153.6L208.237 156.747L208.334 154.78ZM207.109 153.608L209.269 153.384C209.278 154.932 209.033 156.697 208.611 157.888C208.07 157.722 207.042 157.548 206.457 157.474C206.933 156.366 207.129 154.898 207.109 153.608ZM216.069 169.132L216.98 167.236L218.315 167.199L219.857 171.592L217.253 172.507L216.069 169.132ZM235.469 147.519L236.542 150.576L244.513 147.778L243.44 144.721L235.469 147.519ZM231.936 145.859L245.319 141.162L248.205 149.382L234.821 154.08L231.936 145.859ZM232.387 157.071L241.037 154.034L244.583 164.134L241.865 165.088L239.226 157.57L235.852 158.754L238.539 166.408L235.98 167.307L232.387 157.071ZM242.962 153.359L251.93 150.211L255.483 160.334L252.743 161.295L250.096 153.754L246.473 155.026L249.159 162.68L246.555 163.595L242.962 153.359ZM235.8 163.173L241.733 161.09L242.648 163.694L236.714 165.777L235.8 163.173ZM246.489 159.421L252.83 157.195L253.744 159.799L247.403 162.025L246.489 159.421Z" fill="white"/>
<path d="M32.0559 225.101L31.7247 224.158L30.7812 224.489L31.1124 225.432L32.0559 225.101ZM52.3462 217.979L53.2898 217.648L52.9586 216.704L52.015 217.035L52.3462 217.979ZM53.2922 220.674L53.6234 221.617L54.5669 221.286L54.2357 220.343L53.2922 220.674ZM33.0019 227.796L32.0583 228.127L32.3895 229.071L33.3331 228.74L33.0019 227.796ZM31.791 218.912L31.4598 217.968L30.5162 218.299L30.8474 219.243L31.791 218.912ZM48.7297 212.966L49.6733 212.635L49.3421 211.691L48.3985 212.022L48.7297 212.966ZM49.6757 215.661L50.0069 216.604L50.9504 216.273L50.6192 215.329L49.6757 215.661ZM32.7369 221.606L31.7933 221.938L32.1245 222.881L33.0681 222.55L32.7369 221.606ZM37.5281 213.082L37.1969 212.139L36.2534 212.47L36.5846 213.414L37.5281 213.082ZM40.4041 212.073L41.3477 211.742L41.0165 210.798L40.0729 211.129L40.4041 212.073ZM47.8681 233.337L48.1993 234.281L49.1429 233.949L48.8117 233.006L47.8681 233.337ZM44.9922 234.347L44.0486 234.678L44.3798 235.621L45.3234 235.29L44.9922 234.347ZM40.7568 223.802L40.8112 222.804L39.9731 222.758L39.7828 223.576L40.7568 223.802ZM43.4537 223.949L44.4326 224.153L44.6702 223.014L43.5081 222.951L43.4537 223.949ZM37.2374 235.949L36.636 236.748L37.3521 237.287L37.966 236.634L37.2374 235.949ZM34.4258 234.316L33.7457 233.583L32.601 234.645L34.0445 235.241L34.4258 234.316ZM44.6144 222.473L45.2374 221.691L44.5733 221.162L43.9437 221.732L44.6144 222.473ZM56.0748 226.717L56.9404 227.218L57.7429 225.831L56.1445 225.72L56.0748 226.717ZM54.9167 229.795L54.7682 230.783L55.6884 230.922L55.8924 230.014L54.9167 229.795ZM42.6838 224.219L42.013 223.478L41.1522 224.256L42.0494 224.992L42.6838 224.219ZM32.3872 226.045L52.6774 218.923L52.015 217.035L31.7247 224.158L32.3872 226.045ZM51.4027 218.31L52.3486 221.005L54.2357 220.343L53.2898 217.648L51.4027 218.31ZM52.961 219.73L32.6707 226.852L33.3331 228.74L53.6234 221.617L52.961 219.73ZM33.9454 227.465L32.9995 224.77L31.1124 225.432L32.0583 228.127L33.9454 227.465ZM32.1222 219.855L49.0609 213.909L48.3985 212.022L31.4598 217.968L32.1222 219.855ZM47.7862 213.297L48.7321 215.992L50.6192 215.329L49.6733 212.635L47.7862 213.297ZM49.3445 214.717L32.4057 220.663L33.0681 222.55L50.0069 216.604L49.3445 214.717ZM33.6805 221.275L32.7345 218.58L30.8474 219.243L31.7933 221.938L33.6805 221.275ZM37.8593 214.026L40.7353 213.017L40.0729 211.129L37.1969 212.139L37.8593 214.026ZM39.4605 212.404L46.9246 233.668L48.8117 233.006L41.3477 211.742L39.4605 212.404ZM47.5369 232.393L44.661 233.403L45.3234 235.29L48.1993 234.281L47.5369 232.393ZM45.9357 234.015L38.4717 212.751L36.5846 213.414L44.0486 234.678L45.9357 234.015ZM40.7023 224.801L43.3992 224.948L43.5081 222.951L40.8112 222.804L40.7023 224.801ZM42.4748 223.745C41.6022 227.929 39.3085 232.286 36.5087 235.264L37.966 236.634C41.0186 233.387 43.4851 228.697 44.4326 224.153L42.4748 223.745ZM37.8387 235.15C37.0929 234.589 35.7324 233.774 34.8072 233.392L34.0445 235.241C34.7849 235.546 35.9991 236.269 36.636 236.748L37.8387 235.15ZM35.106 235.05C38.1892 232.189 40.8488 227.819 41.7307 224.029L39.7828 223.576C39.0017 226.932 36.5721 230.961 33.7457 233.583L35.106 235.05ZM43.9915 223.256C47.0282 225.674 51.839 227.424 56.0052 227.715L56.1445 225.72C52.332 225.454 47.9201 223.828 45.2374 221.691L43.9915 223.256ZM55.2093 226.216C54.7044 227.089 54.1565 228.616 53.941 229.575L55.8924 230.014C56.074 229.206 56.5587 227.878 56.9404 227.218L55.2093 226.216ZM55.0652 228.806C51.0959 228.21 46.6199 226.156 43.3182 223.446L42.0494 224.992C45.6074 227.913 50.4138 230.13 54.7682 230.783L55.0652 228.806ZM43.3545 224.961L45.2852 223.215L43.9437 221.732L42.013 223.478L43.3545 224.961ZM54.9514 218.082L54.6202 217.138L53.6766 217.47L54.0078 218.413L54.9514 218.082ZM75.3096 210.936L76.2532 210.605L75.922 209.661L74.9784 209.992L75.3096 210.936ZM76.2237 213.54L76.5549 214.484L77.4985 214.152L77.1673 213.209L76.2237 213.54ZM55.8655 220.686L54.9219 221.017L55.2532 221.961L56.1967 221.63L55.8655 220.686ZM53.4085 210.281L53.0773 209.337L52.1337 209.668L52.4649 210.612L53.4085 210.281ZM71.7965 203.826L72.7401 203.495L72.4089 202.551L71.4653 202.883L71.7965 203.826ZM72.7027 206.408L73.0339 207.351L73.9775 207.02L73.6463 206.077L72.7027 206.408ZM54.3146 212.862L53.3711 213.193L53.7023 214.137L54.6459 213.806L54.3146 212.862ZM60.1882 205.103L59.857 204.159L58.9135 204.491L59.2447 205.434L60.1882 205.103ZM63.0868 204.085L64.0304 203.754L63.6992 202.811L62.7556 203.142L63.0868 204.085ZM70.5509 225.35L70.8821 226.293L71.8257 225.962L71.4944 225.018L70.5509 225.35ZM67.6523 226.367L66.7087 226.698L67.0399 227.642L67.9835 227.311L67.6523 226.367ZM68.6933 207.739L68.6413 206.74L67.6683 206.791L67.6936 207.765L68.6933 207.739ZM71.8407 207.575L72.8288 207.729L73.0184 206.513L71.7888 206.576L71.8407 207.575ZM70.8429 212.631L70.8645 213.631L71.6001 213.615L71.8038 212.908L70.8429 212.631ZM68.2175 212.688L67.2392 212.481L66.978 213.715L68.2391 213.687L68.2175 212.688ZM56.1498 213.236L55.5092 212.468L54.5889 213.235L55.5092 214.003L56.1498 213.236ZM58.2549 211.479L58.8461 210.673L58.2151 210.21L57.6143 210.711L58.2549 211.479ZM61.6015 214.781L62.2537 215.539L62.9301 214.957L62.4285 214.219L61.6015 214.781ZM59.3549 216.714L58.4988 217.231L59.1102 218.244L60.0072 217.472L59.3549 216.714ZM63.5826 216.222L63.6273 215.223L62.7953 215.186L62.6082 215.998L63.5826 216.222ZM66.0892 216.334L67.0695 216.532L67.3004 215.388L66.1339 215.335L66.0892 216.334ZM59.9464 228.182L59.3386 228.976L60.049 229.519L60.6681 228.874L59.9464 228.182ZM57.2266 226.593L56.5546 225.852L55.3813 226.917L56.8473 227.518L57.2266 226.593ZM67.4709 214.908L68.0927 214.125L67.4391 213.606L66.8116 214.156L67.4709 214.908ZM78.8236 219.063L79.6891 219.564L80.4966 218.168L78.8877 218.065L78.8236 219.063ZM77.7016 222.026L77.5708 223.017L78.4849 223.138L78.6791 222.236L77.7016 222.026ZM65.5843 216.563L64.925 215.811L64.0445 216.583L64.9449 217.331L65.5843 216.563ZM55.2826 219.026L75.6408 211.879L74.9784 209.992L54.6202 217.138L55.2826 219.026ZM74.3661 211.267L75.2802 213.871L77.1673 213.209L76.2532 210.605L74.3661 211.267ZM75.8925 212.597L55.5343 219.743L56.1967 221.63L76.5549 214.484L75.8925 212.597ZM56.8091 220.355L55.8949 217.751L54.0078 218.413L54.9219 221.017L56.8091 220.355ZM53.7397 211.224L72.1277 204.77L71.4653 202.883L53.0773 209.337L53.7397 211.224ZM70.853 204.157L71.7592 206.739L73.6463 206.077L72.7401 203.495L70.853 204.157ZM72.3715 205.464L53.9834 211.919L54.6459 213.806L73.0339 207.351L72.3715 205.464ZM55.2582 212.531L54.352 209.949L52.4649 210.612L53.3711 213.193L55.2582 212.531ZM60.5194 206.047L63.4181 205.029L62.7556 203.142L59.857 204.159L60.5194 206.047ZM62.1433 204.417L69.6073 225.681L71.4944 225.018L64.0304 203.754L62.1433 204.417ZM70.2197 224.406L67.3211 225.423L67.9835 227.311L70.8821 226.293L70.2197 224.406ZM68.5958 226.036L61.1318 204.772L59.2447 205.434L66.7087 226.698L68.5958 226.036ZM68.7452 208.737L71.8926 208.574L71.7888 206.576L68.6413 206.74L68.7452 208.737ZM70.8526 207.421C70.5626 209.282 70.2293 211.149 69.882 212.354L71.8038 212.908C72.1905 211.566 72.54 209.582 72.8288 207.729L70.8526 207.421ZM70.8213 211.631L68.1959 211.688L68.2391 213.687L70.8645 213.631L70.8213 211.631ZM69.1959 212.895C69.5066 211.427 69.734 209.288 69.6929 207.713L67.6936 207.765C67.7301 209.164 67.5217 211.146 67.2392 212.481L69.1959 212.895ZM56.7905 214.003L58.8956 212.247L57.6143 210.711L55.5092 212.468L56.7905 214.003ZM57.6638 212.286C58.8689 213.169 60.1726 214.458 60.7744 215.343L62.4285 214.219C61.6625 213.092 60.1753 211.647 58.8461 210.673L57.6638 212.286ZM60.9492 214.023L58.7027 215.956L60.0072 217.472L62.2537 215.539L60.9492 214.023ZM60.2111 216.198C59.5215 215.055 58.0532 213.521 56.7905 212.468L55.5092 214.003C56.6926 214.991 57.9724 216.359 58.4988 217.231L60.2111 216.198ZM63.5379 217.221L66.0445 217.333L66.1339 215.335L63.6273 215.223L63.5379 217.221ZM65.109 216.137C64.2733 220.278 61.9964 224.599 59.2246 227.49L60.6681 228.874C63.7058 225.706 66.1597 221.041 67.0695 216.532L65.109 216.137ZM60.5541 227.388C59.8359 226.838 58.5032 226.035 57.6059 225.668L56.8473 227.518C57.5544 227.808 58.7352 228.514 59.3386 228.976L60.5541 227.388ZM57.8987 227.333C60.9975 224.521 63.6879 220.216 64.557 216.447L62.6082 215.998C61.8437 219.313 59.3972 223.272 56.5546 225.852L57.8987 227.333ZM66.849 215.691C69.8481 218.073 74.5992 219.793 78.7595 220.061L78.8877 218.065C75.0851 217.821 70.7359 216.224 68.0927 214.125L66.849 215.691ZM77.9581 218.562C77.4564 219.429 76.9271 220.872 76.724 221.815L78.6791 222.236C78.8437 221.473 79.3042 220.229 79.6891 219.564L77.9581 218.562ZM77.8324 221.034C73.8765 220.512 69.4695 218.493 66.2237 215.794L64.9449 217.331C68.4523 220.248 73.2053 222.441 77.5708 223.017L77.8324 221.034ZM66.2436 217.314L68.1302 215.66L66.8116 214.156L64.925 215.811L66.2436 217.314ZM87.6553 199.658L88.6351 199.459L88.4126 198.368L87.3517 198.706L87.6553 199.658ZM88.7715 207.838L89.7703 207.79L89.7703 207.789L88.7715 207.838ZM92.4548 216.593L91.8409 217.382L92.3537 217.781L92.9264 217.474L92.4548 216.593ZM89.7958 214.525L89.3473 213.631L87.9313 214.341L89.1819 215.314L89.7958 214.525ZM91.7973 213.415L92.3253 214.264L92.3341 214.259L92.3428 214.253L91.7973 213.415ZM85.6356 208.252L86.635 208.216L86.6349 208.214L85.6356 208.252ZM84.521 200.657L84.2175 199.704L83.3254 199.988L83.5503 200.897L84.521 200.657ZM86.6754 199.858C87.1647 202.257 87.6309 205.01 87.7727 207.888L89.7703 207.789C89.6213 204.766 89.1333 201.902 88.6351 199.459L86.6754 199.858ZM87.7727 207.887C87.8934 210.356 87.7121 212.356 87.2461 213.807C86.7818 215.251 86.0871 216.013 85.2571 216.304L85.9195 218.191C87.5578 217.616 88.5782 216.199 89.1502 214.418C89.7205 212.644 89.8966 210.372 89.7703 207.79L87.7727 207.887ZM85.2571 216.304C84.3625 216.618 83.2981 216.445 82.2464 215.704C81.1927 214.962 80.2053 213.676 79.5911 211.926L77.704 212.588C78.4331 214.665 79.6479 216.32 81.0947 217.339C82.5435 218.359 84.2778 218.768 85.9195 218.191L85.2571 216.304ZM79.5911 211.926C77.9625 207.286 80.6004 201.745 85.9935 199.852L85.3311 197.965C78.9938 200.189 75.6761 206.811 77.704 212.588L79.5911 211.926ZM85.9935 199.852C88.5632 198.95 90.9147 199.124 92.8008 200.034C94.691 200.946 96.1855 202.632 96.9755 204.882L98.8626 204.22C97.9118 201.511 96.0746 199.393 93.67 198.233C91.2613 197.071 88.3547 196.903 85.3311 197.965L85.9935 199.852ZM96.9755 204.882C97.7394 207.059 97.7045 209.082 96.9207 210.872C96.1323 212.672 94.5375 214.345 91.9832 215.711L92.9264 217.474C95.7688 215.954 97.7408 213.984 98.7527 211.674C99.7691 209.353 99.768 206.799 98.8626 204.22L96.9755 204.882ZM93.0687 215.803L90.4097 213.735L89.1819 215.314L91.8409 217.382L93.0687 215.803ZM90.2443 215.418C91.1117 214.983 91.7329 214.633 92.3253 214.264L91.2693 212.566C90.7343 212.898 90.1668 213.22 89.3473 213.631L90.2443 215.418ZM92.3428 214.253C95.2522 212.359 97.1026 209.061 95.7431 205.188L93.856 205.85C94.8334 208.635 93.6015 211.048 91.2518 212.577L92.3428 214.253ZM95.7431 205.188C95.0504 203.214 93.8085 201.656 92.1104 200.807C90.4055 199.954 88.3623 199.877 86.1932 200.638L86.8556 202.525C88.6041 201.911 90.0745 202.025 91.2157 202.596C92.3638 203.17 93.3007 204.268 93.856 205.85L95.7431 205.188ZM86.1932 200.638C80.8177 202.525 79.3647 207.972 80.5298 211.291L82.417 210.629C81.5789 208.241 82.6294 204.009 86.8556 202.525L86.1932 200.638ZM80.5298 211.291C80.9708 212.547 81.5794 213.491 82.2884 214.085C82.9922 214.676 83.8941 214.985 84.7633 214.68L84.1009 212.793C84.0952 212.795 84.0591 212.807 83.9755 212.785C83.8878 212.762 83.7489 212.7 83.5738 212.553C83.2193 212.256 82.7789 211.66 82.417 210.629L80.5298 211.291ZM84.7633 214.68C85.7733 214.326 86.2125 213.325 86.4224 212.348C86.6437 211.319 86.6967 209.932 86.635 208.216L84.6363 208.288C84.6965 209.963 84.6347 211.148 84.4671 211.928C84.3838 212.315 84.2855 212.547 84.2033 212.677C84.1646 212.738 84.1351 212.768 84.1206 212.78C84.1078 212.791 84.1024 212.792 84.1009 212.793L84.7633 214.68ZM86.6349 208.214C86.5415 205.779 86.1143 202.932 85.4918 200.417L83.5503 200.897C84.1441 203.296 84.5488 206.007 84.6364 208.291L86.6349 208.214ZM84.8246 201.61L87.9588 200.611L87.3517 198.706L84.2175 199.704L84.8246 201.61ZM107.657 191.061L108.144 190.188L107.143 189.628L106.725 190.697L107.657 191.061ZM100.718 200.567L100.022 201.286L100.698 201.941L101.393 201.305L100.718 200.567ZM98.3761 198.897L97.726 198.137L96.5859 199.112L97.9247 199.789L98.3761 198.897ZM105.305 189.215L104.973 188.272L104.508 188.435L104.354 188.904L105.305 189.215ZM108.067 188.246L108.549 187.369L108.158 187.154L107.736 187.302L108.067 188.246ZM119.938 191.048L120.853 191.45L121.487 190.006L119.91 190.049L119.938 191.048ZM119.067 194.076L118.998 195.073L119.87 195.133L120.047 194.277L119.067 194.076ZM105.18 200.019L104.848 199.075L103.905 199.406L104.236 200.35L105.18 200.019ZM115.166 196.513L116.11 196.182L115.779 195.238L114.835 195.57L115.166 196.513ZM115.85 198.461L116.181 199.404L117.125 199.073L116.793 198.129L115.85 198.461ZM105.863 201.966L104.92 202.297L105.251 203.241L106.194 202.91L105.863 201.966ZM107.038 193.72L106.707 192.776L105.763 193.107L106.095 194.051L107.038 193.72ZM109.846 192.734L110.79 192.403L110.459 191.459L109.515 191.79L109.846 192.734ZM110.919 195.791L111.251 196.735L112.194 196.403L111.863 195.46L110.919 195.791ZM108.111 196.777L107.168 197.108L107.499 198.051L108.443 197.72L108.111 196.777ZM104.32 210.469L103.923 209.551L102.937 209.979L103.434 210.931L104.32 210.469ZM113.908 206.188L114.848 205.848L114.477 204.823L113.488 205.28L113.908 206.188ZM114.781 208.603L115.205 209.509L116.031 209.121L115.721 208.263L114.781 208.603ZM105.565 212.855L104.678 213.318L105.119 214.163L105.985 213.763L105.565 212.855ZM112.551 202.467L113.2 201.707L112.614 201.207L111.982 201.645L112.551 202.467ZM123.991 203.971L124.883 204.422L125.84 202.526L123.769 202.996L123.991 203.971ZM123.172 206.929L123.344 207.915L124.071 207.788L124.164 207.055L123.172 206.929ZM110.463 203.912L109.894 203.09L108.858 203.807L109.792 204.653L110.463 203.912ZM119.072 199.67L119.419 198.732L118.663 198.453L118.23 199.131L119.072 199.67ZM121.615 200.609L122.408 201.217L123.234 200.14L121.961 199.67L121.615 200.609ZM117.08 205.66L116.693 206.582L117.286 206.83L117.758 206.394L117.08 205.66ZM114.932 204.76L114.23 204.049L113.163 205.103L114.546 205.682L114.932 204.76ZM104.027 196.735L103.696 195.791L102.752 196.123L103.083 197.066L104.027 196.735ZM115.825 192.594L116.769 192.262L116.438 191.319L115.494 191.65L115.825 192.594ZM118.838 201.176L119.169 202.12L120.113 201.789L119.782 200.845L118.838 201.176ZM107.04 205.318L106.096 205.649L106.427 206.592L107.371 206.261L107.04 205.318ZM106.3 203.212L105.969 202.268L105.026 202.599L105.357 203.543L106.3 203.212ZM115.359 200.032L115.69 200.976L116.633 200.644L116.302 199.701L115.359 200.032ZM113.824 195.661L114.768 195.33L114.437 194.387L113.493 194.718L113.824 195.661ZM104.766 198.841L103.823 199.172L104.154 200.116L105.098 199.785L104.766 198.841ZM102.351 197.323L102.02 196.38L101.077 196.711L101.408 197.654L102.351 197.323ZM105.046 196.377L105.99 196.046L105.658 195.103L104.715 195.434L105.046 196.377ZM109.482 209.013L109.913 209.915L110.722 209.528L110.425 208.682L109.482 209.013ZM106.89 210.254L105.947 210.585L106.316 211.637L107.322 211.156L106.89 210.254ZM106.725 190.697C105.642 193.468 103.02 197.101 100.042 199.83L101.393 201.305C104.535 198.426 107.366 194.55 108.588 191.425L106.725 190.697ZM101.413 199.849C100.806 199.26 99.6642 198.428 98.8273 198.004L97.9247 199.789C98.5723 200.117 99.5504 200.829 100.022 201.286L101.413 199.849ZM99.0261 199.657C102.364 196.801 105.217 192.694 106.255 189.527L104.354 188.904C103.452 191.657 100.843 195.47 97.726 198.137L99.0261 199.657ZM105.636 190.159L108.399 189.189L107.736 187.302L104.973 188.272L105.636 190.159ZM107.586 189.122C111.283 191.154 115.871 192.16 119.965 192.048L119.91 190.049C116.144 190.152 111.912 189.218 108.549 187.369L107.586 189.122ZM119.022 190.647C118.58 191.653 118.286 192.91 118.088 193.874L120.047 194.277C120.243 193.322 120.504 192.247 120.853 191.45L119.022 190.647ZM119.136 193.078C115.474 192.825 110.854 191.702 108.144 190.188L107.169 191.934C110.218 193.638 115.153 194.808 118.998 195.073L119.136 193.078ZM105.511 200.962L115.497 197.457L114.835 195.57L104.848 199.075L105.511 200.962ZM114.223 196.844L114.906 198.792L116.793 198.129L116.11 196.182L114.223 196.844ZM115.519 197.517L105.532 201.023L106.194 202.91L116.181 199.404L115.519 197.517ZM106.807 201.635L106.123 199.687L104.236 200.35L104.92 202.297L106.807 201.635ZM107.369 194.663L110.177 193.677L109.515 191.79L106.707 192.776L107.369 194.663ZM108.903 193.065L109.976 196.122L111.863 195.46L110.79 192.403L108.903 193.065ZM110.588 194.847L107.78 195.833L108.443 197.72L111.251 196.735L110.588 194.847ZM109.055 196.445L107.982 193.388L106.095 194.051L107.168 197.108L109.055 196.445ZM104.718 211.387C107.195 210.313 110.881 208.688 114.327 207.096L113.488 205.28C110.062 206.863 106.391 208.482 103.923 209.551L104.718 211.387ZM112.967 206.528L113.84 208.943L115.721 208.263L114.848 205.848L112.967 206.528ZM114.356 207.698C111.126 209.213 107.673 210.78 105.145 211.948L105.985 213.763C108.491 212.605 111.971 211.026 115.205 209.509L114.356 207.698ZM106.452 212.393L105.207 210.007L103.434 210.931L104.678 213.318L106.452 212.393ZM111.902 203.228C114.836 205.731 119.17 206.091 124.212 204.947L123.769 202.996C118.964 204.087 115.42 203.601 113.2 201.707L111.902 203.228ZM123.098 203.521C122.636 204.436 122.295 205.894 122.18 206.804L124.164 207.055C124.265 206.261 124.565 205.053 124.883 204.422L123.098 203.521ZM123 205.944C117.905 206.832 114.173 205.923 111.135 203.171L109.792 204.653C113.392 207.914 117.796 208.881 123.344 207.915L123 205.944ZM111.033 204.735L113.12 203.29L111.982 201.645L109.894 203.09L111.033 204.735ZM118.726 200.608L121.268 201.547L121.961 199.67L119.419 198.732L118.726 200.608ZM120.821 200C119.487 201.74 117.772 203.658 116.401 204.925L117.758 206.394C119.23 205.035 121.02 203.027 122.408 201.217L120.821 200ZM117.466 204.737L115.319 203.838L114.546 205.682L116.693 206.582L117.466 204.737ZM115.635 205.471C117.084 204.04 118.888 201.814 119.915 200.208L118.23 199.131C117.286 200.607 115.576 202.718 114.23 204.049L115.635 205.471ZM104.358 197.679L116.157 193.537L115.494 191.65L103.696 195.791L104.358 197.679ZM114.882 192.925L117.894 201.507L119.782 200.845L116.769 192.262L114.882 192.925ZM118.507 200.233L106.708 204.374L107.371 206.261L119.169 202.12L118.507 200.233ZM107.983 204.986L107.244 202.88L105.357 203.543L106.096 205.649L107.983 204.986ZM106.632 204.155L115.69 200.976L115.027 199.088L105.969 202.268L106.632 204.155ZM116.302 199.701L114.768 195.33L112.881 195.993L114.415 200.363L116.302 199.701ZM113.493 194.718L104.435 197.897L105.098 199.785L114.156 196.605L113.493 194.718ZM105.71 198.51L104.971 196.404L103.083 197.066L103.823 199.172L105.71 198.51ZM102.682 198.267L105.377 197.321L104.715 195.434L102.02 196.38L102.682 198.267ZM104.103 196.709L108.538 209.345L110.425 208.682L105.99 196.046L104.103 196.709ZM109.05 208.111L106.458 209.352L107.322 211.156L109.913 209.915L109.05 208.111ZM107.834 209.923L103.295 196.992L101.408 197.654L105.947 210.585L107.834 209.923ZM139.896 192.792L138.953 193.124L139.284 194.067L140.228 193.736L139.896 192.792ZM138.768 189.577L138.436 188.633L137.493 188.964L137.824 189.908L138.768 189.577ZM146.014 187.033L146.958 186.702L146.627 185.758L145.683 186.09L146.014 187.033ZM147.143 190.249L147.474 191.192L148.418 190.861L148.086 189.918L147.143 190.249ZM140.84 192.461L139.711 189.246L137.824 189.908L138.953 193.124L140.84 192.461ZM139.099 190.52L146.345 187.977L145.683 186.09L138.436 188.633L139.099 190.52ZM145.071 187.364L146.199 190.58L148.086 189.918L146.958 186.702L145.071 187.364ZM146.812 189.305L139.565 191.849L140.228 193.736L147.474 191.192L146.812 189.305ZM166.44 175.209L166.109 174.265L165.165 174.596L165.496 175.54L166.44 175.209ZM178.668 170.916L179.612 170.585L179.281 169.641L178.337 169.973L178.668 170.916ZM179.559 173.452L179.89 174.396L180.833 174.065L180.502 173.121L179.559 173.452ZM167.33 177.745L166.387 178.076L166.718 179.02L167.661 178.688L167.33 177.745ZM164.537 181.599L164.206 180.656L163.262 180.987L163.594 181.931L164.537 181.599ZM184.284 174.668L185.228 174.337L184.896 173.393L183.953 173.724L184.284 174.668ZM185.19 177.25L185.521 178.193L186.465 177.862L186.134 176.918L185.19 177.25ZM165.443 184.181L164.5 184.512L164.831 185.456L165.775 185.125L165.443 184.181ZM171.566 174.885L171.235 173.941L170.291 174.272L170.622 175.216L171.566 174.885ZM174.465 173.867L175.408 173.536L175.077 172.592L174.133 172.924L174.465 173.867ZM177.523 187.292L176.887 186.52L176.878 186.528L176.868 186.536L177.523 187.292ZM173.071 189.389L172.21 189.899L172.628 190.604L173.402 190.332L173.071 189.389ZM170.962 187.077L170.675 186.119L168.898 186.652L170.32 187.843L170.962 187.077ZM174.692 185.818L175.065 186.746L175.067 186.745L174.692 185.818ZM168.808 167.027L168.476 166.083L167.533 166.414L167.864 167.358L168.808 167.027ZM171.706 166.009L172.65 165.678L172.319 164.734L171.375 165.066L171.706 166.009ZM173.137 170.085L173.468 171.029L174.412 170.698L174.081 169.754L173.137 170.085ZM170.238 171.103L169.295 171.434L169.626 172.378L170.57 172.046L170.238 171.103ZM161.268 172.14L160.937 171.197L159.993 171.528L160.324 172.472L161.268 172.14ZM180.924 165.241L181.868 164.91L181.536 163.966L180.593 164.297L180.924 165.241ZM182.951 171.015L183.282 171.959L184.226 171.628L183.895 170.684L182.951 171.015ZM180.12 172.009L179.177 172.34L179.508 173.284L180.452 172.953L180.12 172.009ZM178.976 168.748L179.919 168.417L179.588 167.473L178.644 167.804L178.976 168.748ZM164.822 173.716L164.491 172.773L163.548 173.104L163.879 174.047L164.822 173.716ZM165.967 176.977L166.298 177.921L167.242 177.589L166.911 176.646L165.967 176.977ZM163.295 177.915L162.351 178.246L162.682 179.19L163.626 178.859L163.295 177.915ZM166.771 176.152L179 171.86L178.337 169.973L166.109 174.265L166.771 176.152ZM177.725 171.247L178.615 173.784L180.502 173.121L179.612 170.585L177.725 171.247ZM179.228 172.509L166.999 176.801L167.661 178.688L179.89 174.396L179.228 172.509ZM168.274 177.414L167.383 174.877L165.496 175.54L166.387 178.076L168.274 177.414ZM164.868 182.543L184.615 175.612L183.953 173.724L164.206 180.656L164.868 182.543ZM183.34 174.999L184.247 177.581L186.134 176.918L185.228 174.337L183.34 174.999ZM184.859 176.306L165.112 183.238L165.775 185.125L185.521 178.193L184.859 176.306ZM166.387 183.85L165.481 181.268L163.594 181.931L164.5 184.512L166.387 183.85ZM171.897 175.828L174.796 174.811L174.133 172.924L171.235 173.941L171.897 175.828ZM173.521 174.198L177.13 184.479L179.017 183.817L175.408 173.536L173.521 174.198ZM177.13 184.479C177.379 185.189 177.415 185.58 177.374 185.825C177.342 186.016 177.245 186.225 176.887 186.52L178.16 188.063C178.768 187.561 179.212 186.957 179.347 186.155C179.472 185.406 179.301 184.625 179.017 183.817L177.13 184.479ZM176.868 186.536C176.105 187.198 174.805 187.72 172.74 188.445L173.402 190.332C175.367 189.642 177.07 189.008 178.179 188.047L176.868 186.536ZM173.931 188.879C173.409 187.997 172.32 186.91 171.604 186.31L170.32 187.843C170.973 188.391 171.859 189.306 172.21 189.899L173.931 188.879ZM171.249 188.035C172.763 187.58 174.538 186.958 175.065 186.746L174.318 184.891C173.865 185.073 172.152 185.676 170.675 186.119L171.249 188.035ZM175.067 186.745C175.282 186.658 175.712 186.482 175.976 186.091C176.318 185.585 176.197 185.059 176.094 184.766L174.207 185.429C174.222 185.47 174.202 185.431 174.202 185.343C174.202 185.232 174.235 185.095 174.319 184.971C174.355 184.918 174.391 184.881 174.417 184.859C174.429 184.848 174.439 184.84 174.446 184.835C174.452 184.83 174.456 184.828 174.456 184.828C174.457 184.828 174.454 184.829 174.448 184.833C174.441 184.836 174.433 184.841 174.42 184.846C174.396 184.858 174.362 184.873 174.316 184.892L175.067 186.745ZM176.094 184.766L172.509 174.553L170.622 175.216L174.207 185.429L176.094 184.766ZM169.139 167.97L172.037 166.953L171.375 165.066L168.476 166.083L169.139 167.97ZM170.763 166.34L172.193 170.417L174.081 169.754L172.65 165.678L170.763 166.34ZM172.806 169.142L169.907 170.159L170.57 172.046L173.468 171.029L172.806 169.142ZM171.182 170.772L169.751 166.695L167.864 167.358L169.295 171.434L171.182 170.772ZM161.599 173.084L181.255 166.184L180.593 164.297L160.937 171.197L161.599 173.084ZM179.98 165.572L182.007 171.347L183.895 170.684L181.868 164.91L179.98 165.572ZM182.62 170.072L179.789 171.065L180.452 172.953L183.282 171.959L182.62 170.072ZM181.064 171.678L179.919 168.417L178.032 169.079L179.177 172.34L181.064 171.678ZM178.644 167.804L164.491 172.773L165.154 174.66L179.307 169.692L178.644 167.804ZM163.879 174.047L165.023 177.308L166.911 176.646L165.766 173.385L163.879 174.047ZM165.636 176.033L162.964 176.971L163.626 178.859L166.298 177.921L165.636 176.033ZM164.238 177.584L162.211 171.809L160.324 172.472L162.351 178.246L164.238 177.584ZM188.322 169.868L187.991 168.924L187.047 169.255L187.378 170.199L188.322 169.868ZM203.744 164.454L204.687 164.123L204.356 163.18L203.412 163.511L203.744 164.454ZM208.163 177.045L208.494 177.989L209.438 177.658L209.107 176.714L208.163 177.045ZM205.378 178.023L204.434 178.354L204.765 179.298L205.709 178.967L205.378 178.023ZM201.841 167.946L202.784 167.615L202.453 166.671L201.509 167.002L201.841 167.946ZM191.854 171.451L191.523 170.508L190.579 170.839L190.91 171.782L191.854 171.451ZM195.391 181.529L195.722 182.472L196.666 182.141L196.335 181.197L195.391 181.529ZM192.742 182.459L191.798 182.79L192.129 183.733L193.073 183.402L192.742 182.459ZM193.571 164.82L193.239 163.877L192.296 164.208L192.627 165.152L193.571 164.82ZM196.288 163.867L197.232 163.535L196.9 162.592L195.957 162.923L196.288 163.867ZM201.057 177.454L201.389 178.397L202.332 178.066L202.001 177.123L201.057 177.454ZM198.34 178.408L197.396 178.739L197.728 179.682L198.671 179.351L198.34 178.408ZM191.129 174.097L190.798 173.153L189.854 173.484L190.186 174.428L191.129 174.097ZM204.309 169.47L205.252 169.139L204.921 168.196L203.978 168.527L204.309 169.47ZM205.112 171.758L205.443 172.701L206.386 172.37L206.055 171.426L205.112 171.758ZM191.932 176.384L190.988 176.715L191.32 177.659L192.263 177.327L191.932 176.384ZM192.712 178.679L192.381 177.735L191.437 178.067L191.769 179.01L192.712 178.679ZM205.937 174.037L206.881 173.706L206.549 172.762L205.606 173.093L205.937 174.037ZM206.819 176.55L207.151 177.494L208.094 177.163L207.763 176.219L206.819 176.55ZM193.594 181.193L192.651 181.524L192.982 182.467L193.926 182.136L193.594 181.193ZM191.453 159.078L191.122 158.134L190.178 158.465L190.509 159.409L191.453 159.078ZM194.352 158.06L195.295 157.729L194.964 156.785L194.02 157.117L194.352 158.06ZM195.798 162.182L196.13 163.125L197.073 162.794L196.742 161.85L195.798 162.182ZM192.9 163.199L191.956 163.53L192.287 164.474L193.231 164.143L192.9 163.199ZM184.218 164.263L183.887 163.319L182.943 163.65L183.274 164.594L184.218 164.263ZM203.376 157.538L204.32 157.207L203.988 156.263L203.045 156.594L203.376 157.538ZM205.347 163.154L205.679 164.097L206.622 163.766L206.291 162.823L205.347 163.154ZM202.539 164.14L201.596 164.471L201.927 165.414L202.87 165.083L202.539 164.14ZM201.442 161.014L202.386 160.683L202.055 159.74L201.111 160.071L201.442 161.014ZM187.765 165.816L187.433 164.872L186.49 165.203L186.821 166.147L187.765 165.816ZM188.861 168.941L189.193 169.884L190.136 169.553L189.805 168.609L188.861 168.941ZM186.189 169.879L185.246 170.21L185.577 171.153L186.521 170.822L186.189 169.879ZM188.653 170.811L204.075 165.398L203.412 163.511L187.991 168.924L188.653 170.811ZM202.8 164.786L207.22 177.377L209.107 176.714L204.687 164.123L202.8 164.786ZM207.832 176.102L205.047 177.079L205.709 178.967L208.494 177.989L207.832 176.102ZM206.321 177.692L202.784 167.615L200.897 168.277L204.434 178.354L206.321 177.692ZM201.509 167.002L191.523 170.508L192.185 172.395L202.172 168.889L201.509 167.002ZM190.91 171.782L194.448 181.86L196.335 181.197L192.797 171.12L190.91 171.782ZM195.06 180.585L192.41 181.515L193.073 183.402L195.722 182.472L195.06 180.585ZM193.685 182.127L189.266 169.536L187.378 170.199L191.798 182.79L193.685 182.127ZM193.902 165.764L196.619 164.81L195.957 162.923L193.239 163.877L193.902 165.764ZM195.344 164.198L200.114 177.785L202.001 177.123L197.232 163.535L195.344 164.198ZM200.726 176.51L198.009 177.464L198.671 179.351L201.389 178.397L200.726 176.51ZM199.284 178.076L194.514 164.489L192.627 165.152L197.396 178.739L199.284 178.076ZM191.46 175.04L204.64 170.414L203.978 168.527L190.798 173.153L191.46 175.04ZM203.365 169.802L204.168 172.089L206.055 171.426L205.252 169.139L203.365 169.802ZM204.78 170.814L191.601 175.44L192.263 177.327L205.443 172.701L204.78 170.814ZM192.876 176.053L192.073 173.765L190.186 174.428L190.988 176.715L192.876 176.053ZM193.043 179.623L206.268 174.98L205.606 173.093L192.381 177.735L193.043 179.623ZM204.994 174.368L205.876 176.882L207.763 176.219L206.881 173.706L204.994 174.368ZM206.488 175.607L193.263 180.249L193.926 182.136L207.151 177.494L206.488 175.607ZM194.538 180.861L193.656 178.348L191.769 179.01L192.651 181.524L194.538 180.861ZM191.784 160.021L194.683 159.004L194.02 157.117L191.122 158.134L191.784 160.021ZM193.408 158.391L194.855 162.513L196.742 161.85L195.295 157.729L193.408 158.391ZM195.467 161.238L192.569 162.256L193.231 164.143L196.13 163.125L195.467 161.238ZM193.843 162.868L192.397 158.746L190.509 159.409L191.956 163.53L193.843 162.868ZM184.549 165.206L203.707 158.481L203.045 156.594L183.887 163.319L184.549 165.206ZM202.432 157.869L204.404 163.485L206.291 162.823L204.32 157.207L202.432 157.869ZM205.016 162.21L202.208 163.196L202.87 165.083L205.679 164.097L205.016 162.21ZM203.483 163.808L202.386 160.683L200.499 161.346L201.596 164.471L203.483 163.808ZM201.111 160.071L187.433 164.872L188.096 166.759L201.774 161.958L201.111 160.071ZM186.821 166.147L187.918 169.272L189.805 168.609L188.708 165.484L186.821 166.147ZM188.53 167.997L185.858 168.935L186.521 170.822L189.193 169.884L188.53 167.997ZM187.133 169.547L185.162 163.931L183.274 164.594L185.246 170.21L187.133 169.547ZM218.105 162.109L217.774 161.166L216.831 161.497L217.162 162.441L218.105 162.109ZM220.846 161.148L221.789 160.816L221.458 159.873L220.514 160.204L220.846 161.148ZM221.696 163.571L222.027 164.514L222.971 164.183L222.64 163.239L221.696 163.571ZM218.956 164.532L218.012 164.864L218.344 165.807L219.287 165.476L218.956 164.532ZM218.753 164.171L218.821 163.174L218.201 163.131L217.888 163.669L218.753 164.171ZM221.177 164.338L222.059 164.808L222.785 163.446L221.245 163.34L221.177 164.338ZM212.851 172.068L212.155 172.786L212.693 173.307L213.345 172.937L212.851 172.068ZM210.71 170.606L210.258 169.714L208.45 170.63L210.277 171.508L210.71 170.606ZM221.717 162.978L222.475 162.326L221.921 161.681L221.196 162.125L221.717 162.978ZM232.976 165.996L233.867 166.448L234.795 164.622L232.785 165.014L232.976 165.996ZM232.259 168.664L232.408 169.652L233.167 169.538L233.253 168.775L232.259 168.664ZM219.665 164.233L219.143 163.38L218.151 163.986L218.899 164.876L219.665 164.233ZM228.078 162.043L228.374 161.087L227.652 160.864L227.24 161.497L228.078 162.043ZM230.504 162.794L231.309 163.386L232.142 162.254L230.8 161.838L230.504 162.794ZM226.796 166.868L226.454 167.807L227.023 168.014L227.471 167.606L226.796 166.868ZM224.696 166.104L224.007 165.379L222.838 166.492L224.355 167.044L224.696 166.104ZM214.567 172.101L214.131 171.201L213.176 171.664L213.695 172.59L214.567 172.101ZM223.544 167.602L224.472 167.231L224.064 166.209L223.086 166.713L223.544 167.602ZM224.373 169.676L224.839 170.561L225.637 170.142L225.302 169.305L224.373 169.676ZM215.723 174.163L214.851 174.652L215.322 175.492L216.179 175.053L215.723 174.163ZM209.672 166.418L209.341 165.474L208.398 165.805L208.729 166.749L209.672 166.418ZM230.121 159.24L231.065 158.909L230.734 157.965L229.79 158.296L230.121 159.24ZM230.868 161.368L231.2 162.312L232.143 161.981L231.812 161.037L230.868 161.368ZM210.42 168.546L209.476 168.877L209.807 169.821L210.751 169.49L210.42 168.546ZM217.964 150.764L217.633 149.82L216.689 150.152L217.02 151.095L217.964 150.764ZM220.387 149.913L221.33 149.582L220.999 148.639L220.056 148.97L220.387 149.913ZM223.05 157.5L223.381 158.443L224.325 158.112L223.993 157.168L223.05 157.5ZM220.627 158.35L219.683 158.681L220.014 159.625L220.958 159.294L220.627 158.35ZM222.601 148.322L222.27 147.379L221.326 147.71L221.657 148.654L222.601 148.322ZM225.069 147.456L226.013 147.125L225.682 146.181L224.738 146.512L225.069 147.456ZM227.946 158.986L227.278 158.242L227.278 158.242L227.946 158.986ZM224.563 160.58L223.693 161.072L224.105 161.801L224.895 161.524L224.563 160.58ZM223.016 158.707L222.727 157.75L221.07 158.25L222.331 159.435L223.016 158.707ZM225.469 157.871L225.138 156.928L225.105 156.939L225.072 156.954L225.469 157.871ZM210.014 152.537L209.683 151.593L208.74 151.925L209.071 152.868L210.014 152.537ZM212.347 151.718L213.29 151.387L212.959 150.443L212.016 150.775L212.347 151.718ZM216.456 163.426L216.788 164.369L217.731 164.038L217.4 163.095L216.456 163.426ZM214.124 164.245L213.18 164.576L213.512 165.519L214.455 165.188L214.124 164.245ZM216.511 157.785L216.18 156.842L215.237 157.173L215.568 158.116L216.511 157.785ZM218.685 157.022L219.629 156.691L219.298 155.747L218.354 156.079L218.685 157.022ZM219.407 161.398L218.711 160.68L218.706 160.685L218.7 160.691L219.407 161.398ZM217.238 162.465L216.387 162.989L216.809 163.675L217.569 163.408L217.238 162.465ZM216.033 161.133L215.743 160.176L214.077 160.68L215.352 161.865L216.033 161.133ZM217.256 160.703L216.925 159.76L216.866 159.78L216.81 159.808L217.256 160.703ZM208.608 160.559L208.277 159.616L207.333 159.947L207.665 160.891L208.608 160.559ZM217.417 157.467L218.361 157.136L218.029 156.193L217.086 156.524L217.417 157.467ZM217.997 159.12L218.329 160.064L219.272 159.733L218.941 158.789L217.997 159.12ZM211.249 161.489L210.918 160.546L209.974 160.877L210.306 161.82L211.249 161.489ZM212.243 164.32L212.574 165.263L213.517 164.932L213.186 163.989L212.243 164.32ZM210.182 165.043L209.238 165.374L209.57 166.318L210.513 165.987L210.182 165.043ZM206.765 158.281L206.434 157.338L205.491 157.669L205.822 158.612L206.765 158.281ZM218.133 154.291L219.077 153.96L218.746 153.016L217.802 153.347L218.133 154.291ZM218.769 156.102L219.101 157.046L220.044 156.715L219.713 155.771L218.769 156.102ZM207.401 160.093L206.458 160.424L206.789 161.368L207.733 161.036L207.401 160.093ZM208.334 154.78L208.003 153.836L207.369 154.059L207.336 154.73L208.334 154.78ZM216.6 151.879L217.544 151.547L217.212 150.604L216.269 150.935L216.6 151.879ZM217.204 153.6L217.535 154.543L218.479 154.212L218.148 153.268L217.204 153.6ZM208.237 156.747L207.238 156.698L207.164 158.184L208.568 157.691L208.237 156.747ZM207.109 153.608L207.006 152.613L206.095 152.707L206.109 153.623L207.109 153.608ZM209.269 153.384L210.269 153.378L210.262 152.275L209.166 152.389L209.269 153.384ZM208.611 157.888L208.318 158.844L209.234 159.125L209.554 158.221L208.611 157.888ZM206.457 157.474L205.538 157.079L205.014 158.299L206.331 158.466L206.457 157.474ZM216.069 169.132L215.167 168.699L214.988 169.073L215.125 169.464L216.069 169.132ZM216.98 167.236L216.953 166.236L216.343 166.252L216.078 166.803L216.98 167.236ZM218.315 167.199L219.259 166.868L219.017 166.18L218.288 166.2L218.315 167.199ZM219.857 171.592L220.188 172.536L221.132 172.205L220.801 171.261L219.857 171.592ZM217.253 172.507L216.309 172.838L216.641 173.781L217.584 173.45L217.253 172.507ZM218.437 163.053L221.177 162.091L220.514 160.204L217.774 161.166L218.437 163.053ZM219.902 161.479L220.753 163.902L222.64 163.239L221.789 160.816L219.902 161.479ZM221.365 162.627L218.625 163.589L219.287 165.476L222.027 164.514L221.365 162.627ZM219.9 164.201L219.049 161.778L217.162 162.441L218.012 164.864L219.9 164.201ZM218.684 165.169L221.108 165.336L221.245 163.34L218.821 163.174L218.684 165.169ZM220.294 163.868C218.885 166.514 215.792 169.248 212.357 171.198L213.345 172.937C216.952 170.889 220.402 167.919 222.059 164.808L220.294 163.868ZM213.547 171.349C212.958 170.779 211.899 170.068 211.143 169.705L210.277 171.508C210.868 171.791 211.742 172.386 212.155 172.786L213.547 171.349ZM211.162 171.498C212.929 170.603 214.671 169.52 216.148 168.363C217.612 167.216 218.876 165.95 219.617 164.674L217.888 163.669C217.33 164.63 216.289 165.711 214.915 166.788C213.554 167.854 211.925 168.87 210.258 169.714L211.162 171.498ZM220.959 163.63C223.794 166.928 227.876 168.008 233.167 166.977L232.785 165.014C227.981 165.95 224.713 164.929 222.475 162.326L220.959 163.63ZM232.084 165.543C231.663 166.372 231.359 167.723 231.265 168.552L233.253 168.775C233.332 168.068 233.597 166.981 233.867 166.448L232.084 165.543ZM232.11 167.675C229.439 168.077 227.262 167.913 225.403 167.244C223.549 166.576 221.935 165.379 220.43 163.589L218.899 164.876C220.582 166.877 222.475 168.315 224.726 169.125C226.972 169.934 229.499 170.09 232.408 169.652L232.11 167.675ZM220.186 165.086L222.239 163.831L221.196 162.125L219.143 163.38L220.186 165.086ZM227.782 162.998L230.208 163.749L230.8 161.838L228.374 161.087L227.782 162.998ZM229.698 162.201C228.661 163.611 227.26 165.089 226.121 166.129L227.471 167.606C228.681 166.499 230.177 164.925 231.309 163.386L229.698 162.201ZM227.138 165.928L225.038 165.164L224.355 167.044L226.454 167.807L227.138 165.928ZM225.386 166.828C226.587 165.686 228.082 163.872 228.917 162.588L227.24 161.497C226.489 162.652 225.094 164.345 224.007 165.379L225.386 166.828ZM215.003 173.001C217.294 171.891 220.743 170.17 224.002 168.491L223.086 166.713C219.84 168.386 216.405 170.099 214.131 171.201L215.003 173.001ZM222.615 167.974L223.445 170.048L225.302 169.305L224.472 167.231L222.615 167.974ZM223.908 168.792C220.863 170.394 217.637 172.06 215.267 173.273L216.179 175.053C218.553 173.838 221.786 172.168 224.839 170.561L223.908 168.792ZM216.595 173.674L215.439 171.612L213.695 172.59L214.851 174.652L216.595 173.674ZM210.004 167.361L230.452 160.183L229.79 158.296L209.341 165.474L210.004 167.361ZM229.178 159.571L229.925 161.7L231.812 161.037L231.065 158.909L229.178 159.571ZM230.537 160.425L210.088 167.603L210.751 169.49L231.2 162.312L230.537 160.425ZM211.363 168.215L210.616 166.086L208.729 166.749L209.476 168.877L211.363 168.215ZM218.295 151.707L220.718 150.857L220.056 148.97L217.633 149.82L218.295 151.707ZM219.443 150.245L222.106 157.831L223.993 157.168L221.33 149.582L219.443 150.245ZM222.719 156.556L220.295 157.407L220.958 159.294L223.381 158.443L222.719 156.556ZM221.57 158.019L218.907 150.433L217.02 151.095L219.683 158.681L221.57 158.019ZM222.932 149.266L225.4 148.399L224.738 146.512L222.27 147.379L222.932 149.266ZM224.126 147.787L227.313 156.868L229.2 156.205L226.013 147.125L224.126 147.787ZM227.313 156.868C227.508 157.424 227.54 157.704 227.523 157.859C227.514 157.949 227.487 158.054 227.278 158.242L228.615 159.729C229.102 159.291 229.437 158.761 229.512 158.077C229.579 157.458 229.418 156.827 229.2 156.205L227.313 156.868ZM227.278 158.242C226.762 158.706 225.881 159.058 224.232 159.637L224.895 161.524C226.416 160.99 227.738 160.517 228.615 159.729L227.278 158.242ZM225.434 160.088C225.029 159.371 224.269 158.513 223.701 157.979L222.331 159.435C222.826 159.901 223.426 160.601 223.693 161.072L225.434 160.088ZM223.305 159.664C224.347 159.35 225.502 158.947 225.867 158.789L225.072 156.954C224.818 157.063 223.754 157.439 222.727 157.75L223.305 159.664ZM225.801 158.815C225.984 158.75 226.411 158.592 226.653 158.166C226.927 157.685 226.781 157.213 226.716 157.027L224.829 157.689C224.859 157.775 224.731 157.5 224.915 157.177C224.998 157.032 225.101 156.958 225.142 156.932C225.179 156.909 225.189 156.91 225.138 156.928L225.801 158.815ZM226.716 157.027L223.544 147.991L221.657 148.654L224.829 157.689L226.716 157.027ZM210.346 153.48L212.678 152.662L212.016 150.775L209.683 151.593L210.346 153.48ZM211.403 152.049L215.513 163.757L217.4 163.095L213.29 151.387L211.403 152.049ZM216.125 162.482L213.793 163.301L214.455 165.188L216.788 164.369L216.125 162.482ZM215.067 163.913L210.958 152.206L209.071 152.868L213.18 164.576L215.067 163.913ZM216.843 158.729L219.016 157.966L218.354 156.079L216.18 156.842L216.843 158.729ZM217.742 157.353L218.648 159.935L220.535 159.273L219.629 156.691L217.742 157.353ZM218.648 159.935C218.792 160.347 218.805 160.507 218.801 160.566C218.8 160.578 218.799 160.576 218.799 160.577C218.796 160.582 218.777 160.616 218.711 160.68L220.103 162.116C220.483 161.748 220.749 161.299 220.795 160.723C220.834 160.219 220.693 159.721 220.535 159.273L218.648 159.935ZM218.7 160.691C218.426 160.965 217.961 161.151 216.907 161.521L217.569 163.408C218.463 163.095 219.447 162.772 220.114 162.105L218.7 160.691ZM218.09 161.941C217.709 161.322 217.068 160.729 216.714 160.4L215.352 161.865C215.753 162.238 216.175 162.645 216.387 162.989L218.09 161.941ZM216.323 162.09C216.841 161.933 217.441 161.728 217.702 161.599L216.81 159.808C216.812 159.807 216.805 159.811 216.783 159.82C216.763 159.829 216.736 159.84 216.703 159.853C216.635 159.879 216.548 159.911 216.447 159.947C216.243 160.018 215.995 160.099 215.743 160.176L216.323 162.09ZM217.587 161.647C217.688 161.611 218.072 161.482 218.298 161.091C218.554 160.649 218.425 160.218 218.369 160.058L216.482 160.721C216.48 160.716 216.456 160.649 216.452 160.543C216.447 160.423 216.47 160.257 216.567 160.09C216.659 159.931 216.775 159.844 216.84 159.804C216.899 159.767 216.939 159.755 216.925 159.76L217.587 161.647ZM218.369 160.058L217.455 157.454L215.568 158.116L216.482 160.721L218.369 160.058ZM208.939 161.503L217.748 158.411L217.086 156.524L208.277 159.616L208.939 161.503ZM216.474 157.799L217.054 159.452L218.941 158.789L218.361 157.136L216.474 157.799ZM217.666 158.177L210.918 160.546L211.58 162.433L218.329 160.064L217.666 158.177ZM210.306 161.82L211.299 164.651L213.186 163.989L212.193 161.158L210.306 161.82ZM211.911 163.376L209.851 164.1L210.513 165.987L212.574 165.263L211.911 163.376ZM211.126 164.712L209.552 160.228L207.665 160.891L209.238 165.374L211.126 164.712ZM207.097 159.225L218.465 155.234L217.802 153.347L206.434 157.338L207.097 159.225ZM217.19 154.622L217.826 156.434L219.713 155.771L219.077 153.96L217.19 154.622ZM218.438 155.159L207.07 159.149L207.733 161.036L219.101 157.046L218.438 155.159ZM208.345 159.762L207.709 157.95L205.822 158.612L206.458 160.424L208.345 159.762ZM208.666 155.723L216.931 152.822L216.269 150.935L208.003 153.836L208.666 155.723ZM215.656 152.21L216.261 153.931L218.148 153.268L217.544 151.547L215.656 152.21ZM216.873 152.656L207.905 155.804L208.568 157.691L217.535 154.543L216.873 152.656ZM209.235 156.797L209.333 154.83L207.336 154.73L207.238 156.698L209.235 156.797ZM207.212 154.602L209.372 154.378L209.166 152.389L207.006 152.613L207.212 154.602ZM208.269 153.39C208.278 154.857 208.041 156.501 207.669 157.554L209.554 158.221C210.024 156.893 210.279 155.007 210.269 153.378L208.269 153.39ZM208.904 156.932C208.277 156.739 207.179 156.557 206.582 156.482L206.331 158.466C206.905 158.539 207.862 158.704 208.318 158.844L208.904 156.932ZM207.376 157.868C207.925 156.588 208.131 154.968 208.109 153.592L206.109 153.623C206.128 154.827 205.94 156.143 205.538 157.079L207.376 157.868ZM216.97 169.565L217.881 167.669L216.078 166.803L215.167 168.699L216.97 169.565ZM217.007 168.235L218.342 168.199L218.288 166.2L216.953 166.236L217.007 168.235ZM217.372 167.53L218.914 171.924L220.801 171.261L219.259 166.868L217.372 167.53ZM219.526 170.649L216.922 171.563L217.584 173.45L220.188 172.536L219.526 170.649ZM218.196 172.175L217.012 168.801L215.125 169.464L216.309 172.838L218.196 172.175ZM235.469 147.519L235.138 146.575L234.194 146.907L234.526 147.85L235.469 147.519ZM236.542 150.576L235.599 150.907L235.93 151.851L236.873 151.52L236.542 150.576ZM244.513 147.778L244.845 148.722L245.788 148.39L245.457 147.447L244.513 147.778ZM243.44 144.721L244.384 144.39L244.053 143.446L243.109 143.777L243.44 144.721ZM231.936 145.859L231.605 144.916L230.661 145.247L230.992 146.191L231.936 145.859ZM245.319 141.162L246.263 140.83L245.932 139.887L244.988 140.218L245.319 141.162ZM248.205 149.382L248.536 150.325L249.48 149.994L249.148 149.051L248.205 149.382ZM234.821 154.08L233.878 154.411L234.209 155.354L235.153 155.023L234.821 154.08ZM232.387 157.071L232.056 156.127L231.112 156.459L231.443 157.402L232.387 157.071ZM241.037 154.034L241.981 153.703L241.65 152.76L240.706 153.091L241.037 154.034ZM244.583 164.134L244.914 165.078L245.857 164.747L245.526 163.803L244.583 164.134ZM241.865 165.088L240.922 165.419L241.253 166.363L242.196 166.032L241.865 165.088ZM239.226 157.57L240.17 157.239L239.838 156.295L238.895 156.626L239.226 157.57ZM235.852 158.754L235.521 157.811L234.577 158.142L234.908 159.086L235.852 158.754ZM238.539 166.408L238.87 167.352L239.813 167.021L239.482 166.077L238.539 166.408ZM235.98 167.307L235.036 167.638L235.367 168.581L236.311 168.25L235.98 167.307ZM242.962 153.359L242.631 152.415L241.687 152.746L242.019 153.69L242.962 153.359ZM251.93 150.211L252.873 149.88L252.542 148.936L251.599 149.267L251.93 150.211ZM255.483 160.334L255.814 161.277L256.758 160.946L256.426 160.002L255.483 160.334ZM252.743 161.295L251.799 161.627L252.13 162.57L253.074 162.239L252.743 161.295ZM250.096 153.754L251.039 153.423L250.708 152.48L249.765 152.811L250.096 153.754ZM246.473 155.026L246.141 154.083L245.198 154.414L245.529 155.357L246.473 155.026ZM249.159 162.68L249.491 163.624L250.434 163.293L250.103 162.349L249.159 162.68ZM246.555 163.595L245.612 163.926L245.943 164.869L246.886 164.538L246.555 163.595ZM235.8 163.173L235.469 162.229L234.526 162.56L234.857 163.504L235.8 163.173ZM241.733 161.09L242.677 160.759L242.346 159.815L241.402 160.147L241.733 161.09ZM242.648 163.694L242.979 164.638L243.922 164.307L243.591 163.363L242.648 163.694ZM236.715 165.777L235.771 166.108L236.102 167.052L237.046 166.721L236.715 165.777ZM246.489 159.421L246.158 158.477L245.214 158.808L245.545 159.752L246.489 159.421ZM252.83 157.195L253.773 156.864L253.442 155.92L252.499 156.252L252.83 157.195ZM253.744 159.799L254.075 160.743L255.019 160.412L254.687 159.468L253.744 159.799ZM247.403 162.025L246.46 162.356L246.791 163.3L247.734 162.969L247.403 162.025ZM234.526 147.85L235.599 150.907L237.486 150.245L236.413 147.188L234.526 147.85ZM236.873 151.52L244.845 148.722L244.182 146.835L236.211 149.633L236.873 151.52ZM245.457 147.447L244.384 144.39L242.497 145.052L243.57 148.109L245.457 147.447ZM243.109 143.777L235.138 146.575L235.8 148.463L243.771 145.664L243.109 143.777ZM232.267 146.803L245.651 142.105L244.988 140.218L231.605 144.916L232.267 146.803ZM244.376 141.493L247.261 149.713L249.148 149.051L246.263 140.83L244.376 141.493ZM247.874 148.438L234.49 153.136L235.153 155.023L248.536 150.325L247.874 148.438ZM235.765 153.749L232.88 145.528L230.992 146.191L233.878 154.411L235.765 153.749ZM232.718 158.015L241.369 154.978L240.706 153.091L232.056 156.127L232.718 158.015ZM240.094 154.366L243.639 164.466L245.526 163.803L241.981 153.703L240.094 154.366ZM244.251 163.191L241.534 164.145L242.196 166.032L244.914 165.078L244.251 163.191ZM242.809 164.757L240.17 157.239L238.282 157.901L240.922 165.419L242.809 164.757ZM238.895 156.626L235.521 157.811L236.183 159.698L239.557 158.513L238.895 156.626ZM234.908 159.086L237.595 166.74L239.482 166.077L236.795 158.423L234.908 159.086ZM238.207 165.465L235.648 166.363L236.311 168.25L238.87 167.352L238.207 165.465ZM236.923 166.975L233.33 156.74L231.443 157.402L235.036 167.638L236.923 166.975ZM243.293 154.302L252.261 151.155L251.599 149.267L242.631 152.415L243.293 154.302ZM250.986 150.542L254.539 160.665L256.426 160.002L252.873 149.88L250.986 150.542ZM255.152 159.39L252.412 160.352L253.074 162.239L255.814 161.277L255.152 159.39ZM253.686 160.964L251.039 153.423L249.152 154.086L251.799 161.627L253.686 160.964ZM249.765 152.811L246.141 154.083L246.804 155.97L250.427 154.698L249.765 152.811ZM245.529 155.357L248.216 163.012L250.103 162.349L247.416 154.695L245.529 155.357ZM248.828 161.737L246.224 162.651L246.886 164.538L249.491 163.624L248.828 161.737ZM247.499 163.263L243.906 153.028L242.019 153.69L245.612 163.926L247.499 163.263ZM236.132 164.116L242.065 162.034L241.402 160.147L235.469 162.229L236.132 164.116ZM240.79 161.421L241.704 164.026L243.591 163.363L242.677 160.759L240.79 161.421ZM242.316 162.751L236.383 164.833L237.046 166.721L242.979 164.638L242.316 162.751ZM237.658 165.446L236.744 162.842L234.857 163.504L235.771 166.108L237.658 165.446ZM246.82 160.364L253.161 158.139L252.499 156.252L246.158 158.477L246.82 160.364ZM251.886 157.526L252.8 160.131L254.687 159.468L253.773 156.864L251.886 157.526ZM253.413 158.856L247.072 161.082L247.734 162.969L254.075 160.743L253.413 158.856ZM248.347 161.694L247.433 159.09L245.545 159.752L246.46 162.356L248.347 161.694Z" fill="black" mask="url(#path-12-outside-1_344_436)"/>
<rect x="114.779" y="217.099" width="214" height="126" transform="rotate(-19.3419 114.779 217.099)" fill="#D9D9D9"/>
<g style="mix-blend-mode:exclusion">
<mask id="path-15-outside-2_344_436" maskUnits="userSpaceOnUse" x="129.424" y="134.251" width="373.114" height="197.981" fill="black">
<rect fill="white" x="129.424" y="134.251" width="373.114" height="197.981"/>
<path d="M146.103 286.408L162.242 280.743L165.271 289.37L149.132 295.035L146.103 286.408ZM149.246 268.475L168.77 261.622L171.825 270.324L152.301 277.178L149.246 268.475ZM172.719 263.975C182.895 280.973 196.16 293.232 212.045 294.966C211.05 297.355 210.021 301.966 209.809 304.845C192.615 301.701 179.235 287.953 167.199 267.783L172.719 263.975ZM190.211 260.811L199.072 264.585C195.893 272.161 191.898 280.703 188.444 286.336L181.446 282.842C184.734 276.928 188.489 267.705 190.211 260.811ZM164.418 263.149L172.276 260.391L188.134 305.569C189.834 310.412 189.864 313.206 187.857 315.611C185.762 317.961 182.189 319.386 177.051 321.189C175.819 318.647 173.323 315.018 171.358 312.902C174.521 312.047 178.329 310.711 179.357 310.35C180.418 309.892 180.648 309.387 180.223 308.176L164.418 263.149ZM151.251 259.101L152.275 250.412C160.011 249.822 171.54 250.365 177.907 251.87L177.014 261.703C170.896 259.941 159.449 258.859 151.251 259.101ZM159.522 281.698L160.973 281.188L162.136 280.44L167.935 281.294C170.586 298.129 168.383 312.162 163.153 321.053C161.314 319.488 157.13 317.047 154.872 316.224C160.206 308.402 162.294 296.364 160.133 283.438L159.522 281.698Z"/>
<path d="M215.022 261.281L224.797 289.13L217.846 291.57L211.019 272.121L204.249 274.498L201.3 266.098L215.022 261.281ZM223.548 285.573C227.598 289.761 232.66 290.449 238.993 288.567C246.405 286.475 260.651 281.219 268.761 277.437C268.693 279.756 269.005 284.322 269.633 287.076C262.236 290.183 249.414 294.853 241.881 296.988C234.494 299.155 228.828 298.68 223.156 294.126C221.774 297.926 220.245 301.692 218.365 306.007L211.758 298.211C213.58 295.277 215.585 291.513 217.262 287.78L223.548 285.573ZM193.593 243.559L197.374 236.537C201.988 238.657 207.999 242.242 211.121 245.141L207.156 252.993C204.222 249.857 198.34 246.057 193.593 243.559ZM228.051 256.623L229.751 261.466L246.374 255.631L244.674 250.788L228.051 256.623ZM219.277 252.903L249.561 242.273L255.511 259.224L225.227 269.854L219.277 252.903ZM211.779 245.08L250.766 231.395L253.024 237.827L214.037 251.512L211.779 245.08ZM211.522 234.29L243.8 222.96L246.031 229.317L213.753 240.647L211.522 234.29ZM222.373 225.552L229.384 223.09L235.813 241.404L228.801 243.865L222.373 225.552ZM235.495 262.935L242.386 260.516L250.089 282.462L243.198 284.881L235.495 262.935ZM235.381 262.805L242.544 263.095C241.124 272.009 236.143 280.642 230.38 286.66C228.949 285.292 225.646 282.457 223.818 281.313C229.269 276.34 234.083 269.55 235.381 262.805ZM253.486 257.13L260.353 259.479C258.132 263.404 255.495 267.304 253.36 269.924L248.088 267.864C249.97 264.909 252.28 260.273 253.486 257.13ZM242.89 261.954C248.117 267.174 256.031 269.411 264.708 268.405C263.815 270.504 263.151 274.222 263.075 276.713C253.415 277.044 244.89 273.067 238.129 265.41L242.89 261.954Z"/>
<path d="M284.938 217.53C286.801 225.546 288.7 234.824 289.719 244.496C291.458 261.056 289.554 272.264 282.965 274.577C276.195 276.953 267.367 269.597 262.878 256.808C256.768 239.403 263.658 220.154 279.314 214.659C294.244 209.418 308.303 219.103 314.12 235.676C319.698 251.568 315.859 265.58 301.662 273.878L293.934 266.561C296.158 265.356 297.718 264.383 299.191 263.356C306.044 258.316 309.671 249.307 305.766 238.183C301.596 226.302 292.697 219.906 282.24 223.577C269.426 228.075 267.009 243.628 270.356 253.163C273.039 260.806 276.759 263.665 279.056 262.859C281.655 261.947 282.252 256.297 281.204 245.19C280.46 237.461 278.735 228.292 276.551 220.134L284.938 217.53Z"/>
<path d="M322.497 215.056L355.138 203.598L358.113 212.074L325.472 223.531L322.497 215.056ZM318.621 235.541L371.33 217.039L374.358 225.666L321.65 244.168L318.621 235.541ZM336.49 215.074L344.227 212.358L356.286 246.715C358.066 251.785 357.923 254.47 355.439 256.872C353.042 259.328 349.045 260.901 343.666 262.789C342.313 260.289 339.394 256.809 337.395 254.791C341.404 253.638 346.058 252.005 347.362 251.462C348.604 250.941 348.921 250.49 348.47 249.203L336.49 215.074ZM327.272 188.815L335.009 186.099L339.791 199.721L332.054 202.436L327.272 188.815ZM307.665 203.942L360.132 185.525L366.906 204.823L359.35 207.475L355.525 196.578L317.747 209.838L321.572 220.736L314.439 223.239L307.665 203.942Z"/>
<path d="M377.166 203.686L418.33 189.237L433.099 231.312L425.664 233.922L413.843 200.246L387.187 209.603L399.007 243.279L391.935 245.761L377.166 203.686ZM390.502 188.295L397.756 185.749L413.694 231.154L406.44 233.7L390.502 188.295ZM385.755 218.096L420.934 205.747L423.617 213.391L388.438 225.739L385.755 218.096ZM391.06 233.403L426.36 221.012L429.309 229.412L394.009 241.803L391.06 233.403ZM383.487 169.083L391.224 166.367L396.058 180.14L388.321 182.856L383.487 169.083ZM364.731 184.506L415.868 166.556L422.455 185.324L414.96 187.955L411.295 177.512L374.785 190.327L378.451 200.77L371.318 203.274L364.731 184.506Z"/>
<path d="M446.192 155.657C443.65 165.049 436.961 176.747 429.157 185.266C427.567 183.445 424.498 180.697 422.383 179.314C430.656 170.97 437.314 158.603 439.353 149.133L446.728 146.544C456.818 153.627 469.119 157.724 479.877 158.198C478.981 161.062 478.465 164.813 478.125 167.908C467.774 166.271 454.429 161.521 446.192 155.657ZM441.281 184.411L467.937 175.054L470.222 181.562L443.565 190.919L441.281 184.411ZM445.055 164.216L452.55 161.585L456.136 171.801L448.641 174.432L445.055 164.216ZM441.12 218.381C447.678 215.4 457.427 210.873 466.518 206.406L469.421 214.482C460.873 218.758 451.695 223.169 445.036 226.442L441.12 218.381ZM462.014 193.962C469.547 201.688 480.439 203.9 493.71 201.282C492.802 203.725 492.204 208.015 492.086 210.776C477.685 212.687 466.329 208.768 456.593 198.246L462.014 193.962ZM479.315 186.19L486.486 189.792C483.126 195.307 478.731 201.354 475.108 205.346L469.029 201.955C472.573 197.736 476.936 191.02 479.315 186.19ZM437.429 173.438L468.921 162.383L478.989 191.064L447.497 202.118L445.026 195.081L469.205 186.594L464.078 171.988L439.9 180.475L437.429 173.438ZM432.956 175.008L440.149 172.483L454.971 214.709L448.124 218.218L432.956 175.008Z"/>
</mask>
<path d="M146.103 286.408L162.242 280.743L165.271 289.37L149.132 295.035L146.103 286.408ZM149.246 268.475L168.77 261.622L171.825 270.324L152.301 277.178L149.246 268.475ZM172.719 263.975C182.895 280.973 196.16 293.232 212.045 294.966C211.05 297.355 210.021 301.966 209.809 304.845C192.615 301.701 179.235 287.953 167.199 267.783L172.719 263.975ZM190.211 260.811L199.072 264.585C195.893 272.161 191.898 280.703 188.444 286.336L181.446 282.842C184.734 276.928 188.489 267.705 190.211 260.811ZM164.418 263.149L172.276 260.391L188.134 305.569C189.834 310.412 189.864 313.206 187.857 315.611C185.762 317.961 182.189 319.386 177.051 321.189C175.819 318.647 173.323 315.018 171.358 312.902C174.521 312.047 178.329 310.711 179.357 310.35C180.418 309.892 180.648 309.387 180.223 308.176L164.418 263.149ZM151.251 259.101L152.275 250.412C160.011 249.822 171.54 250.365 177.907 251.87L177.014 261.703C170.896 259.941 159.449 258.859 151.251 259.101ZM159.522 281.698L160.973 281.188L162.136 280.44L167.935 281.294C170.586 298.129 168.383 312.162 163.153 321.053C161.314 319.488 157.13 317.047 154.872 316.224C160.206 308.402 162.294 296.364 160.133 283.438L159.522 281.698Z" fill="white"/>
<path d="M215.022 261.281L224.797 289.13L217.846 291.57L211.019 272.121L204.249 274.498L201.3 266.098L215.022 261.281ZM223.548 285.573C227.598 289.761 232.66 290.449 238.993 288.567C246.405 286.475 260.651 281.219 268.761 277.437C268.693 279.756 269.005 284.322 269.633 287.076C262.236 290.183 249.414 294.853 241.881 296.988C234.494 299.155 228.828 298.68 223.156 294.126C221.774 297.926 220.245 301.692 218.365 306.007L211.758 298.211C213.58 295.277 215.585 291.513 217.262 287.78L223.548 285.573ZM193.593 243.559L197.374 236.537C201.988 238.657 207.999 242.242 211.121 245.141L207.156 252.993C204.222 249.857 198.34 246.057 193.593 243.559ZM228.051 256.623L229.751 261.466L246.374 255.631L244.674 250.788L228.051 256.623ZM219.277 252.903L249.561 242.273L255.511 259.224L225.227 269.854L219.277 252.903ZM211.779 245.08L250.766 231.395L253.024 237.827L214.037 251.512L211.779 245.08ZM211.522 234.29L243.8 222.96L246.031 229.317L213.753 240.647L211.522 234.29ZM222.373 225.552L229.384 223.09L235.813 241.404L228.801 243.865L222.373 225.552ZM235.495 262.935L242.386 260.516L250.089 282.462L243.198 284.881L235.495 262.935ZM235.381 262.805L242.544 263.095C241.124 272.009 236.143 280.642 230.38 286.66C228.949 285.292 225.646 282.457 223.818 281.313C229.269 276.34 234.083 269.55 235.381 262.805ZM253.486 257.13L260.353 259.479C258.132 263.404 255.495 267.304 253.36 269.924L248.088 267.864C249.97 264.909 252.28 260.273 253.486 257.13ZM242.89 261.954C248.117 267.174 256.031 269.411 264.708 268.405C263.815 270.504 263.151 274.222 263.075 276.713C253.415 277.044 244.89 273.067 238.129 265.41L242.89 261.954Z" fill="white"/>
<path d="M284.938 217.53C286.801 225.546 288.7 234.824 289.719 244.496C291.458 261.056 289.554 272.264 282.965 274.577C276.195 276.953 267.367 269.597 262.878 256.808C256.768 239.403 263.658 220.154 279.314 214.659C294.244 209.418 308.303 219.103 314.12 235.676C319.698 251.568 315.859 265.58 301.662 273.878L293.934 266.561C296.158 265.356 297.718 264.383 299.191 263.356C306.044 258.316 309.671 249.307 305.766 238.183C301.596 226.302 292.697 219.906 282.24 223.577C269.426 228.075 267.009 243.628 270.356 253.163C273.039 260.806 276.759 263.665 279.056 262.859C281.655 261.947 282.252 256.297 281.204 245.19C280.46 237.461 278.735 228.292 276.551 220.134L284.938 217.53Z" fill="white"/>
<path d="M322.497 215.056L355.138 203.598L358.113 212.074L325.472 223.531L322.497 215.056ZM318.621 235.541L371.33 217.039L374.358 225.666L321.65 244.168L318.621 235.541ZM336.49 215.074L344.227 212.358L356.286 246.715C358.066 251.785 357.923 254.47 355.439 256.872C353.042 259.328 349.045 260.901 343.666 262.789C342.313 260.289 339.394 256.809 337.395 254.791C341.404 253.638 346.058 252.005 347.362 251.462C348.604 250.941 348.921 250.49 348.47 249.203L336.49 215.074ZM327.272 188.815L335.009 186.099L339.791 199.721L332.054 202.436L327.272 188.815ZM307.665 203.942L360.132 185.525L366.906 204.823L359.35 207.475L355.525 196.578L317.747 209.838L321.572 220.736L314.439 223.239L307.665 203.942Z" fill="white"/>
<path d="M377.166 203.686L418.33 189.237L433.099 231.312L425.664 233.922L413.843 200.246L387.187 209.603L399.007 243.279L391.935 245.761L377.166 203.686ZM390.502 188.295L397.756 185.749L413.694 231.154L406.44 233.7L390.502 188.295ZM385.755 218.096L420.934 205.747L423.617 213.391L388.438 225.739L385.755 218.096ZM391.06 233.403L426.36 221.012L429.309 229.412L394.009 241.803L391.06 233.403ZM383.487 169.083L391.224 166.367L396.058 180.14L388.321 182.856L383.487 169.083ZM364.731 184.506L415.868 166.556L422.455 185.324L414.96 187.955L411.295 177.512L374.785 190.327L378.451 200.77L371.318 203.274L364.731 184.506Z" fill="white"/>
<path d="M446.192 155.657C443.65 165.049 436.961 176.747 429.157 185.266C427.567 183.445 424.498 180.697 422.383 179.314C430.656 170.97 437.314 158.603 439.353 149.133L446.728 146.544C456.818 153.627 469.119 157.724 479.877 158.198C478.981 161.062 478.465 164.813 478.125 167.908C467.774 166.271 454.429 161.521 446.192 155.657ZM441.281 184.411L467.937 175.054L470.222 181.562L443.565 190.919L441.281 184.411ZM445.055 164.216L452.55 161.585L456.136 171.801L448.641 174.432L445.055 164.216ZM441.12 218.381C447.678 215.4 457.427 210.873 466.518 206.406L469.421 214.482C460.873 218.758 451.695 223.169 445.036 226.442L441.12 218.381ZM462.014 193.962C469.547 201.688 480.439 203.9 493.71 201.282C492.802 203.725 492.204 208.015 492.086 210.776C477.685 212.687 466.329 208.768 456.593 198.246L462.014 193.962ZM479.315 186.19L486.486 189.792C483.126 195.307 478.731 201.354 475.108 205.346L469.029 201.955C472.573 197.736 476.936 191.02 479.315 186.19ZM437.429 173.438L468.921 162.383L478.989 191.064L447.497 202.118L445.026 195.081L469.205 186.594L464.078 171.988L439.9 180.475L437.429 173.438ZM432.956 175.008L440.149 172.483L454.971 214.709L448.124 218.218L432.956 175.008Z" fill="white"/>
<path d="M146.103 286.408L162.242 280.743L165.271 289.37L149.132 295.035L146.103 286.408ZM149.246 268.475L168.77 261.622L171.825 270.324L152.301 277.178L149.246 268.475ZM172.719 263.975C182.895 280.973 196.16 293.232 212.045 294.966C211.05 297.355 210.021 301.966 209.809 304.845C192.615 301.701 179.235 287.953 167.199 267.783L172.719 263.975ZM190.211 260.811L199.072 264.585C195.893 272.161 191.898 280.703 188.444 286.336L181.446 282.842C184.734 276.928 188.489 267.705 190.211 260.811ZM164.418 263.149L172.276 260.391L188.134 305.569C189.834 310.412 189.864 313.206 187.857 315.611C185.762 317.961 182.189 319.386 177.051 321.189C175.819 318.647 173.323 315.018 171.358 312.902C174.521 312.047 178.329 310.711 179.357 310.35C180.418 309.892 180.648 309.387 180.223 308.176L164.418 263.149ZM151.251 259.101L152.275 250.412C160.011 249.822 171.54 250.365 177.907 251.87L177.014 261.703C170.896 259.941 159.449 258.859 151.251 259.101ZM159.522 281.698L160.973 281.188L162.136 280.44L167.935 281.294C170.586 298.129 168.383 312.162 163.153 321.053C161.314 319.488 157.13 317.047 154.872 316.224C160.206 308.402 162.294 296.364 160.133 283.438L159.522 281.698Z" stroke="#6C6C6C" stroke-width="4" mask="url(#path-15-outside-2_344_436)"/>
<path d="M215.022 261.281L224.797 289.13L217.846 291.57L211.019 272.121L204.249 274.498L201.3 266.098L215.022 261.281ZM223.548 285.573C227.598 289.761 232.66 290.449 238.993 288.567C246.405 286.475 260.651 281.219 268.761 277.437C268.693 279.756 269.005 284.322 269.633 287.076C262.236 290.183 249.414 294.853 241.881 296.988C234.494 299.155 228.828 298.68 223.156 294.126C221.774 297.926 220.245 301.692 218.365 306.007L211.758 298.211C213.58 295.277 215.585 291.513 217.262 287.78L223.548 285.573ZM193.593 243.559L197.374 236.537C201.988 238.657 207.999 242.242 211.121 245.141L207.156 252.993C204.222 249.857 198.34 246.057 193.593 243.559ZM228.051 256.623L229.751 261.466L246.374 255.631L244.674 250.788L228.051 256.623ZM219.277 252.903L249.561 242.273L255.511 259.224L225.227 269.854L219.277 252.903ZM211.779 245.08L250.766 231.395L253.024 237.827L214.037 251.512L211.779 245.08ZM211.522 234.29L243.8 222.96L246.031 229.317L213.753 240.647L211.522 234.29ZM222.373 225.552L229.384 223.09L235.813 241.404L228.801 243.865L222.373 225.552ZM235.495 262.935L242.386 260.516L250.089 282.462L243.198 284.881L235.495 262.935ZM235.381 262.805L242.544 263.095C241.124 272.009 236.143 280.642 230.38 286.66C228.949 285.292 225.646 282.457 223.818 281.313C229.269 276.34 234.083 269.55 235.381 262.805ZM253.486 257.13L260.353 259.479C258.132 263.404 255.495 267.304 253.36 269.924L248.088 267.864C249.97 264.909 252.28 260.273 253.486 257.13ZM242.89 261.954C248.117 267.174 256.031 269.411 264.708 268.405C263.815 270.504 263.151 274.222 263.075 276.713C253.415 277.044 244.89 273.067 238.129 265.41L242.89 261.954Z" stroke="#6C6C6C" stroke-width="4" mask="url(#path-15-outside-2_344_436)"/>
<path d="M284.938 217.53C286.801 225.546 288.7 234.824 289.719 244.496C291.458 261.056 289.554 272.264 282.965 274.577C276.195 276.953 267.367 269.597 262.878 256.808C256.768 239.403 263.658 220.154 279.314 214.659C294.244 209.418 308.303 219.103 314.12 235.676C319.698 251.568 315.859 265.58 301.662 273.878L293.934 266.561C296.158 265.356 297.718 264.383 299.191 263.356C306.044 258.316 309.671 249.307 305.766 238.183C301.596 226.302 292.697 219.906 282.24 223.577C269.426 228.075 267.009 243.628 270.356 253.163C273.039 260.806 276.759 263.665 279.056 262.859C281.655 261.947 282.252 256.297 281.204 245.19C280.46 237.461 278.735 228.292 276.551 220.134L284.938 217.53Z" stroke="#6C6C6C" stroke-width="4" mask="url(#path-15-outside-2_344_436)"/>
<path d="M322.497 215.056L355.138 203.598L358.113 212.074L325.472 223.531L322.497 215.056ZM318.621 235.541L371.33 217.039L374.358 225.666L321.65 244.168L318.621 235.541ZM336.49 215.074L344.227 212.358L356.286 246.715C358.066 251.785 357.923 254.47 355.439 256.872C353.042 259.328 349.045 260.901 343.666 262.789C342.313 260.289 339.394 256.809 337.395 254.791C341.404 253.638 346.058 252.005 347.362 251.462C348.604 250.941 348.921 250.49 348.47 249.203L336.49 215.074ZM327.272 188.815L335.009 186.099L339.791 199.721L332.054 202.436L327.272 188.815ZM307.665 203.942L360.132 185.525L366.906 204.823L359.35 207.475L355.525 196.578L317.747 209.838L321.572 220.736L314.439 223.239L307.665 203.942Z" stroke="#6C6C6C" stroke-width="4" mask="url(#path-15-outside-2_344_436)"/>
<path d="M377.166 203.686L418.33 189.237L433.099 231.312L425.664 233.922L413.843 200.246L387.187 209.603L399.007 243.279L391.935 245.761L377.166 203.686ZM390.502 188.295L397.756 185.749L413.694 231.154L406.44 233.7L390.502 188.295ZM385.755 218.096L420.934 205.747L423.617 213.391L388.438 225.739L385.755 218.096ZM391.06 233.403L426.36 221.012L429.309 229.412L394.009 241.803L391.06 233.403ZM383.487 169.083L391.224 166.367L396.058 180.14L388.321 182.856L383.487 169.083ZM364.731 184.506L415.868 166.556L422.455 185.324L414.96 187.955L411.295 177.512L374.785 190.327L378.451 200.77L371.318 203.274L364.731 184.506Z" stroke="#6C6C6C" stroke-width="4" mask="url(#path-15-outside-2_344_436)"/>
<path d="M446.192 155.657C443.65 165.049 436.961 176.747 429.157 185.266C427.567 183.445 424.498 180.697 422.383 179.314C430.656 170.97 437.314 158.603 439.353 149.133L446.728 146.544C456.818 153.627 469.119 157.724 479.877 158.198C478.981 161.062 478.465 164.813 478.125 167.908C467.774 166.271 454.429 161.521 446.192 155.657ZM441.281 184.411L467.937 175.054L470.222 181.562L443.565 190.919L441.281 184.411ZM445.055 164.216L452.55 161.585L456.136 171.801L448.641 174.432L445.055 164.216ZM441.12 218.381C447.678 215.4 457.427 210.873 466.518 206.406L469.421 214.482C460.873 218.758 451.695 223.169 445.036 226.442L441.12 218.381ZM462.014 193.962C469.547 201.688 480.439 203.9 493.71 201.282C492.802 203.725 492.204 208.015 492.086 210.776C477.685 212.687 466.329 208.768 456.593 198.246L462.014 193.962ZM479.315 186.19L486.486 189.792C483.126 195.307 478.731 201.354 475.108 205.346L469.029 201.955C472.573 197.736 476.936 191.02 479.315 186.19ZM437.429 173.438L468.921 162.383L478.989 191.064L447.497 202.118L445.026 195.081L469.205 186.594L464.078 171.988L439.9 180.475L437.429 173.438ZM432.956 175.008L440.149 172.483L454.971 214.709L448.124 218.218L432.956 175.008Z" stroke="#6C6C6C" stroke-width="4" mask="url(#path-15-outside-2_344_436)"/>
</g>
</svg>
