<svg width="45" height="123" viewBox="0 0 45 123" fill="none" xmlns="http://www.w3.org/2000/svg">
<mask id="path-1-outside-1_344_624" maskUnits="userSpaceOnUse" x="-3" y="-2" width="50" height="127" fill="black">
<rect fill="white" x="-3" y="-2" width="50" height="127"/>
<path d="M17.74 74.66H34.66L8.92 122.54H0.280002L17.74 74.66ZM32.86 19.94C29.5 19.94 27.1 19.34 25.66 18.14C24.34 16.94 23.68 15.38 23.68 13.46C23.68 12.26 23.86 10.76 24.22 8.96C24.7 6.44 25.84 4.46 27.64 3.01999C29.44 1.45999 32.14 0.679991 35.74 0.679991C39.1 0.679991 41.44 1.27999 42.76 2.48C44.2 3.68 44.92 5.24 44.92 7.15999C44.92 8.36 44.74 9.86 44.38 11.66C43.9 14.18 42.76 16.22 40.96 17.78C39.16 19.22 36.46 19.94 32.86 19.94Z"/>
</mask>
<path d="M17.74 74.66H34.66L8.92 122.54H0.280002L17.74 74.66ZM32.86 19.94C29.5 19.94 27.1 19.34 25.66 18.14C24.34 16.94 23.68 15.38 23.68 13.46C23.68 12.26 23.86 10.76 24.22 8.96C24.7 6.44 25.84 4.46 27.64 3.01999C29.44 1.45999 32.14 0.679991 35.74 0.679991C39.1 0.679991 41.44 1.27999 42.76 2.48C44.2 3.68 44.92 5.24 44.92 7.15999C44.92 8.36 44.74 9.86 44.38 11.66C43.9 14.18 42.76 16.22 40.96 17.78C39.16 19.22 36.46 19.94 32.86 19.94Z" fill="white"/>
<path d="M17.74 74.66V72.66H16.3405L15.861 73.9748L17.74 74.66ZM34.66 74.66L36.4216 75.607L38.0059 72.66H34.66V74.66ZM8.92 122.54V124.54H10.1155L10.6816 123.487L8.92 122.54ZM0.280003 122.54L-1.59896 121.855L-2.57815 124.54H0.280003V122.54ZM25.66 18.14L24.3147 19.6199L24.3465 19.6489L24.3796 19.6764L25.66 18.14ZM24.22 8.96L26.1812 9.35223L26.183 9.34324L26.1847 9.33422L24.22 8.96ZM27.64 3.01999L28.8894 4.58173L28.9201 4.55714L28.9499 4.53137L27.64 3.01999ZM42.76 2.48L41.4147 3.95988L41.4465 3.98886L41.4796 4.01644L42.76 2.48ZM44.38 11.66L42.4188 11.2678L42.417 11.2768L42.4153 11.2858L44.38 11.66ZM40.96 17.78L42.2094 19.3417L42.2401 19.3171L42.2699 19.2914L40.96 17.78ZM17.74 76.66H34.66V72.66H17.74V76.66ZM32.8984 73.713L7.15842 121.593L10.6816 123.487L36.4216 75.607L32.8984 73.713ZM8.92 120.54H0.280003V124.54H8.92V120.54ZM2.15897 123.225L19.619 75.3452L15.861 73.9748L-1.59896 121.855L2.15897 123.225ZM32.86 17.94C29.637 17.94 27.8298 17.3447 26.9404 16.6036L24.3796 19.6764C26.3702 21.3353 29.363 21.94 32.86 21.94V17.94ZM27.0053 16.6601C26.1367 15.8705 25.68 14.8648 25.68 13.46H21.68C21.68 15.8952 22.5433 18.0095 24.3147 19.6199L27.0053 16.6601ZM25.68 13.46C25.68 12.4414 25.835 11.0833 26.1812 9.35223L22.2588 8.56776C21.885 10.4367 21.68 12.0786 21.68 13.46H25.68ZM26.1847 9.33422C26.5862 7.2261 27.5044 5.68972 28.8894 4.58173L26.3906 1.45826C24.1756 3.23027 22.8138 5.6539 22.2553 8.58577L26.1847 9.33422ZM28.9499 4.53137C30.2399 3.41334 32.3837 2.67999 35.74 2.67999V-1.32001C31.8963 -1.32001 28.6401 -0.493359 26.3301 1.50861L28.9499 4.53137ZM35.74 2.67999C38.9901 2.67999 40.6737 3.28624 41.4147 3.95988L44.1054 1.00012C42.2064 -0.726254 39.2099 -1.32001 35.74 -1.32001V2.67999ZM41.4796 4.01644C42.451 4.82592 42.92 5.81691 42.92 7.15999H46.92C46.92 4.66309 45.949 2.53408 44.0404 0.943558L41.4796 4.01644ZM42.92 7.15999C42.92 8.17856 42.765 9.53674 42.4188 11.2678L46.3412 12.0522C46.715 10.1833 46.92 8.54144 46.92 7.15999H42.92ZM42.4153 11.2858C42.0126 13.4002 41.0832 15.0266 39.6501 16.2686L42.2699 19.2914C44.4368 17.4134 45.7874 14.9598 46.3447 12.0342L42.4153 11.2858ZM39.7106 16.2183C38.4159 17.254 36.2463 17.94 32.86 17.94V21.94C36.6737 21.94 39.9041 21.186 42.2094 19.3417L39.7106 16.2183Z" fill="black" mask="url(#path-1-outside-1_344_624)"/>
</svg>
