<svg width="550" height="36" viewBox="0 0 550 36" fill="none" xmlns="http://www.w3.org/2000/svg">
<path d="M6.248 35L0.776 1.4H4.808L9.56 32.408H10.232L16.424 1.4H23.624L29.768 32.408H30.44L35.192 1.4H39.224L33.752 35H26.552L20.36 3.8H19.688L13.496 35H6.248ZM41.96 35V1.4H62.648V5.048H45.992V16.28H61.304V19.928H45.992V31.352H62.888V35H41.96ZM66.1269 35V1.4H79.7109C81.7909 1.4 83.6149 1.768 85.1829 2.504C86.7829 3.208 88.0309 4.232 88.9269 5.576C89.8229 6.888 90.2709 8.472 90.2709 10.328V10.856C90.2709 13.064 89.7429 14.808 88.6869 16.088C87.6309 17.368 86.3829 18.232 84.9429 18.68V19.352C86.0949 19.384 87.0389 19.768 87.7749 20.504C88.5429 21.208 88.9269 22.28 88.9269 23.72V35H84.9429V24.2C84.9429 23.24 84.6709 22.504 84.1269 21.992C83.6149 21.48 82.8309 21.224 81.7749 21.224H70.1589V35H66.1269ZM70.1589 17.576H79.3269C81.5349 17.576 83.2309 17.048 84.4149 15.992C85.6309 14.904 86.2389 13.4 86.2389 11.48V11.144C86.2389 9.224 85.6469 7.736 84.4629 6.68C83.2789 5.592 81.5669 5.048 79.3269 5.048H70.1589V17.576ZM102.976 35V1.4H107.008V35H102.976ZM122.999 35.672C120.567 35.672 118.391 35.24 116.471 34.376C114.551 33.512 113.031 32.216 111.911 30.488C110.823 28.728 110.279 26.536 110.279 23.912V22.904H114.263V23.912C114.263 26.696 115.079 28.776 116.711 30.152C118.343 31.496 120.439 32.168 122.999 32.168C125.623 32.168 127.623 31.576 128.999 30.392C130.375 29.208 131.063 27.72 131.063 25.928C131.063 24.68 130.743 23.688 130.103 22.952C129.495 22.216 128.631 21.624 127.511 21.176C126.391 20.696 125.079 20.28 123.575 19.928L121.079 19.304C119.127 18.792 117.399 18.168 115.895 17.432C114.391 16.696 113.207 15.736 112.343 14.552C111.511 13.336 111.095 11.784 111.095 9.896C111.095 8.008 111.559 6.376 112.487 5C113.447 3.624 114.775 2.568 116.471 1.832C118.199 1.096 120.183 0.727998 122.423 0.727998C124.695 0.727998 126.727 1.128 128.519 1.928C130.343 2.696 131.767 3.848 132.791 5.384C133.847 6.888 134.375 8.792 134.375 11.096V13.112H130.391V11.096C130.391 9.464 130.039 8.152 129.335 7.16C128.663 6.168 127.719 5.432 126.503 4.952C125.319 4.472 123.959 4.232 122.423 4.232C120.215 4.232 118.439 4.728 117.095 5.72C115.751 6.68 115.079 8.056 115.079 9.848C115.079 11.032 115.367 11.992 115.943 12.728C116.519 13.464 117.335 14.072 118.391 14.552C119.447 15 120.711 15.4 122.183 15.752L124.679 16.376C126.631 16.792 128.375 17.368 129.911 18.104C131.479 18.808 132.727 19.784 133.655 21.032C134.583 22.248 135.047 23.848 135.047 25.832C135.047 27.816 134.551 29.544 133.559 31.016C132.567 32.488 131.159 33.64 129.335 34.472C127.543 35.272 125.431 35.672 122.999 35.672ZM145.175 35V5.048H134.375V1.4H160.007V5.048H149.207V35H145.175ZM179.225 35.672C175.929 35.672 173.321 34.744 171.401 32.888C169.513 31.032 168.569 28.376 168.569 24.92V22.328H172.553V24.92C172.553 27 173.097 28.696 174.185 30.008C175.305 31.32 176.969 31.976 179.177 31.976C181.417 31.976 183.001 31.336 183.929 30.056C184.857 28.744 185.321 27.032 185.321 24.92V5.048H179.417V1.4H193.001V5.048H189.353V24.92C189.353 28.408 188.489 31.08 186.761 32.936C185.033 34.76 182.521 35.672 179.225 35.672ZM196.061 35V1.4H216.749V5.048H200.093V16.28H215.405V19.928H200.093V31.352H216.989V35H196.061ZM228.483 35V5.048H217.683V1.4H243.315V5.048H232.515V35H228.483ZM244.126 35V29.672L262.846 5.576V5H244.702V1.4H266.83V6.728L248.11 30.824V31.4H267.214V35H244.126ZM278.645 35V5.048H267.845V1.4H293.477V5.048H282.677V35H278.645ZM303.911 35V1.4H324.599V5.048H307.943V16.28H323.255V19.928H307.943V31.352H324.839V35H303.911ZM328.077 35V1.4H332.109V35H328.077ZM336.916 35V1.4H344.74L356.452 32.456H357.076V1.4H361.06V35H353.236L341.572 3.896H340.9V35H336.916ZM375.359 35V1.4H379.391V16.04H380.063L394.271 1.4H399.647L383.279 18.008L400.223 35H394.703L380.063 20.072H379.391V35H375.359ZM401.776 35V1.4H422.464V5.048H405.808V16.28H421.12V19.928H405.808V31.352H422.704V35H401.776ZM434.199 35V5.048H423.399V1.4H449.031V5.048H438.231V35H434.199ZM449.842 35V29.672L468.562 5.576V5H450.418V1.4H472.546V6.728L453.826 30.824V31.4H472.93V35H449.842ZM476.105 35V1.4H496.793V5.048H480.137V16.28H495.449V19.928H480.137V31.352H497.033V35H476.105ZM500.272 35V1.4H513.856C515.936 1.4 517.76 1.768 519.328 2.504C520.928 3.208 522.176 4.232 523.072 5.576C523.968 6.888 524.416 8.472 524.416 10.328V10.856C524.416 13.064 523.888 14.808 522.832 16.088C521.776 17.368 520.528 18.232 519.088 18.68V19.352C520.24 19.384 521.184 19.768 521.92 20.504C522.688 21.208 523.072 22.28 523.072 23.72V35H519.088V24.2C519.088 23.24 518.816 22.504 518.272 21.992C517.76 21.48 516.976 21.224 515.92 21.224H504.304V35H500.272ZM504.304 17.576H513.472C515.68 17.576 517.376 17.048 518.56 15.992C519.776 14.904 520.384 13.4 520.384 11.48V11.144C520.384 9.224 519.792 7.736 518.608 6.68C517.424 5.592 515.712 5.048 513.472 5.048H504.304V17.576ZM535.209 26.024V23.096C535.209 21.624 535.481 20.472 536.025 19.64C536.569 18.776 537.529 18.04 538.905 17.432L540.249 16.856C541.913 16.152 543.209 15.32 544.137 14.36C545.065 13.368 545.529 11.992 545.529 10.232C545.529 8.92 545.193 7.816 544.521 6.92C543.849 6.024 542.937 5.336 541.785 4.856C540.633 4.376 539.337 4.136 537.897 4.136C536.457 4.136 535.113 4.392 533.865 4.904C532.649 5.384 531.657 6.136 530.889 7.16C530.153 8.152 529.785 9.416 529.785 10.952V12.632H525.897V10.952C525.897 8.744 526.409 6.888 527.433 5.384C528.489 3.848 529.913 2.696 531.705 1.928C533.529 1.128 535.593 0.727998 537.897 0.727998C540.169 0.727998 542.169 1.144 543.897 1.976C545.657 2.776 547.017 3.896 547.977 5.336C548.969 6.744 549.465 8.376 549.465 10.232C549.465 12.056 549.113 13.576 548.409 14.792C547.737 15.976 546.857 16.968 545.769 17.768C544.681 18.536 543.481 19.208 542.169 19.784L540.873 20.36C540.265 20.616 539.833 20.952 539.577 21.368C539.321 21.784 539.193 22.376 539.193 23.144V26.024H535.209ZM537.273 35.672C536.313 35.672 535.529 35.368 534.921 34.76C534.313 34.152 534.009 33.368 534.009 32.408C534.009 31.448 534.313 30.664 534.921 30.056C535.529 29.448 536.313 29.144 537.273 29.144C538.201 29.144 538.969 29.448 539.577 30.056C540.217 30.664 540.537 31.448 540.537 32.408C540.537 33.368 540.217 34.152 539.577 34.76C538.969 35.368 538.201 35.672 537.273 35.672Z" fill="#0048FF"/>
</svg>
