<svg width="278" height="168" viewBox="0 0 278 168" fill="none" xmlns="http://www.w3.org/2000/svg">
<path d="M52.6841 45.5024L45.7433 103.556" stroke="white" stroke-width="2"/>
<path d="M52.9536 45.5348L46.5207 103.918" stroke="white" stroke-width="2"/>
<path d="M178.268 107.369C168.669 106.222 161.831 97.6529 162.953 88.2623C164.076 78.8717 172.742 72.1563 182.341 73.304C191.94 74.4517 198.778 83.0206 197.656 92.4112C196.533 101.802 187.867 108.517 178.268 107.369Z" stroke="white" stroke-width="2"/>
<path d="M138.896 95.6715C133.32 95.0048 129.36 90.0302 130.01 84.5924C130.66 79.1546 135.681 75.2538 141.258 75.9206C146.834 76.5873 150.795 81.5619 150.145 86.9997C149.495 92.4375 144.473 96.3383 138.896 95.6715Z" stroke="white" stroke-width="2"/>
<path d="M52.9856 45.2699L27.4366 39.2577C26.0296 38.8206 18.2709 38.108 21.1532 41.464C22.6474 43.2038 24.7421 44.842 26.3954 46.1641C28.2911 47.68 27.8412 49.6169 25.7977 50.9268L23.3829 52.4747C18.1101 55.8546 19.6649 63.941 25.8054 65.1738V65.1738C33.8996 66.7988 33.0295 78.693 24.7778 78.9515L21.4057 79.0572C17.3456 79.1844 15.0452 83.7643 17.3673 87.0972L18.2608 88.3795C18.4216 88.6104 18.6635 88.7722 18.9382 88.8327V88.8327C20.2775 89.1279 20.0202 92.2509 18.6563 92.3936C13.3126 92.9528 8.52501 93.7037 8.00701 94.2045C6.76948 95.4009 16.7205 98.3601 17.2115 99.607C19.1006 104.404 25.5588 103.025 25.1939 103.788V103.788C23.4375 107.461 23.5182 110.025 27.4085 108.824L46.0765 103.058" stroke="white" stroke-width="2"/>
<path d="M125.726 45.6317C123.751 30.8764 109.726 -2.38967 83.7492 14.5323C75.3248 20.0202 67.6414 23.0009 60.7383 24.4175C44.0131 27.8499 39.4464 34.8678 52.9856 45.2699V45.2699" stroke="white" stroke-width="2"/>
<path d="M116.666 119.123C111.368 132.241 90.1377 159.622 68.8174 138.104C61.8855 131.108 55.0985 126.6 48.7127 123.716C33.8076 116.984 31.4356 109.208 46.6163 103.122V103.122" stroke="white" stroke-width="2"/>
<path d="M269 98.0001C243.328 112.856 185.726 138.36 124.04 121.521C62.3543 104.681 46.3144 103.355 46.3144 103.355" stroke="white" stroke-width="2"/>
<path d="M269 99.0001C247.214 81.0536 187.679 45.2773 123.83 45.744C59.9806 46.2107 52.9638 45.4596 52.423 45.3949" stroke="white" stroke-width="2"/>
</svg>
